<svg width="78" height="81" viewBox="0 0 78 81" fill="none" xmlns="http://www.w3.org/2000/svg">
<path d="M39.8672 48.8266C42.7588 48.8266 45.2032 46.6009 45.2032 43.735C45.2032 40.8691 42.7588 38.6433 39.8672 38.6433C36.9757 38.6433 34.5313 40.8691 34.5313 43.735C34.5313 46.6009 36.9757 48.8266 39.8672 48.8266Z" fill="#9381FF" stroke="#336699" stroke-width="2"/>
<path d="M21.6914 11.1567C18.4328 12.7683 15.4518 14.8033 12.8282 17.1894V6C12.8282 3.23858 10.5896 1 7.82817 1H6.00005C3.23862 1 1.00005 3.23858 1.00005 6V43.4088C0.998332 44.5195 1.05032 45.6329 1.15675 46.7455L1.25098 47.7306L2.23708 47.6466L12.4308 46.7783L13.4376 46.6925L13.3413 45.6867C12.8753 40.8142 13.9501 35.9174 16.4356 31.614C18.9216 27.3098 22.7098 23.7888 27.329 21.5043C31.9487 19.2197 37.1869 18.2773 42.3797 18.8003C47.5725 19.3233 52.4781 21.2872 56.4774 24.4363L57.2195 25.0206L57.8452 24.313L64.4026 16.8971L65.1039 16.104L64.2721 15.449C58.4126 10.8352 51.2413 7.96931 43.6664 7.2064C36.0915 6.44349 28.4447 7.81684 21.6914 11.1567Z" fill="#92C9B1" stroke="#336699" stroke-width="2"/>
<path d="M61.2817 52.6789L64.2001 52.7264C62.6456 56.3669 60.1967 59.6337 57.028 62.2452C52.9083 65.6405 47.7734 67.7618 42.3199 68.3122C36.8663 68.8626 31.3681 67.8145 26.5741 65.3148C21.7807 62.8154 17.9293 58.9892 15.5341 54.365L15.0947 53.5168L14.2273 53.9169L5.30082 58.0342L4.35024 58.4727L4.83171 59.4022C8.31895 66.1348 13.913 71.6806 20.8441 75.2947C27.7748 78.9085 35.7116 80.4188 43.5775 79.6249C51.4434 78.831 58.8664 75.7703 64.8358 70.8504C70.5303 66.1572 74.6402 59.9876 76.6573 53.1086L75.6977 52.8272L76.6573 53.1086C76.7671 52.734 76.7559 52.3623 76.6549 52.0252C76.8724 51.7055 77 51.3191 77 50.9018V48.0077C77 45.2463 74.7614 43.0077 72 43.0077H63.2223C62.818 30.8389 52.3019 21.4589 39.8672 21.4589C27.1859 21.4589 16.5 31.2147 16.5 43.735C16.5 56.2553 27.1859 66.0111 39.8672 66.0111C49.3147 66.0111 57.6359 60.6083 61.2817 52.6789ZM24.5 43.735C24.5 36.0628 31.1617 29.4589 39.8672 29.4589C48.5728 29.4589 55.2344 36.0628 55.2344 43.735C55.2344 51.4071 48.5728 58.0111 39.8672 58.0111C31.1617 58.0111 24.5 51.4071 24.5 43.735Z" fill="#FAF0CA" stroke="#336699" stroke-width="2"/>
</svg>
