<svg width="268" height="144" viewBox="0 0 268 144" fill="none" xmlns="http://www.w3.org/2000/svg">
<g id="Frame 1">
<g id="text" filter="url(#filter0_d_3_2)">
<path d="M23.08 95.72H30.76C32.2533 95.8 33.4933 95.9333 34.48 96.12C36.3467 96.4933 37.6667 97.2 38.44 98.24C38.7333 98.6133 38.96 99.08 39.12 99.64C39.28 100.2 39.3067 100.8 39.2 101.44C38.8267 104.347 37.12 106.853 34.08 108.96C33.2267 109.573 32.2 110.147 31 110.68L30.48 110.92L30.68 111.24C31.1067 111.907 31.7333 113.267 32.56 115.32C33.44 117.587 34.16 119.067 34.72 119.76C35.0933 120.293 35.5333 120.613 36.04 120.72C36.7867 120.853 37.5467 120.653 38.32 120.12C38.6933 119.853 39.0533 119.507 39.4 119.08C39.8533 118.573 40.28 118.2 40.68 117.96C41.4 117.56 42.0533 117.36 42.64 117.36C42.9067 117.36 43.08 117.387 43.16 117.44C43.8 117.813 43.4267 118.68 42.04 120.04C39.9067 122.173 37.48 123.427 34.76 123.8C34.3333 123.853 33.92 123.88 33.52 123.88C32.96 123.88 32.4933 123.787 32.12 123.6C31.32 123.227 30.6133 122.52 30 121.48C29.4933 120.653 28.9067 119.347 28.24 117.56C27.4667 115.56 26.8267 114.2 26.32 113.48C25.8933 112.84 25.52 112.44 25.2 112.28C24.8 112.147 24.52 112.08 24.36 112.08C24.0933 112.08 23.8933 111.947 23.76 111.68C23.6267 111.307 23.8267 110.853 24.36 110.32C24.7333 109.947 25.1867 109.627 25.72 109.36C26.2533 109.12 26.84 108.987 27.48 108.96C28.8667 108.88 30.1333 108.587 31.28 108.08C32.88 107.307 33.96 106.093 34.52 104.44C34.7333 103.8 34.84 103.2 34.84 102.64C34.84 102.08 34.7467 101.613 34.56 101.24C34.2133 100.493 33.44 99.92 32.24 99.52C30.7733 99.04 28.64 98.8 25.84 98.8C25.36 98.8 25.12 98.8267 25.12 98.88L24.96 100C24.1867 106.453 22.5067 112.92 19.92 119.4C19.2267 121.187 18.7333 122.213 18.44 122.48C18.3867 122.533 18.32 122.6 18.24 122.68C17.36 123.48 16.44 123.88 15.48 123.88C15.2667 123.88 15.1067 123.84 15 123.76C14.7867 123.627 14.68 123.453 14.68 123.24C14.68 123.16 14.7467 122.96 14.88 122.64C15.4933 121.173 16 119.893 16.4 118.8C18.3467 113.493 19.68 108.24 20.4 103.04C20.8 100.4 20.96 99 20.88 98.84C20.8 98.7867 20.2667 98.8533 19.28 99.04C17.7867 99.28 16.7067 99.6933 16.04 100.28C15.6133 100.707 15.2933 101.253 15.08 101.92C14.9467 102.267 14.7467 102.613 14.48 102.96C13.52 103.787 12.5067 104.253 11.44 104.36C11.0933 104.36 10.8667 104.24 10.76 104C10.68 103.84 10.7067 103.533 10.84 103.08C11.3733 101.533 12.3867 100.187 13.88 99.04C16.3333 97.12 19.4 96.0133 23.08 95.72ZM58.8263 94.88C59.0396 94.8267 59.2263 94.8 59.3863 94.8C59.5996 94.8 59.7729 94.84 59.9063 94.92C60.1196 95.0533 60.2263 95.2133 60.2263 95.4C60.2263 95.5867 60.1463 95.8133 59.9863 96.08C59.7196 96.5067 59.1729 96.9733 58.3463 97.48C57.7063 97.8533 57.0663 98.2933 56.4263 98.8C55.4663 99.68 54.7596 100.387 54.3063 100.92C52.7063 102.893 51.6263 105.013 51.0663 107.28C50.2129 110.667 50.3863 113.693 51.5863 116.36C52.2796 117.853 53.2663 118.973 54.5463 119.72C54.6529 119.773 54.7463 119.827 54.8263 119.88C56.4529 120.68 58.1196 120.933 59.8263 120.64C62.2796 120.267 64.4929 118.96 66.4663 116.72C68.2796 114.72 69.5063 112.36 70.1463 109.64C70.9996 105.907 70.7863 102.88 69.5063 100.56C69.2663 100.08 68.9729 99.6667 68.6263 99.32C68.0929 98.84 67.4663 98.4667 66.7463 98.2C65.7596 97.9333 64.9329 97.8667 64.2663 98C63.7863 98.1333 63.2263 98.52 62.5863 99.16C61.6263 100.2 60.7329 101.64 59.9063 103.48C59.5863 104.173 59.2529 104.68 58.9063 105C58.0263 105.747 57.1329 106.12 56.2263 106.12C55.9863 106.12 55.8129 106.08 55.7063 106C55.4929 105.867 55.3863 105.667 55.3863 105.4C55.5196 104.813 56.0129 103.76 56.8663 102.24C56.8929 102.187 56.9196 102.133 56.9463 102.08C57.9063 100.507 58.8796 99.2667 59.8663 98.36C61.8929 96.4133 64.0929 95.2533 66.4663 94.88C67.2663 94.7733 68.1596 94.7733 69.1463 94.88C69.1996 94.88 69.2529 94.88 69.3063 94.88C71.0663 95.2267 72.4396 96.12 73.4263 97.56C74.1729 98.7333 74.6663 100.227 74.9063 102.04C75.0129 102.813 75.0263 103.88 74.9463 105.24C74.9196 105.373 74.9063 105.48 74.9063 105.56C74.7463 107.053 74.4796 108.36 74.1063 109.48C73.0129 113.053 70.9596 116.16 67.9463 118.8C67.7863 118.96 67.6129 119.107 67.4262 119.24C63.6929 122.333 59.7863 123.88 55.7063 123.88C53.7596 123.88 52.0396 123.4 50.5463 122.44C48.3596 121.053 46.9863 118.853 46.4263 115.84C45.8929 113.093 46.1196 110.307 47.1063 107.48C47.5863 106.013 48.3463 104.453 49.3863 102.8C51.1996 100.133 53.5329 97.88 56.3863 96.04C57.4796 95.3733 58.2929 94.9867 58.8263 94.88ZM86.5422 94.84L87.0222 94.8H87.0622C87.2755 94.8 87.4489 94.84 87.5822 94.92C87.6889 94.9733 87.7689 95.0667 87.8222 95.2C87.8755 95.3067 87.8489 95.72 87.7422 96.44C87.7155 96.6533 87.6222 97.32 87.4622 98.44C87.3822 99.0533 87.3422 99.3733 87.3422 99.4C87.3422 99.48 87.5022 99.3333 87.8222 98.96C89.0755 97.7867 90.3422 96.88 91.6222 96.24C92.9822 95.5733 94.3822 95.12 95.8222 94.88C96.6489 94.7733 97.5422 94.7733 98.5022 94.88C99.7822 95.1467 100.769 95.7333 101.462 96.64C101.729 96.96 101.956 97.4133 102.142 98C102.276 98.5067 102.289 99.1867 102.182 100.04C101.809 101.613 100.849 103.08 99.3022 104.44C98.3422 105.24 97.3155 105.92 96.2222 106.48L95.9422 106.68L96.2622 106.8C96.7689 107.013 97.3022 107.293 97.8622 107.64C99.3822 108.653 100.329 110.04 100.702 111.8C100.756 112.067 100.782 112.507 100.782 113.12C100.782 113.76 100.756 114.24 100.702 114.56C100.436 115.84 99.9022 117.04 99.1022 118.16C97.5289 120.267 95.3555 121.84 92.5822 122.88C91.8622 123.147 91.1555 123.36 90.4622 123.52C88.6222 123.947 87.0622 124.013 85.7822 123.72C84.6889 123.507 83.7022 123.04 82.8222 122.32C82.3955 122.027 82.1022 121.733 81.9422 121.44C81.7555 120.88 82.1422 120.253 83.1022 119.56C83.9022 119 84.6755 118.72 85.4222 118.72C85.7155 118.72 85.9555 118.827 86.1422 119.04C86.1955 119.067 86.2755 119.133 86.3822 119.24C86.5155 119.373 86.7422 119.56 87.0622 119.8C88.1289 120.547 89.3955 120.853 90.8622 120.72C92.9955 120.507 94.5422 119.68 95.5022 118.24C95.9022 117.653 96.1822 116.947 96.3422 116.12C96.4755 115.427 96.4889 114.707 96.3822 113.96C96.0889 112.6 95.3822 111.493 94.2622 110.64C93.4622 110.053 92.3955 109.653 91.0622 109.44C90.2889 109.333 89.5155 109.333 88.7422 109.44C88.4222 109.493 88.1822 109.52 88.0222 109.52C87.7822 109.52 87.6222 109.48 87.5422 109.4C87.1955 109.213 87.1422 108.88 87.3822 108.4C87.7022 107.76 88.3289 107.227 89.2622 106.8C89.5822 106.64 89.9422 106.507 90.3422 106.4C94.1022 105.147 96.4089 103.987 97.2622 102.92C97.5022 102.547 97.6755 102.16 97.7822 101.76C97.9422 101.253 97.9422 100.68 97.7822 100.04C97.6222 99.6133 97.3689 99.2267 97.0222 98.88C96.4889 98.3733 95.6889 98.0533 94.6222 97.92C93.6089 97.84 92.6089 98.1467 91.6222 98.84C90.9822 99.3467 90.4089 99.9333 89.9022 100.6C87.8489 103.187 86.0622 107.427 84.5422 113.32C83.8489 116.067 82.9555 118.52 81.8622 120.68C81.3822 121.667 80.9955 122.307 80.7022 122.6C79.7955 123.453 78.8355 123.88 77.8222 123.88C77.6089 123.88 77.4489 123.84 77.3422 123.76C77.1289 123.627 77.0222 123.427 77.0222 123.16L77.6222 121.84C78.7155 119.68 79.6089 117.213 80.3022 114.44C81.4489 109.773 82.3289 105.387 82.9422 101.28C83.1822 99.92 83.3022 99.1067 83.3022 98.84L82.6222 99.2C81.8755 99.5467 81.2755 99.7333 80.8222 99.76C80.5555 99.76 80.3689 99.72 80.2622 99.64C80.0222 99.5333 79.9022 99.3467 79.9022 99.08C79.9022 98.5467 80.3689 97.9733 81.3022 97.36C81.8622 96.96 83.3155 96.2267 85.6622 95.16C85.9022 95.0267 86.0489 94.96 86.1022 94.96C86.3689 94.88 86.5155 94.84 86.5422 94.84ZM116.951 94.88C117.165 94.8267 117.351 94.8 117.511 94.8C117.725 94.8 117.898 94.84 118.031 94.92C118.245 95.0533 118.351 95.2133 118.351 95.4C118.351 95.5867 118.271 95.8133 118.111 96.08C117.845 96.5067 117.298 96.9733 116.471 97.48C115.831 97.8533 115.191 98.2933 114.551 98.8C113.591 99.68 112.885 100.387 112.431 100.92C110.831 102.893 109.751 105.013 109.191 107.28C108.338 110.667 108.511 113.693 109.711 116.36C110.405 117.853 111.391 118.973 112.671 119.72C112.778 119.773 112.871 119.827 112.951 119.88C114.578 120.68 116.245 120.933 117.951 120.64C120.405 120.267 122.618 118.96 124.591 116.72C126.405 114.72 127.631 112.36 128.271 109.64C129.125 105.907 128.911 102.88 127.631 100.56C127.391 100.08 127.098 99.6667 126.751 99.32C126.218 98.84 125.591 98.4667 124.871 98.2C123.885 97.9333 123.058 97.8667 122.391 98C121.911 98.1333 121.351 98.52 120.711 99.16C119.751 100.2 118.858 101.64 118.031 103.48C117.711 104.173 117.378 104.68 117.031 105C116.151 105.747 115.258 106.12 114.351 106.12C114.111 106.12 113.938 106.08 113.831 106C113.618 105.867 113.511 105.667 113.511 105.4C113.645 104.813 114.138 103.76 114.991 102.24C115.018 102.187 115.045 102.133 115.071 102.08C116.031 100.507 117.005 99.2667 117.991 98.36C120.018 96.4133 122.218 95.2533 124.591 94.88C125.391 94.7733 126.285 94.7733 127.271 94.88C127.325 94.88 127.378 94.88 127.431 94.88C129.191 95.2267 130.565 96.12 131.551 97.56C132.298 98.7333 132.791 100.227 133.031 102.04C133.138 102.813 133.151 103.88 133.071 105.24C133.045 105.373 133.031 105.48 133.031 105.56C132.871 107.053 132.605 108.36 132.231 109.48C131.138 113.053 129.085 116.16 126.071 118.8C125.911 118.96 125.738 119.107 125.551 119.24C121.818 122.333 117.911 123.88 113.831 123.88C111.885 123.88 110.165 123.4 108.671 122.44C106.485 121.053 105.111 118.853 104.551 115.84C104.018 113.093 104.245 110.307 105.231 107.48C105.711 106.013 106.471 104.453 107.511 102.8C109.325 100.133 111.658 97.88 114.511 96.04C115.605 95.3733 116.418 94.9867 116.951 94.88ZM151.707 94.84L154.467 94.88C155.721 95.12 156.601 95.4667 157.107 95.92C157.587 96.4533 157.814 97.1067 157.787 97.88C157.761 98.3867 157.614 98.92 157.347 99.48C156.627 100.947 155.801 102.2 154.867 103.24C153.934 104.12 152.947 104.56 151.907 104.56C151.721 104.56 151.574 104.52 151.467 104.44C151.254 104.307 151.147 104.133 151.147 103.92C151.147 103.653 151.334 103.28 151.707 102.8C152.534 101.76 153.067 100.88 153.307 100.16C153.361 100.053 153.387 99.8533 153.387 99.56C153.387 99.32 153.347 99.12 153.267 98.96C153.134 98.6667 152.881 98.4533 152.507 98.32C151.787 98.08 150.907 97.96 149.867 97.96C148.107 97.96 146.561 98.3733 145.227 99.2C143.334 100.453 141.894 102.467 140.907 105.24C140.747 105.72 140.601 106.213 140.467 106.72C139.614 110.133 139.854 112.88 141.187 114.96C141.294 115.093 141.387 115.213 141.467 115.32C142.321 116.44 143.574 117.053 145.227 117.16C146.294 117.213 147.321 116.867 148.307 116.12C148.867 115.693 149.414 115.147 149.947 114.48C150.907 113.28 151.614 111.893 152.067 110.32C152.254 109.76 152.547 109.307 152.947 108.96C153.721 108.267 154.561 107.88 155.467 107.8L155.867 107.76L156.107 107.84C156.347 107.973 156.467 108.16 156.467 108.4C156.467 108.907 155.961 110.893 154.947 114.36C154.947 114.413 154.934 114.467 154.907 114.52C153.601 118.787 152.081 121.92 150.347 123.92C148.961 125.547 147.307 126.667 145.387 127.28C145.254 127.333 145.134 127.373 145.027 127.4C144.041 127.667 143.014 127.787 141.947 127.76C140.427 127.733 139.001 127.48 137.667 127C136.894 126.733 136.387 126.507 136.147 126.32C135.774 126.027 135.814 125.6 136.267 125.04C136.934 124.16 137.854 123.627 139.027 123.44C139.107 123.413 139.187 123.4 139.267 123.4L139.667 123.36L140.187 123.56C141.734 124.253 143.387 124.6 145.147 124.6C145.761 124.6 146.201 124.493 146.467 124.28C146.494 124.253 146.534 124.213 146.587 124.16C147.547 123.28 148.481 121.707 149.387 119.44C149.787 118.48 149.987 117.92 149.987 117.76L149.627 117.96C147.841 119.16 145.974 119.907 144.027 120.2C143.174 120.307 142.267 120.307 141.307 120.2C141.254 120.2 141.201 120.2 141.147 120.2C140.214 119.987 139.401 119.64 138.707 119.16C137.667 118.493 136.867 117.467 136.307 116.08C135.294 113.573 135.347 110.56 136.467 107.04C137.721 103.227 139.907 100.2 143.027 97.96C145.614 96.12 148.507 95.08 151.707 94.84ZM174.336 94.88C174.816 94.8267 175.323 94.8 175.856 94.8C176.763 94.8267 177.523 94.92 178.136 95.08C179.443 95.4 180.136 96.1467 180.216 97.32C180.243 97.8 180.163 98.2933 179.976 98.8C179.71 99.4933 179.39 100.027 179.016 100.4C178.163 101.28 177.136 101.76 175.936 101.84C175.616 101.84 175.403 101.707 175.296 101.44C175.243 101.333 175.23 101.2 175.256 101.04C175.256 100.88 175.35 100.68 175.536 100.44C175.75 100.013 175.856 99.64 175.856 99.32C175.776 98.7333 175.523 98.3867 175.096 98.28C174.19 97.9867 173.31 97.8667 172.456 97.92C171.416 98 170.51 98.28 169.736 98.76C168.643 99.48 168.003 100.52 167.816 101.88C167.736 102.387 167.763 102.853 167.896 103.28C168.216 104.427 169.07 105.267 170.456 105.8C171.39 106.2 172.43 106.4 173.576 106.4C173.843 106.4 174.056 106.493 174.216 106.68C174.536 107.053 174.363 107.573 173.696 108.24C173.643 108.267 173.59 108.307 173.536 108.36C172.63 109.133 171.71 109.52 170.776 109.52C169.496 109.52 168.283 109.88 167.136 110.6C165.43 111.667 164.23 113.213 163.536 115.24C163.483 115.427 163.43 115.613 163.376 115.8C163.296 116.067 163.256 116.413 163.256 116.84C163.256 117.24 163.283 117.547 163.336 117.76C163.736 118.987 164.63 119.84 166.016 120.32C167.003 120.667 167.963 120.8 168.896 120.72C170.63 120.56 172.136 119.627 173.416 117.92C173.816 117.387 174.23 116.987 174.656 116.72C175.43 116.213 176.176 115.96 176.896 115.96C177.19 115.96 177.403 116.08 177.536 116.32C177.723 116.613 177.55 117.093 177.016 117.76C175.15 120.267 172.723 122.067 169.736 123.16C169.656 123.187 169.576 123.213 169.496 123.24C167.31 123.933 165.336 124.08 163.576 123.68C161.976 123.387 160.71 122.64 159.776 121.44C158.816 120.213 158.603 118.733 159.136 117C159.883 114.36 161.483 112.053 163.936 110.08C164.79 109.413 165.483 108.933 166.016 108.64C166.096 108.587 166.15 108.547 166.176 108.52L166.016 108.4C165.803 108.293 165.403 108.013 164.816 107.56C164.23 107.027 163.803 106.307 163.536 105.4C163.483 105.16 163.456 104.787 163.456 104.28C163.456 103.747 163.483 103.36 163.536 103.12C163.776 101.92 164.35 100.773 165.256 99.68C165.843 98.96 166.416 98.4 166.976 98C169.19 96.2133 171.643 95.1733 174.336 94.88ZM216.549 91.08C216.602 91.0533 216.789 91.04 217.109 91.04C217.402 91.04 217.589 91.0667 217.669 91.12C217.989 91.3333 218.122 91.7867 218.069 92.48C217.962 93.6 217.562 94.52 216.869 95.24C216.736 95.4 216.589 95.5067 216.429 95.56C216.269 95.64 216.029 95.68 215.709 95.68C214.642 95.76 213.656 95.9867 212.749 96.36C211.922 96.7333 211.376 97.1067 211.109 97.48C210.922 97.8267 210.456 99.16 209.709 101.48C207.896 107.32 206.176 113.533 204.549 120.12L204.029 122.24L203.949 122.48C203.816 123.067 203.309 123.6 202.429 124.08C202.376 124.107 202.322 124.133 202.269 124.16C201.816 124.347 201.376 124.44 200.949 124.44C200.602 124.44 200.322 124.293 200.109 124C200.029 123.893 199.909 123.72 199.749 123.48C198.229 121.187 196.909 118.667 195.789 115.92C194.349 112.373 192.856 108.2 191.309 103.4L191.069 102.64L190.789 103.96C189.962 107.933 188.922 111.813 187.669 115.6C186.842 118 186.122 119.813 185.509 121.04C185.296 121.493 185.069 121.907 184.829 122.28C183.896 123.827 182.909 124.72 181.869 124.96C181.469 125.04 180.949 125.013 180.309 124.88C179.269 124.587 178.509 124.093 178.029 123.4C178.002 123.347 177.976 123.293 177.949 123.24C177.602 122.547 177.722 121.613 178.309 120.44C178.522 119.987 178.762 119.627 179.029 119.36C179.269 119.12 179.522 119 179.789 119C179.949 119 180.069 119.053 180.149 119.16C180.522 119.533 180.842 119.787 181.109 119.92C181.642 120.187 182.149 120.32 182.629 120.32C182.842 120.32 183.002 120.293 183.109 120.24C183.322 120.107 183.589 119.733 183.909 119.12C184.442 118.08 185.016 116.587 185.629 114.64C187.442 109.093 188.669 103.533 189.309 97.96C189.416 97.1867 189.469 96.7867 189.469 96.76C189.602 96.2 190.096 95.68 190.949 95.2C191.189 95.0667 191.429 94.9733 191.669 94.92L192.389 94.8C192.656 94.8 192.842 94.84 192.949 94.92C193.109 95.0267 193.189 95.0933 193.189 95.12C193.322 95.36 193.456 95.7733 193.589 96.36C195.109 101.667 196.856 106.867 198.829 111.96C199.682 114.147 200.429 115.88 201.069 117.16C201.842 118.707 202.269 119.48 202.349 119.48L202.509 118.92C202.909 117.213 203.922 113.44 205.549 107.6C207.576 100.64 209.002 96.4267 209.829 94.96C210.096 94.48 210.389 94.0667 210.709 93.72C212.309 92.12 214.256 91.24 216.549 91.08ZM228.802 94.84C228.855 94.8133 229.215 94.8 229.882 94.8C230.495 94.8267 230.882 94.8667 231.042 94.92C231.842 95.1333 232.362 95.5333 232.602 96.12C232.788 96.44 232.895 96.84 232.922 97.32C232.948 98.0133 232.762 98.88 232.362 99.92C231.855 101.36 231.282 102.587 230.642 103.6C230.108 104.427 229.268 105 228.122 105.32C227.828 105.4 227.548 105.44 227.282 105.44C227.095 105.44 226.948 105.4 226.842 105.32C226.628 105.187 226.522 105.013 226.522 104.8C226.522 104.667 226.668 104.293 226.962 103.68C227.468 102.693 227.868 101.84 228.162 101.12C228.402 100.4 228.522 99.8267 228.522 99.4C228.522 98.8933 228.442 98.5467 228.282 98.36C228.202 98.2533 228.068 98.16 227.882 98.08C227.535 97.9733 227.028 97.9333 226.362 97.96C224.895 98.0933 223.682 98.4667 222.722 99.08C221.895 99.6667 221.148 100.373 220.482 101.2C218.908 103.173 217.762 105.653 217.042 108.64C216.028 112.747 216.268 115.973 217.762 118.32C218.162 118.96 218.655 119.48 219.242 119.88C220.095 120.547 221.188 120.88 222.522 120.88C222.682 120.88 222.828 120.867 222.962 120.84C224.642 120.653 226.055 119.72 227.202 118.04C227.575 117.507 227.988 117.08 228.442 116.76C229.215 116.227 229.988 115.96 230.762 115.96C231.055 115.96 231.268 116.08 231.402 116.32C231.508 116.48 231.508 116.72 231.402 117.04C231.295 117.253 230.962 117.747 230.402 118.52C228.455 120.92 226.002 122.573 223.042 123.48C222.455 123.667 221.868 123.8 221.282 123.88C220.375 124.04 219.522 124.067 218.722 123.96C217.922 123.88 217.108 123.64 216.282 123.24C215.108 122.653 214.188 121.827 213.522 120.76C212.508 119.187 212.028 117.107 212.082 114.52C212.108 113.133 212.322 111.64 212.722 110.04C213.842 105.56 215.828 102.013 218.682 99.4C220.522 97.6133 222.668 96.3333 225.122 95.56C226.188 95.1867 227.415 94.9467 228.802 94.84ZM249.375 94.88C249.855 94.8267 250.362 94.8 250.895 94.8C251.802 94.8267 252.562 94.92 253.175 95.08C254.482 95.4 255.175 96.1467 255.255 97.32C255.282 97.8 255.202 98.2933 255.015 98.8C254.749 99.4933 254.429 100.027 254.055 100.4C253.202 101.28 252.175 101.76 250.975 101.84C250.655 101.84 250.442 101.707 250.335 101.44C250.282 101.333 250.269 101.2 250.295 101.04C250.295 100.88 250.389 100.68 250.575 100.44C250.789 100.013 250.895 99.64 250.895 99.32C250.815 98.7333 250.562 98.3867 250.135 98.28C249.229 97.9867 248.349 97.8667 247.495 97.92C246.455 98 245.549 98.28 244.775 98.76C243.682 99.48 243.042 100.52 242.855 101.88C242.775 102.387 242.802 102.853 242.935 103.28C243.255 104.427 244.109 105.267 245.495 105.8C246.429 106.2 247.469 106.4 248.615 106.4C248.882 106.4 249.095 106.493 249.255 106.68C249.575 107.053 249.402 107.573 248.735 108.24C248.682 108.267 248.629 108.307 248.575 108.36C247.669 109.133 246.749 109.52 245.815 109.52C244.535 109.52 243.322 109.88 242.175 110.6C240.469 111.667 239.269 113.213 238.575 115.24C238.522 115.427 238.469 115.613 238.415 115.8C238.335 116.067 238.295 116.413 238.295 116.84C238.295 117.24 238.322 117.547 238.375 117.76C238.775 118.987 239.669 119.84 241.055 120.32C242.042 120.667 243.002 120.8 243.935 120.72C245.669 120.56 247.175 119.627 248.455 117.92C248.855 117.387 249.269 116.987 249.695 116.72C250.469 116.213 251.215 115.96 251.935 115.96C252.229 115.96 252.442 116.08 252.575 116.32C252.762 116.613 252.589 117.093 252.055 117.76C250.189 120.267 247.762 122.067 244.775 123.16C244.695 123.187 244.615 123.213 244.535 123.24C242.349 123.933 240.375 124.08 238.615 123.68C237.015 123.387 235.749 122.64 234.815 121.44C233.855 120.213 233.642 118.733 234.175 117C234.922 114.36 236.522 112.053 238.975 110.08C239.829 109.413 240.522 108.933 241.055 108.64C241.135 108.587 241.189 108.547 241.215 108.52L241.055 108.4C240.842 108.293 240.442 108.013 239.855 107.56C239.269 107.027 238.842 106.307 238.575 105.4C238.522 105.16 238.495 104.787 238.495 104.28C238.495 103.747 238.522 103.36 238.575 103.12C238.815 101.92 239.389 100.773 240.295 99.68C240.882 98.96 241.455 98.4 242.015 98C244.229 96.2133 246.682 95.1733 249.375 94.88Z" fill="url(#paint0_radial_3_2)"/>
</g>
<g id="logo" filter="url(#filter1_d_3_2)">
<path fill-rule="evenodd" clip-rule="evenodd" d="M57.9796 59.3964L53.8948 68.2326L143.99 27.023H141.937C138.734 27.023 135.561 26.4092 132.588 25.2148L127.132 23.0223C126.044 22.5851 125.112 21.8322 124.455 20.8606L124.361 20.7215C123.055 18.789 123.076 16.2514 124.414 14.3406C125.095 13.3663 126.068 12.6329 127.193 12.2456L132.153 10.5372C133.502 10.0724 134.894 9.74147 136.308 9.54906L139.289 9.14335C142.386 8.72204 145.537 8.98647 148.519 9.91794L151.007 10.6949C152.367 11.1197 153.617 11.8398 154.666 12.8038C156.66 14.6353 157.795 17.2189 157.795 19.9264V21.3504L213.742 7.00209L229 5L206.476 12.8415C199.015 15.9364 192.091 20.1928 185.961 25.4527L181.409 29.3587L177.128 33.3693C173.989 36.3102 171.729 40.0655 170.599 44.2161L170.309 45.2814C169.961 46.5619 169.784 47.883 169.784 49.2101C169.784 54.2146 172.286 58.8875 176.452 61.6613L177.05 62.0595C179.892 63.5823 183.122 64.2267 186.331 63.9109L188.235 63.7235C190.454 63.5052 192.628 62.9594 194.686 62.1041L197.891 60.7722C198.767 60.4086 199.588 59.927 200.332 59.3408L201.281 58.5938C203.185 57.0949 204.296 54.8057 204.296 52.3827V50.5475L196.421 54.6809C193.269 56.3352 190.694 58.9085 189.038 62.0595L185.462 60.4169C185.183 60.289 184.922 60.1254 184.686 59.9301C182.984 58.5226 182.979 55.9142 184.677 54.5009L186.646 52.8622C187.028 52.5439 187.451 52.2775 187.903 52.0699L195.214 48.7122L196.75 48.1352C198.377 47.5239 200.101 47.2107 201.839 47.2107H204.263C205.702 47.2107 207.106 47.6604 208.277 48.4971C209.24 49.1851 210.01 50.1091 210.513 51.1803L213.742 58.0553L215.874 68.8248C216.38 71.3804 216.149 74.0272 215.208 76.4567C214.251 78.9294 212.599 81.0726 210.452 82.6278L207.984 84.4148C205.547 86.1796 202.8 87.4703 199.887 88.2197C196.802 89.0128 193.591 89.1842 190.44 88.7238L179.229 87.0856L190.214 85.7097C193.514 85.2964 196.698 84.2263 199.578 82.5625L203.45 80.3248C205.418 79.1878 206.983 77.4651 207.925 75.3969C209.093 72.8336 209.226 69.9181 208.296 67.2593L206.476 62.0595L199.405 64.8557C195.425 66.4297 191.221 67.3648 186.949 67.6264L182.212 67.9164C178.82 68.1241 175.428 67.5127 172.322 66.1338L171.391 65.7206C167.982 64.2072 165.128 61.6714 163.223 58.4644L162.505 57.2538C161.325 55.2667 160.702 52.9983 160.702 50.6871C160.702 48.4103 161.306 46.1744 162.453 44.2077L164.24 41.1443C165.507 38.9713 167.084 36.994 168.919 35.2741L175.233 29.3587L187.222 19.5151L191.581 16.6788L160.642 24.5571C156.827 25.5283 153.178 27.0571 149.81 29.0942L139.994 35.0313L39 82.2472C41.3989 76.8532 44.8272 71.9791 49.0929 67.8982L57.9796 59.3964ZM140.5 23C147.404 23 153 20.7614 153 18C153 15.2386 147.404 13 140.5 13C133.596 13 128 15.2386 128 18C128 20.7614 133.596 23 140.5 23Z" fill="url(#paint1_radial_3_2)" shape-rendering="crispEdges"/>
<path d="M53.8948 68.2326L52.5333 67.6031L50.8322 71.2829L54.5188 69.5966L53.8948 68.2326ZM57.9796 59.3964L59.3412 60.0259L56.9427 58.3126L57.9796 59.3964ZM143.99 27.023L144.614 28.387L143.99 25.523V27.023ZM132.588 25.2148L132.029 26.6067L132.588 25.2148ZM127.132 23.0223L127.692 21.6305V21.6305L127.132 23.0223ZM124.455 20.8606L125.698 20.0208L125.698 20.0207L124.455 20.8606ZM124.361 20.7215L123.118 21.5613L123.118 21.5613L124.361 20.7215ZM124.414 14.3406L125.642 15.2007L125.642 15.2007L124.414 14.3406ZM127.193 12.2456L127.681 13.6639L127.193 12.2456ZM132.153 10.5372L131.664 9.11894V9.11894L132.153 10.5372ZM136.308 9.54906L136.106 8.06276V8.06276L136.308 9.54906ZM139.289 9.14335L139.087 7.65705L139.289 9.14335ZM148.519 9.91794L148.072 11.3497L148.519 9.91794ZM151.007 10.6949L150.56 12.1267V12.1267L151.007 10.6949ZM154.666 12.8038L155.681 11.699V11.699L154.666 12.8038ZM157.795 21.3504H156.295V23.2836L158.168 22.8034L157.795 21.3504ZM213.742 7.00209L213.547 5.51484L213.457 5.52662L213.369 5.54911L213.742 7.00209ZM229 5L229.493 6.41661L228.805 3.51275L229 5ZM206.476 12.8415L205.983 11.4249L205.942 11.4393L205.901 11.456L206.476 12.8415ZM185.961 25.4527L186.938 26.5911L185.961 25.4527ZM181.409 29.3587L180.432 28.2204L180.408 28.2417L180.384 28.2641L181.409 29.3587ZM177.128 33.3693L176.103 32.2746V32.2746L177.128 33.3693ZM170.599 44.2161L169.152 43.8221V43.8221L170.599 44.2161ZM170.309 45.2814L171.756 45.6753V45.6753L170.309 45.2814ZM176.452 61.6613L177.283 60.4128L176.452 61.6613ZM177.05 62.0595L176.218 63.308L176.278 63.3478L176.341 63.3816L177.05 62.0595ZM186.331 63.9109L186.478 65.4036L186.331 63.9109ZM188.235 63.7235L188.088 62.2307L188.235 63.7235ZM194.686 62.1041L195.262 63.4893L194.686 62.1041ZM197.891 60.7722L198.467 62.1574L197.891 60.7722ZM200.332 59.3408L199.405 58.1622L200.332 59.3408ZM201.281 58.5938L202.209 59.7723L202.209 59.7723L201.281 58.5938ZM204.296 50.5475H205.796V48.0661L203.599 49.2193L204.296 50.5475ZM196.421 54.6809L197.118 56.009L196.421 54.6809ZM189.038 62.0595L188.412 63.4226L189.704 64.016L190.366 62.7573L189.038 62.0595ZM185.462 60.4169L186.088 59.0537L186.088 59.0537L185.462 60.4169ZM184.686 59.9301L185.642 58.774L185.642 58.774L184.686 59.9301ZM184.677 54.5009L185.637 55.6538L185.637 55.6538L184.677 54.5009ZM186.646 52.8622L185.686 51.7093L185.686 51.7093L186.646 52.8622ZM187.903 52.0699L188.529 53.4331V53.4331L187.903 52.0699ZM195.214 48.7122L194.687 47.3081L194.637 47.3268L194.588 47.3491L195.214 48.7122ZM196.75 48.1352L196.222 46.7311L196.222 46.7311L196.75 48.1352ZM208.277 48.4971L207.405 49.7177L208.277 48.4971ZM210.513 51.1803L211.871 50.5427L211.871 50.5427L210.513 51.1803ZM213.742 58.0553L215.213 57.764L215.178 57.5839L215.1 57.4176L213.742 58.0553ZM215.874 68.8248L214.402 69.1161V69.1161L215.874 68.8248ZM215.208 76.4567L213.81 75.9152V75.9152L215.208 76.4567ZM210.452 82.6278L211.332 83.8427L210.452 82.6278ZM207.984 84.4148L208.864 85.6297L207.984 84.4148ZM199.887 88.2197L199.513 86.7669L199.887 88.2197ZM190.44 88.7238L190.657 87.2395L190.44 88.7238ZM179.229 87.0856L179.043 85.5972L179.013 88.5698L179.229 87.0856ZM190.214 85.7097L190.027 84.2214L190.214 85.7097ZM199.578 82.5625L200.328 83.8613L199.578 82.5625ZM203.45 80.3248L202.7 79.026H202.7L203.45 80.3248ZM207.925 75.3969L206.56 74.7749L207.925 75.3969ZM208.296 67.2593L206.88 67.7547L206.88 67.7547L208.296 67.2593ZM206.476 62.0595L207.892 61.564L207.376 60.0905L205.924 60.6646L206.476 62.0595ZM199.405 64.8557L199.957 66.2506H199.957L199.405 64.8557ZM186.949 67.6264L187.041 69.1236L186.949 67.6264ZM182.212 67.9164L182.304 69.4136L182.212 67.9164ZM172.322 66.1338L171.714 67.5048L172.322 66.1338ZM171.391 65.7206L170.783 67.0916L171.391 65.7206ZM163.223 58.4644L161.934 59.2303V59.2303L163.223 58.4644ZM162.505 57.2538L163.794 56.4879V56.4879L162.505 57.2538ZM162.453 44.2077L163.749 44.9634L162.453 44.2077ZM164.24 41.1443L162.944 40.3886L164.24 41.1443ZM168.919 35.2741L167.894 34.1795V34.1795L168.919 35.2741ZM175.233 29.3587L174.281 28.1994L174.244 28.2305L174.208 28.2641L175.233 29.3587ZM187.222 19.5151L186.404 18.2578L186.334 18.3031L186.27 18.3558L187.222 19.5151ZM191.581 16.6788L192.399 17.9362L191.211 15.2252L191.581 16.6788ZM160.642 24.5571L161.012 26.0107L160.642 24.5571ZM149.81 29.0942L149.034 27.8107L149.81 29.0942ZM139.994 35.0313L140.63 36.3901L140.702 36.3562L140.771 36.3148L139.994 35.0313ZM39 82.2472L37.6294 81.6376L35.9977 85.3066L39.6353 83.606L39 82.2472ZM49.0929 67.8982L48.056 66.8143L49.0929 67.8982ZM55.2564 68.862L59.3412 60.0259L56.6181 58.767L52.5333 67.6031L55.2564 68.862ZM143.367 25.6589L53.2709 66.8685L54.5188 69.5966L144.614 28.387L143.367 25.6589ZM141.937 28.523H143.99V25.523H141.937V28.523ZM132.029 26.6067C135.179 27.8725 138.542 28.523 141.937 28.523V25.523C138.926 25.523 135.942 24.9459 133.148 23.823L132.029 26.6067ZM126.573 24.4141L132.029 26.6067L133.148 23.823L127.692 21.6305L126.573 24.4141ZM123.212 21.7005C124.037 22.9202 125.207 23.8653 126.573 24.4141L127.692 21.6305C126.881 21.3049 126.187 20.7443 125.698 20.0208L123.212 21.7005ZM123.118 21.5613L123.212 21.7005L125.698 20.0207L125.604 19.8816L123.118 21.5613ZM123.185 13.4804C121.491 15.9004 121.465 19.114 123.118 21.5613L125.604 19.8816C124.646 18.464 124.661 16.6024 125.642 15.2007L123.185 13.4804ZM126.704 10.8274C125.28 11.3179 124.048 12.2466 123.185 13.4805L125.642 15.2007C126.143 14.4859 126.856 13.948 127.681 13.6639L126.704 10.8274ZM131.664 9.11894L126.704 10.8274L127.681 13.6639L132.641 11.9554L131.664 9.11894ZM136.106 8.06276C134.594 8.26842 133.107 8.62219 131.664 9.11894L132.641 11.9554C133.898 11.5227 135.193 11.2145 136.51 11.0354L136.106 8.06276ZM139.087 7.65705L136.106 8.06276L136.51 11.0354L139.492 10.6297L139.087 7.65705ZM148.966 8.48614C145.774 7.48913 142.401 7.20609 139.087 7.65705L139.492 10.6297C142.37 10.238 145.299 10.4838 148.072 11.3497L148.966 8.48614ZM151.454 9.26308L148.966 8.48613L148.072 11.3497L150.56 12.1267L151.454 9.26308ZM155.681 11.699C154.469 10.5856 153.025 9.75375 151.454 9.26308L150.56 12.1267C151.709 12.4856 152.765 13.094 153.652 13.9085L155.681 11.699ZM159.295 19.9264C159.295 16.7989 157.984 13.8147 155.681 11.699L153.652 13.9085C155.336 15.456 156.295 17.6388 156.295 19.9264H159.295ZM159.295 21.3504V19.9264H156.295V21.3504H159.295ZM213.369 5.54911L157.423 19.8974L158.168 22.8034L214.115 8.45506L213.369 5.54911ZM228.805 3.51275L213.547 5.51484L213.937 8.48934L229.195 6.48725L228.805 3.51275ZM206.969 14.2581L229.493 6.41661L228.507 3.58339L205.983 11.4249L206.969 14.2581ZM186.938 26.5911C192.948 21.4342 199.736 17.2612 207.051 14.227L205.901 11.456C198.294 14.6115 191.235 18.9513 184.984 24.3144L186.938 26.5911ZM182.386 30.4971L186.938 26.5911L184.984 24.3144L180.432 28.2204L182.386 30.4971ZM178.154 34.4639L182.435 30.4534L180.384 28.2641L176.103 32.2746L178.154 34.4639ZM172.046 44.61C173.103 40.7275 175.218 37.2149 178.154 34.4639L176.103 32.2746C172.761 35.4056 170.354 39.4034 169.152 43.8221L172.046 44.61ZM171.756 45.6753L172.046 44.61L169.152 43.8221L168.862 44.8875L171.756 45.6753ZM171.284 49.2101C171.284 48.0161 171.443 46.8274 171.756 45.6753L168.862 44.8874C168.478 46.2963 168.284 47.75 168.284 49.2101H171.284ZM177.283 60.4128C173.535 57.9171 171.284 53.7127 171.284 49.2101H168.284C168.284 54.7164 171.037 59.8579 175.62 62.9098L177.283 60.4128ZM177.881 60.811L177.283 60.4128L175.62 62.9098L176.218 63.308L177.881 60.811ZM186.184 62.4181C183.271 62.7048 180.338 62.1198 177.758 60.7373L176.341 63.3816C179.445 65.0448 182.973 65.7485 186.478 65.4036L186.184 62.4181ZM188.088 62.2307L186.184 62.4181L186.478 65.4036L188.382 65.2163L188.088 62.2307ZM194.111 60.7189C192.189 61.5174 190.159 62.0269 188.088 62.2307L188.382 65.2163C190.748 64.9834 193.066 64.4015 195.262 63.4893L194.111 60.7189ZM197.316 59.387L194.111 60.7189L195.262 63.4893L198.467 62.1574L197.316 59.387ZM199.405 58.1622C198.767 58.6638 198.065 59.0759 197.316 59.387L198.467 62.1574C199.468 61.7413 200.408 61.1902 201.26 60.5194L199.405 58.1622ZM200.353 57.4152L199.405 58.1622L201.26 60.5194L202.209 59.7723L200.353 57.4152ZM202.796 52.3827C202.796 54.346 201.896 56.2008 200.353 57.4152L202.209 59.7723C204.474 57.9891 205.796 55.2655 205.796 52.3827H202.796ZM202.796 50.5475V52.3827H205.796V50.5475H202.796ZM197.118 56.009L204.993 51.8756L203.599 49.2193L195.724 53.3527L197.118 56.009ZM190.366 62.7573C191.881 59.8755 194.235 57.5221 197.118 56.009L195.724 53.3527C192.303 55.1483 189.508 57.9414 187.71 61.3616L190.366 62.7573ZM184.836 61.78L188.412 63.4226L189.664 60.6964L186.088 59.0537L184.836 61.78ZM183.731 61.0863C184.067 61.3645 184.439 61.5977 184.836 61.78L186.088 59.0537C185.928 58.9802 185.778 58.8862 185.642 58.774L183.731 61.0863ZM183.717 53.3481C181.298 55.3624 181.304 59.0802 183.731 61.0863L185.642 58.774C184.663 57.9651 184.661 56.466 185.637 55.6538L183.717 53.3481ZM185.686 51.7093L183.717 53.3481L185.637 55.6538L187.605 54.015L185.686 51.7093ZM187.277 50.7068C186.705 50.9695 186.17 51.3066 185.686 51.7093L187.605 54.0151C187.886 53.7812 188.197 53.5856 188.529 53.4331L187.277 50.7068ZM194.588 47.3491L187.277 50.7068L188.529 53.4331L195.84 50.0754L194.588 47.3491ZM196.222 46.7311L194.687 47.3081L195.742 50.1164L197.277 49.5394L196.222 46.7311ZM201.839 45.7107C199.921 45.7107 198.018 46.0563 196.222 46.7311L197.277 49.5394C198.736 48.9914 200.281 48.7107 201.839 48.7107V45.7107ZM204.263 45.7107H201.839V48.7107H204.263V45.7107ZM209.149 47.2766C207.723 46.2581 206.015 45.7107 204.263 45.7107V48.7107C205.39 48.7107 206.488 49.0627 207.405 49.7177L209.149 47.2766ZM211.871 50.5427C211.258 49.2387 210.321 48.114 209.149 47.2766L207.405 49.7177C208.159 50.2562 208.762 50.9794 209.155 51.818L211.871 50.5427ZM215.1 57.4176L211.871 50.5427L209.155 51.818L212.384 58.6929L215.1 57.4176ZM217.345 68.5335L215.213 57.764L212.27 58.3466L214.402 69.1161L217.345 68.5335ZM216.607 76.9982C217.65 74.3036 217.906 71.368 217.345 68.5335L214.402 69.1161C214.853 71.3928 214.647 73.7508 213.81 75.9152L216.607 76.9982ZM211.332 83.8427C213.713 82.1178 215.546 79.7408 216.607 76.9982L213.81 75.9152C212.957 78.1181 211.485 80.0274 209.572 81.4129L211.332 83.8427ZM208.864 85.6297L211.332 83.8427L209.572 81.4129L207.104 83.1999L208.864 85.6297ZM200.26 89.6724C203.356 88.8762 206.275 87.5048 208.864 85.6297L207.104 83.1999C204.82 84.8544 202.245 86.0644 199.513 86.7669L200.26 89.6724ZM190.224 90.208C193.571 90.6972 196.983 90.5151 200.26 89.6724L199.513 86.7669C196.622 87.5105 193.611 87.6712 190.657 87.2395L190.224 90.208ZM179.013 88.5698L190.224 90.208L190.657 87.2395L179.446 85.6013L179.013 88.5698ZM190.027 84.2214L179.043 85.5972L179.416 88.5739L190.4 87.1981L190.027 84.2214ZM198.827 81.2636C196.121 82.8272 193.129 83.8329 190.027 84.2214L190.4 87.1981C193.899 86.7599 197.275 85.6253 200.328 83.8613L198.827 81.2636ZM202.7 79.026L198.827 81.2636L200.328 83.8613L204.201 81.6236L202.7 79.026ZM206.56 74.7749C205.747 76.5591 204.398 78.0451 202.7 79.026L204.201 81.6236C206.439 80.3304 208.218 78.3712 209.29 76.019L206.56 74.7749ZM206.88 67.7547C207.683 70.0484 207.568 72.5636 206.56 74.7749L209.29 76.019C210.619 73.1037 210.77 69.7878 209.712 66.7638L206.88 67.7547ZM205.06 62.5549L206.88 67.7547L209.712 66.7638L207.892 61.564L205.06 62.5549ZM199.957 66.2506L207.028 63.4544L205.924 60.6646L198.854 63.4608L199.957 66.2506ZM187.041 69.1236C191.471 68.8523 195.83 67.8827 199.957 66.2506L198.854 63.4608C195.021 64.9767 190.972 65.8772 186.858 66.1292L187.041 69.1236ZM182.304 69.4136L187.041 69.1236L186.858 66.1292L182.121 66.4192L182.304 69.4136ZM171.714 67.5048C175.04 68.9813 178.672 69.636 182.304 69.4136L182.121 66.4192C178.969 66.6122 175.817 66.0441 172.931 64.7629L171.714 67.5048ZM170.783 67.0916L171.714 67.5048L172.931 64.7629L172 64.3497L170.783 67.0916ZM161.934 59.2303C163.997 62.7048 167.089 65.452 170.783 67.0916L172 64.3497C168.875 62.9624 166.259 60.6381 164.513 57.6985L161.934 59.2303ZM161.215 58.0197L161.934 59.2303L164.513 57.6985L163.794 56.4879L161.215 58.0197ZM159.202 50.6871C159.202 53.2678 159.897 55.8008 161.215 58.0198L163.794 56.4879C162.752 54.7325 162.202 52.7287 162.202 50.6871H159.202ZM161.158 43.4519C159.877 45.648 159.202 48.1448 159.202 50.6871H162.202C162.202 48.6759 162.736 46.7007 163.749 44.9634L161.158 43.4519ZM162.944 40.3886L161.158 43.4519L163.749 44.9634L165.536 41.9L162.944 40.3886ZM167.894 34.1795C165.952 35.9986 164.285 38.0902 162.944 40.3886L165.536 41.9C166.73 39.8525 168.215 37.9893 169.945 36.3688L167.894 34.1795ZM174.208 28.2641L167.894 34.1795L169.945 36.3688L176.259 30.4534L174.208 28.2641ZM186.27 18.3558L174.281 28.1994L176.185 30.518L188.174 20.6744L186.27 18.3558ZM190.763 15.4215L186.404 18.2578L188.04 20.7724L192.399 17.9362L190.763 15.4215ZM161.012 26.0107L191.951 18.1325L191.211 15.2252L160.272 23.1035L161.012 26.0107ZM150.586 30.3776C153.828 28.417 157.341 26.9455 161.012 26.0107L160.272 23.1035C156.314 24.1111 152.528 25.6973 149.034 27.8107L150.586 30.3776ZM140.771 36.3148L150.586 30.3776L149.034 27.8107L139.218 33.7478L140.771 36.3148ZM39.6353 83.606L140.63 36.3901L139.359 33.6725L38.3647 80.8883L39.6353 83.606ZM48.056 66.8143C43.6493 71.0302 40.1076 76.0653 37.6294 81.6376L40.3706 82.8567C42.6901 77.641 46.0052 72.9281 50.1298 68.9821L48.056 66.8143ZM56.9427 58.3126L48.056 66.8143L50.1298 68.9821L59.0165 60.4803L56.9427 58.3126ZM151.5 18C151.5 18.145 151.433 18.4349 150.987 18.8564C150.538 19.2809 149.808 19.7322 148.782 20.1428C146.737 20.9606 143.81 21.5 140.5 21.5V24.5C144.094 24.5 147.416 23.9201 149.896 22.9282C151.132 22.434 152.232 21.808 153.048 21.0361C153.868 20.2612 154.5 19.2357 154.5 18H151.5ZM140.5 14.5C143.81 14.5 146.737 15.0394 148.782 15.8572C149.808 16.2678 150.538 16.7191 150.987 17.1436C151.433 17.5651 151.5 17.855 151.5 18H154.5C154.5 16.7643 153.868 15.7388 153.048 14.9639C152.232 14.192 151.132 13.566 149.896 13.0718C147.416 12.0799 144.094 11.5 140.5 11.5V14.5ZM129.5 18C129.5 17.855 129.567 17.5651 130.013 17.1436C130.462 16.7191 131.192 16.2678 132.218 15.8572C134.263 15.0394 137.19 14.5 140.5 14.5V11.5C136.906 11.5 133.584 12.0799 131.104 13.0718C129.868 13.566 128.768 14.192 127.952 14.9639C127.132 15.7388 126.5 16.7643 126.5 18H129.5ZM140.5 21.5C137.19 21.5 134.263 20.9606 132.218 20.1428C131.192 19.7322 130.462 19.2809 130.013 18.8564C129.567 18.4349 129.5 18.145 129.5 18H126.5C126.5 19.2357 127.132 20.2612 127.952 21.0361C128.768 21.808 129.868 22.434 131.104 22.9282C133.584 23.9201 136.906 24.5 140.5 24.5V21.5Z" fill="#8ED0D9" fill-opacity="0.33"/>
</g>
</g>
<defs>
<filter id="filter0_d_3_2" x="6.64001" y="91.04" width="252.655" height="44.76" filterUnits="userSpaceOnUse" color-interpolation-filters="sRGB">
<feFlood flood-opacity="0" result="BackgroundImageFix"/>
<feColorMatrix in="SourceAlpha" type="matrix" values="0 0 0 0 0 0 0 0 0 0 0 0 0 0 0 0 0 0 127 0" result="hardAlpha"/>
<feOffset dy="4"/>
<feGaussianBlur stdDeviation="2"/>
<feComposite in2="hardAlpha" operator="out"/>
<feColorMatrix type="matrix" values="0 0 0 0 0 0 0 0 0 0 0 0 0 0 0 0 0 0 0.25 0"/>
<feBlend mode="normal" in2="BackgroundImageFix" result="effect1_dropShadow_3_2"/>
<feBlend mode="normal" in="SourceGraphic" in2="effect1_dropShadow_3_2" result="shape"/>
</filter>
<filter id="filter1_d_3_2" x="31.9977" y="3.51276" width="201.495" height="94.9631" filterUnits="userSpaceOnUse" color-interpolation-filters="sRGB">
<feFlood flood-opacity="0" result="BackgroundImageFix"/>
<feColorMatrix in="SourceAlpha" type="matrix" values="0 0 0 0 0 0 0 0 0 0 0 0 0 0 0 0 0 0 127 0" result="hardAlpha"/>
<feOffset dy="4"/>
<feGaussianBlur stdDeviation="2"/>
<feComposite in2="hardAlpha" operator="out"/>
<feColorMatrix type="matrix" values="0 0 0 0 0 0 0 0 0 0 0 0 0 0 0 0 0 0 0.25 0"/>
<feBlend mode="normal" in2="BackgroundImageFix" result="effect1_dropShadow_3_2"/>
<feBlend mode="normal" in="SourceGraphic" in2="effect1_dropShadow_3_2" result="shape"/>
</filter>
<radialGradient id="paint0_radial_3_2" cx="0" cy="0" r="1" gradientUnits="userSpaceOnUse" gradientTransform="translate(10 115) rotate(-0.230114) scale(249.002 1589.78)">
<stop stop-color="#4FADCB"/>
<stop offset="0.688551" stop-color="#F5DD00"/>
</radialGradient>
<radialGradient id="paint1_radial_3_2" cx="0" cy="0" r="1" gradientUnits="userSpaceOnUse" gradientTransform="translate(234 33.5) rotate(172.569) scale(208.753 472.316)">
<stop offset="0.199743" stop-color="#F5DD00"/>
<stop offset="0.679538" stop-color="#59B0BD"/>
</radialGradient>
</defs>
</svg>
