<svg width="866" height="1191" viewBox="0 0 866 1191" fill="none" xmlns="http://www.w3.org/2000/svg">
<ellipse cx="439" cy="909.5" rx="192" ry="26.5" fill="#99CAD9"/>
<path d="M612 530H580L618.5 656.5C660.808 617.907 641.364 585.867 612 530Z" fill="white"/>
<path d="M622.5 659.5C598.712 577.39 581 540 607.5 526.5L594.5 508L557 526.5C586.763 582.111 595.449 613.208 594.5 668.5L622.5 659.5Z" fill="#98CBDA"/>
<path d="M581.066 510.737C615.777 552.69 632.832 588.494 633.076 614.293C633.194 626.762 629.403 636.664 621.889 644.296C614.198 652.109 601.819 658.334 583.408 661.642L586.592 679.358C607.281 675.64 623.576 668.241 634.717 656.924C646.034 645.428 651.232 630.697 651.075 614.123C650.77 581.837 630.226 541.917 594.934 499.263L581.066 510.737Z" fill="#245273"/>
<path d="M564.5 761.5H548L488 902.5L548 893L564.5 761.5Z" fill="white"/>
<path d="M320.5 766.5H304L310 884.5L363.5 902.5L320.5 766.5Z" fill="white"/>
<path d="M554.5 762.5C552.257 867.41 538.75 887.832 499 892C478.504 829.2 492.676 805.624 554.5 762.5Z" fill="#F3F3F3"/>
<path d="M314 764C316.243 868.91 329.75 889.332 369.5 893.5C389.996 830.7 375.824 807.124 314 764Z" fill="#F3F3F3"/>
<path d="M350.447 820.961C330.822 804.44 322.284 791.205 313.5 769.5L417 808L400 897H370.5L366.142 849.786C365.097 838.467 359.143 828.282 350.447 820.961Z" fill="#99CAD9"/>
<path d="M519.067 816.61C539.363 798.65 548.054 784.465 557 761L453 802.067L470.082 897H499.725L504.255 844.902C505.211 833.904 510.8 823.926 519.067 816.61Z" fill="#99CAD9"/>
<path d="M419.5 807.5C407.493 844.667 406.962 859.637 402.017 895.611C401.836 896.928 400.795 897.985 399.479 898.176C367.362 902.844 348.776 902.357 318.172 891.889C317.222 891.564 316.487 890.76 316.238 889.788C302.831 837.481 300.365 811.203 304.5 748" stroke="#245171" stroke-width="18" stroke-linecap="round"/>
<path d="M444 801.145C456.008 838.316 460.86 859.389 465.98 895.616C466.166 896.933 467.205 897.985 468.521 898.176C500.638 902.844 519.224 902.357 549.828 891.889C550.778 891.564 551.512 890.764 551.76 889.792C565.161 837.346 567.226 804.205 563.091 741" stroke="#245171" stroke-width="18"/>
<path d="M558 532C465.356 564.575 409.185 557.22 307 532C250.424 690.597 251.62 767.089 428 807.5C613.372 778.292 622.798 654.506 558 532Z" fill="#F4F4F4"/>
<path d="M594 646C512.5 787 377.5 806.5 273 646C250.139 676.611 308.405 778.037 377.5 800.5L436.5 811L477.5 800.5L535 774.5L567 740L582 703.5L594 646Z" fill="#99CAD9"/>
<path d="M571 522C482.756 597.27 423.388 601.369 295 522H571Z" fill="#95C3DA"/>
<path d="M593.487 648.406L593.5 648.166V647.925C593.5 604.711 580.146 560.32 552.723 528.844C525.181 497.229 483.971 479.32 430.302 488.328C384.149 482.684 344.477 500.831 316.516 531.085C288.407 561.497 272 604.209 272 647.925C272 691.562 287.109 731.476 314.725 760.544C342.403 789.677 382.188 807.425 430.5 807.425C517.792 807.425 588.229 746.741 593.487 648.406Z" stroke="#255070" stroke-width="18"/>
<path d="M533.868 606.437L533.217 596.044L523.028 598.194C454.028 612.754 415.024 613.063 342.7 598.185L332.458 596.078L331.899 606.519C327.855 682.01 337.361 723.211 362.678 772.154C374.134 794.3 397.396 807 421.702 807H443.804C467.651 807 490.559 794.784 502.152 773.202C529.425 722.429 538.518 680.669 533.868 606.437Z" stroke="#27506E" stroke-width="18"/>
<path d="M410.5 705C381.638 703.455 365.919 700.66 339 691" stroke="#27506E" stroke-width="18"/>
<path d="M462 703C490.862 701.455 506.581 698.66 533.5 689" stroke="#27506E" stroke-width="18"/>
<ellipse cx="436.5" cy="701.5" rx="22.5" ry="19.5" fill="#0CE7E9"/>
<circle cx="437" cy="695" r="10" fill="#F4F4F4"/>
<circle cx="436.5" cy="702.5" r="22.5" stroke="#245071" stroke-width="18"/>
<path d="M664.5 299.984C714.157 311.98 724 384.984 680 424.484L664.5 299.984Z" fill="#F3F5F4"/>
<path d="M684.5 421.984C691.235 373.379 685.03 347.496 668.5 298.484H655C665.471 357.729 660.702 384.621 649.5 430.984L684.5 421.984Z" fill="#99C9D9"/>
<path d="M652 293.984C665.863 296.656 675.022 298.943 683.371 303.57C691.198 307.909 696.048 315.973 698.501 324.579C706.698 353.342 708.089 374.141 700.625 401.841C697.274 414.277 688.195 424.793 675.809 428.326C665.423 431.288 656.08 431.706 643 430.984" stroke="#24516E" stroke-width="18"/>
<path d="M200.51 293.984C150.853 305.98 141.01 378.984 185.01 418.484L200.51 293.984Z" fill="#F3F5F4"/>
<path d="M180.51 415.984C173.775 367.379 179.98 341.496 196.51 292.484H210.01C199.539 351.729 204.308 378.621 215.51 424.984L180.51 415.984Z" fill="#99C9D9"/>
<path d="M213.01 287.984C199.147 290.656 189.987 292.943 181.639 297.57C173.811 301.909 168.962 309.973 166.509 318.579C158.312 347.342 156.92 368.141 164.385 395.841C167.736 408.277 176.814 418.793 189.201 422.326C199.587 425.288 208.929 425.706 222.01 424.984" stroke="#24516E" stroke-width="18"/>
<path d="M626 256.984C519 162.984 366.5 161.984 247 248.484L626 256.984Z" fill="white"/>
<path d="M631.5 264.484C499.31 185.417 416.24 179.919 250 248.484C111.228 398.702 280.151 528.6 377.5 550.484C474.849 572.369 760.855 499.844 631.5 264.484Z" fill="#F4F4F4"/>
<path d="M633 264.484C673.01 624.257 171.007 595.726 242.5 251.984L212 296.484C109 553.484 656.501 724.923 661.5 310.484L633 264.484Z" fill="#98CBD7"/>
<path d="M659.78 372.067L659.807 371.843L659.823 371.618C664.542 304.77 638.628 257.674 595.181 227.759C552.337 198.259 493.271 185.984 431.845 185.984C370.463 185.984 311.252 197.993 268.572 227.384C225.321 257.17 199.952 304.232 205.846 371.388C206.104 477.365 307.985 555.984 431.845 555.984C493.763 555.984 547.132 540.496 586.989 509.392C626.982 478.181 652.528 431.894 659.78 372.067Z" stroke="#235172" stroke-width="18"/>
<path d="M244 357.984C220 492.984 523.5 540.984 606 431.484L244 357.984Z" fill="#3A5769"/>
<path d="M623.5 354.984L272.5 281.984C247.545 307.76 242.003 327.132 245.5 369.484C357.467 439.183 424.024 472.544 603 440.984L623.5 354.984Z" fill="#3F5E70"/>
<path d="M260 296.484C283.5 227.984 696.5 216.984 617 402.484C553.279 338.477 472.69 315.99 260 296.484Z" fill="#4F7383"/>
<path d="M618.392 390.502L618.447 390.151L618.474 389.797C618.683 387.067 618.982 384.051 619.302 380.826C620.216 371.61 621.299 360.692 620.939 349.874C620.438 334.869 617.221 318.622 606.743 303.804C585.765 274.135 538.723 254.109 441.538 254.109C433.787 254.109 426.211 254.076 418.827 254.044C395.52 253.943 374.132 253.851 355.186 254.824C330.273 256.104 308.342 259.254 290.684 267.293C272.55 275.549 259.199 288.838 251.559 309.323C244.099 329.325 242.276 355.659 245.58 389.972C249.471 430.383 281.299 454.725 318.859 468.729C356.639 482.816 402.887 487.609 441.538 487.609C479.548 487.609 519.883 486.059 552.489 473.371C568.973 466.957 583.781 457.594 595.357 443.926C606.962 430.224 614.92 412.664 618.392 390.502Z" stroke="#265070" stroke-width="18"/>
<ellipse cx="336.5" cy="370.984" rx="21.5" ry="41" fill="#11E5E9"/>
<path d="M558.121 391.984C561.92 391.984 565.054 388.886 564.476 385.131C563.112 376.267 559.123 368.009 552.991 361.579C545.302 353.515 534.874 348.984 524 348.984C513.126 348.984 502.698 353.515 495.009 361.579C488.877 368.009 484.888 376.267 483.524 385.131C482.946 388.886 486.08 391.984 489.879 391.984V391.984C493.679 391.984 496.679 388.864 497.546 385.165C498.723 380.141 501.191 375.502 504.737 371.782C509.846 366.424 516.775 363.414 524 363.414C531.225 363.414 538.154 366.424 543.263 371.782C546.809 375.502 549.277 380.141 550.454 385.165C551.321 388.864 554.321 391.984 558.121 391.984V391.984Z" fill="#13E4EB"/>
<path d="M324.5 407H283.5V486L303.5 500.5L324.5 407Z" fill="#FDFBFC"/>
<path d="M402 455L369.5 435L310.5 528L342 531.5L402 455Z" fill="#FDFBFC"/>
<path d="M281.168 488C305.083 493.675 310.567 477.958 309.668 406H322.168V508.5L309.668 526.5C310.588 509.725 309.746 500.516 281.168 488Z" fill="#94CDD8"/>
<path d="M390.668 446C365.244 490.427 352.583 527.714 319.668 514L314.668 531L353.168 535L396.668 449L390.668 446Z" fill="#94CDD8"/>
<path d="M279.669 491.304L279.649 492.859L280.151 494.33L308.651 577.83L314.763 595.739L324.799 579.696L398.065 462.569L390.435 457.796L398.065 462.569C399.552 460.192 399.999 457.246 399.183 454.465C397.747 449.565 395.387 445.303 391.114 441.856C387.234 438.726 382.354 436.767 377.043 435.053L374.279 443.618L377.043 435.053C373.29 433.842 369.214 434.962 366.598 437.817L366.598 437.817C347.83 458.302 336.119 475.77 324.171 497.842C324.92 469.346 325.78 446.262 328.275 418.165C328.838 411.829 325.002 405.508 318.395 403.591C313.562 402.188 309.008 401.334 304.282 401.527C299.484 401.723 295.121 402.97 290.609 404.936L294.203 413.187L290.609 404.936C288.791 405.727 286.788 407.196 285.474 409.603L285.474 409.603C283.664 412.918 282.771 417.304 282.183 421.523C281.552 426.054 281.124 431.679 280.808 438.252C280.204 450.836 279.981 467.691 279.707 488.487C279.694 489.418 279.682 490.357 279.669 491.304Z" stroke="#274F72" stroke-width="18"/>
<path d="M217.668 509.5C272.668 466.5 321.168 485.5 304.668 540.5L217.668 509.5Z" fill="#FDFBFC"/>
<path d="M225.668 506C267.656 503.257 288.213 506.494 305.668 543L336.168 527.5C370.939 546.217 369.55 563.641 352.668 599.5C308.817 622.431 284.804 621.118 242.168 614C182.593 563.156 197.468 542.525 225.668 506Z" fill="#F2F5F2"/>
<path d="M317.168 562C291.168 595 226.668 593 235.668 542.5L242.668 557L287.168 562L310.168 538.5L337.168 534.5C327.451 546.256 325.349 554.846 324.668 572L317.168 562Z" fill="#99CAD8"/>
<path d="M344.088 530.442C332.358 524.167 319.436 529.969 314.137 540.245L313.453 538.677L305.42 546.939C307.53 542.505 308.523 537.305 308.036 531.411C306.937 513.615 303.075 498.675 290.135 491.96C283.956 488.753 276.854 488.107 269.487 488.695C262.099 489.285 253.618 491.191 244.091 493.909L243.792 493.994L243.499 494.1C218.719 503.058 206.097 517.953 202.094 534.914C198.262 551.146 202.774 567.452 208.209 579.11L216.258 575.357L208.209 579.11C208.445 579.615 208.689 580.147 208.943 580.698C210.316 583.685 211.962 587.264 213.999 590.577C220.598 601.304 231.905 608.835 244.43 613.604C257.067 618.415 271.76 620.743 286.36 620.491C314.926 619.997 346.593 609.367 360.352 583.342C367.393 570.025 365.839 553.529 356.799 541.662L349.64 547.115L356.799 541.662C353.385 537.179 349.139 533.144 344.088 530.442Z" stroke="#274F72" stroke-width="18"/>
<g filter="url(#filter0_d_27_56)">
<path d="M128.322 983.337L131.062 984.701L133.596 982.919L137.028 980.504L141.25 977.533L138.194 973.523L131.574 964.837L129.618 940.78C130.246 940.741 130.875 940.689 131.506 940.624L131.517 940.623L131.529 940.621C135.943 940.146 140.033 938.992 143.727 937.089L143.75 937.077L143.773 937.065C147.652 935.017 150.716 932.157 152.702 928.449C154.745 924.635 155.598 920.551 155.227 916.308C154.908 912.034 153.313 908.082 150.65 904.501C147.986 900.871 144.386 898.001 140.022 895.828C138.134 894.887 135.286 893.616 131.551 892.032L131.538 892.026L131.526 892.021C126.505 889.925 121.483 887.626 116.459 885.123L106.668 880.247L103.928 878.883L101.394 880.665L97.9625 883.08L93.0914 886.507L97.2616 890.587L101.972 895.196L78.349 939.294L69.6408 940.91L67.1887 941.365L66.0276 943.532L64.6761 946.055L62.315 950.463L66.7907 952.692L92.45 965.471L95.1899 966.836L97.7232 965.053L101.155 962.639L105.957 959.26L101.906 955.18L97.1235 950.365L106.304 933.228L106.926 934.416L109.939 971.584L110.159 974.291L112.623 975.518L128.322 983.337ZM112.74 921.212L121.212 905.397C122.85 905.492 124.393 905.912 125.882 906.654C129.63 908.52 131.256 910.718 131.796 913.091L131.801 913.113L131.807 913.136C132.457 915.869 132.083 918.827 130.264 922.223C129.121 924.356 127.755 925.31 126.107 925.703C124.437 926.097 122.179 925.912 119.069 924.363L114.342 922.009L112.74 921.212Z" fill="#11E5E9" stroke="#245171" stroke-width="10"/>
<path d="M193.26 1003.1L193.278 1003.1L193.297 1003.1C201.333 1001.81 208.793 998.831 215.631 994.2C222.687 989.42 227.775 983.147 230.748 975.452C233.518 968.281 234.588 961.169 233.809 954.183C233.03 947.193 230.479 940.942 226.156 935.543C221.847 930.108 216.066 926.159 209.015 923.627C202.575 921.314 195.31 920.935 187.405 922.2C179.371 923.431 171.902 926.418 165.042 931.108C157.991 935.886 152.906 942.158 149.935 949.849C147.165 957.02 146.095 964.132 146.874 971.118C147.651 978.095 150.166 984.333 154.43 989.716L154.451 989.743L154.474 989.77C158.858 995.143 164.662 999.06 171.701 1001.59C178.129 1003.9 185.374 1004.31 193.26 1003.1ZM188.371 937.929L188.38 937.927L188.388 937.925C191.535 937.117 194.513 937.252 197.463 938.311C202.218 940.019 205.37 942.495 207.341 945.573L207.354 945.593L207.367 945.614C209.488 948.852 210.613 952.645 210.635 957.152L210.635 957.162L210.636 957.172C210.678 961.768 209.753 966.629 207.76 971.79C206.112 976.054 203.872 979.49 201.092 982.208C198.336 984.869 195.386 986.526 192.214 987.342C189.17 988.111 186.227 987.972 183.253 986.904C178.581 985.226 175.408 982.754 173.365 979.626C171.243 976.306 170.124 972.494 170.081 968.053C170.058 963.384 170.989 958.518 172.957 953.425C174.606 949.155 176.836 945.755 179.581 943.103L179.591 943.093L179.601 943.083C182.402 940.347 185.32 938.701 188.371 937.929Z" fill="#11E5E9" stroke="#245171" stroke-width="10"/>
<path d="M291.063 1021.16C295.862 1018.03 299.274 1013.89 300.589 1008.66C301.903 1003.43 301.287 998.317 298.81 993.551C297.685 991.387 296.249 989.437 294.534 987.692C295.763 986.967 296.929 986.172 298.029 985.304C301.597 982.504 304.132 978.994 305.195 974.765C306.236 970.62 306.1 966.509 304.715 962.559C303.403 958.549 300.958 955.149 297.59 952.361C294.155 949.52 289.986 947.605 285.247 946.497C283.131 946.003 279.905 945.383 275.646 944.64L275.624 944.636L275.602 944.632C270.208 943.741 264.762 942.654 259.264 941.37L248.554 938.868L245.589 938.175L243.569 940.481L240.827 943.611L236.892 948.104L241.963 951.127L247.674 954.531L235.569 1002.71L227.518 1006.26L225.235 1007.27L224.632 1009.67L223.938 1012.43L222.72 1017.28L227.588 1018.41L239.314 1021.15C241.859 1021.75 245.494 1022.74 250.265 1024.17C253.279 1025.2 256.387 1026.08 259.588 1026.83C264.542 1027.99 269.881 1028.01 275.522 1027.04C281.293 1026.07 286.505 1024.14 291.063 1021.16ZM291.063 1021.16C291.062 1021.16 291.061 1021.16 291.061 1021.16L288.35 1017.01L291.064 1021.16C291.064 1021.16 291.063 1021.16 291.063 1021.16ZM264.756 976.206L268.754 960.293C270.476 959.986 272.247 960.043 274.11 960.478C278.253 961.446 280.276 963.155 281.275 965.095C282.461 967.397 282.815 970.245 281.887 973.978C281.299 976.286 280.322 977.347 279.241 977.931C278.016 978.544 276.118 978.86 273.09 978.153L264.756 976.206ZM263.236 1010.54C260.804 1009.81 258.657 1008.95 256.775 1007.97L260.999 991.157L266.748 992.5C267.404 992.653 268.07 992.788 268.704 992.874C273.223 994.143 275.567 996.016 276.721 997.98L276.735 998.003L276.749 998.027C278.085 1000.24 278.522 1002.93 277.626 1006.5C277.056 1008.77 275.945 1010.04 274.236 1010.86L274.21 1010.87L274.183 1010.88C272.413 1011.75 269.905 1012.09 266.243 1011.24L263.236 1010.54Z" fill="#11E5E9" stroke="#245171" stroke-width="10"/>
<path d="M360.935 1038.3L360.952 1038.3L360.97 1038.29C368.461 1035.21 374.983 1030.63 380.5 1024.57C386.193 1018.32 389.612 1011.06 390.624 1002.89C391.566 995.286 390.869 988.122 388.403 981.502C385.936 974.879 381.928 969.384 376.412 965.121C370.902 960.821 364.328 958.3 356.868 957.441C350.056 956.657 342.911 957.935 335.54 960.958C328.038 963.977 321.508 968.574 315.985 974.692C310.296 980.941 306.88 988.199 305.869 996.362C304.927 1003.97 305.624 1011.13 308.09 1017.75C310.552 1024.36 314.521 1029.85 319.976 1034.11L320.003 1034.14L320.031 1034.16C325.599 1038.38 332.188 1040.86 339.637 1041.72C346.435 1042.51 353.569 1041.26 360.935 1038.3ZM340.265 976.072L340.273 976.068L340.281 976.064C343.146 974.563 346.082 974.014 349.221 974.375C354.271 974.957 357.949 976.653 360.62 979.2L360.638 979.217L360.656 979.234C363.51 981.902 365.526 985.331 366.647 989.697L366.65 989.708L366.652 989.718C367.814 994.168 368.102 999.096 367.426 1004.56C366.867 1009.07 365.531 1012.91 363.497 1016.17C361.472 1019.38 359.012 1021.66 356.125 1023.18C353.35 1024.62 350.447 1025.15 347.283 1024.79C342.32 1024.22 338.624 1022.53 335.871 1019.95C332.996 1017.2 330.979 1013.75 329.855 1009.46C328.694 1004.93 328.411 999.995 329.079 994.606C329.638 990.089 330.972 986.287 332.988 983.092L332.996 983.08L333.003 983.068C335.053 979.779 337.486 977.517 340.265 976.072Z" fill="#11E5E9" stroke="#255070" stroke-width="10"/>
<path d="M472.077 1026.71L470.299 1024.03L470.223 1014.99L477.23 1009.56L479.189 1008.04L479.168 1005.57L479.144 1002.73L479.101 997.727L474.101 997.766L440.472 998.032L437.433 998.056L436.057 1000.77L434.188 1004.44L431.375 1009.98L437.387 1011.55L448.342 1014.41L448.462 1028.57C447.669 1028.78 446.989 1028.91 446.414 1028.97C444.804 1029.15 442.673 1029.25 439.978 1029.27C434.522 1029.32 430.317 1028.06 427.059 1025.8C423.593 1023.4 420.986 1020.21 419.212 1016.12C417.43 1011.86 416.478 1007.07 416.432 1001.67C416.394 997.169 417.26 993.279 418.927 989.892C420.668 986.418 422.988 983.846 425.874 982.021L425.898 982.006L425.923 981.99C428.816 980.112 432.02 979.153 435.656 979.124C444.163 979.057 451.072 982.777 456.667 991.095L458.168 993.328L460.858 993.306L464.468 993.278L469.468 993.238L469.425 988.239L469.274 970.469L469.247 967.289L466.356 965.964C463.538 964.671 459.506 963.635 454.598 962.741C449.569 961.826 445.028 961.355 441.016 961.387C433.951 961.442 426.778 963.558 419.559 967.439C412.207 971.329 406.065 976.671 401.178 983.422C396.14 990.317 393.575 997.966 393.646 1006.24C393.711 1013.94 395.423 1020.99 398.893 1027.27L398.909 1027.3L398.926 1027.33C402.457 1033.52 407.353 1038.41 413.546 1041.92L413.557 1041.93L413.568 1041.94C419.888 1045.48 427.016 1047.16 434.809 1047.1C437.811 1047.08 440.654 1046.89 443.332 1046.55C446.191 1046.24 449.078 1045.63 451.99 1044.74L452.577 1044.56L453.103 1044.24L470.495 1033.75L474.961 1031.06L472.077 1026.71Z" fill="#11E5E9" stroke="#27506E" stroke-width="10"/>
<path d="M540.295 1007.09L531.347 1024.24L513.264 1026.48L510.542 1006.05L517.207 1005.23L523.278 1015.38L525.963 1019.87L530.323 1017.05L533.85 1014.76L536.475 1013.06L536.061 1009.95L532.382 982.332L531.928 978.922L536.206 983.629L538.705 986.378L542.049 984.822L544.755 983.564L548.05 982.031L547.569 978.419L544.785 957.523L543.879 950.721L537.675 953.608L533.514 955.543L479.641 962.214L476.623 962.588L475.592 965.437L474.191 969.304L472.192 974.825L477.996 975.942L484.642 977.22L491.168 1026.22L484.968 1032.31L483.206 1034.04L483.534 1036.5L483.909 1039.31L484.569 1044.27L489.531 1043.65L545.288 1036.75L549.821 1037.61L556.581 1038.89L555.675 1032.09L552.65 1009.37L552.168 1005.76L548.579 1005.08L545.631 1004.52L541.995 1003.84L540.295 1007.09ZM519.891 981.316L515.677 991.184L508.678 992.05L506.162 973.162L524.615 970.877L530.643 977.509L526.759 977.99L523.838 978.352L521.007 978.702L519.891 981.316Z" fill="#11E5E9" stroke="#27506E" stroke-width="10"/>
<path d="M607.478 956.602L614.557 983.878L569.732 950.548L567.811 949.12L565.504 949.676L551.588 953.034L548.628 953.749L547.949 956.696L547.029 960.695L545.919 965.514L550.79 966.707L558.701 968.644L570.832 1015.39L565.413 1022.14L563.876 1024.05L564.498 1026.45L565.213 1029.2L566.469 1034.04L571.329 1032.87L592.894 1027.67L595.855 1026.95L596.533 1024L597.454 1020L598.593 1015.06L593.565 1013.96L585.736 1012.26L578.33 983.722L624.609 1018.12L626.529 1019.55L628.836 1018.99L633.905 1017.77L638.765 1016.6L637.509 1011.76L622.429 953.655L627.921 946.885L629.477 944.966L628.852 942.555L628.113 939.711L626.857 934.872L621.997 936.045L600.432 941.248L597.471 941.963L596.793 944.91L595.872 948.909L594.729 953.873L599.78 954.954L607.478 956.602Z" fill="#11E5E9" stroke="#245273" stroke-width="10"/>
<path d="M647.926 931.028C642.723 937.058 639.145 944.05 637.189 951.936C635.15 960.01 635.61 967.957 638.63 975.63C641.445 982.784 645.499 988.814 650.858 993.575L650.867 993.583L650.876 993.59C656.209 998.286 662.347 1001.34 669.216 1002.68C676.168 1004.03 683.19 1003.35 690.179 1000.79C692.707 999.865 695.04 998.839 697.161 997.704C699.478 996.544 701.698 995.085 703.825 993.355L704.443 992.853L704.867 992.183L716.389 973.957L718.835 970.088L715.058 967.322L710.775 964.186L706.296 960.907L703.477 965.543C700.303 970.763 697.407 974.739 694.805 977.571C692.153 980.458 690.08 981.854 688.625 982.386C684.034 984.066 680.033 984.202 676.43 983.138C672.622 981.974 669.193 979.81 666.114 976.487C662.987 973.026 660.398 968.789 658.393 963.696C656.716 959.435 656.07 955.461 656.323 951.721L656.324 951.708L656.325 951.694C656.562 947.856 657.634 944.764 659.401 942.245L659.406 942.238L659.411 942.231C661.226 939.625 663.558 937.834 666.501 936.757C673.544 934.18 680.694 935.387 688.556 941.492L690.811 943.244L693.465 942.273L696.84 941.038L701.535 939.32L699.704 934.667L693.165 918.053L692.05 915.221L688.999 914.849C686.016 914.486 682.083 914.765 677.504 915.439C672.845 916.112 668.709 917.074 665.159 918.373C658.733 920.725 653.009 925.055 647.926 931.028Z" fill="#11E5E9" stroke="#255070" stroke-width="10"/>
<path d="M768.523 930.958L766.186 950.011L750.047 958.034L740.221 939.66L746.126 936.725L755.426 944.269L759.562 947.624L762.707 943.474L765.214 940.167L767.076 937.71L765.605 934.959L752.369 910.21L750.768 907.216L756.327 910.164L759.677 911.94L762.314 909.334L764.412 907.26L766.969 904.733L765.258 901.534L755.244 882.808L751.994 876.731L747.136 881.534L743.921 884.712L695.661 908.707L692.92 910.07L692.959 913.093L693.012 917.19L693.086 922.954L698.91 922.097L705.605 921.111L729.125 965.09L725.446 972.87L724.41 975.061L725.569 977.229L726.919 979.753L729.277 984.162L733.754 981.936L783.703 957.101L788.253 956.419L795.128 955.388L791.878 949.311L780.993 928.957L779.282 925.758L775.663 926.301L772.695 926.746L768.971 927.305L768.523 930.958ZM740.218 913.441L739.752 924.093L733.546 927.179L724.46 910.189L740.93 902L749.024 906.291L745.533 908.027L742.916 909.328L740.343 910.608L740.218 913.441Z" fill="#11E5E9" stroke="#245273" stroke-width="10"/>
</g>
<defs>
<filter id="filter0_d_27_56" x="14.4784" y="827.428" width="829.376" height="265.674" filterUnits="userSpaceOnUse" color-interpolation-filters="sRGB">
<feFlood flood-opacity="0" result="BackgroundImageFix"/>
<feColorMatrix in="SourceAlpha" type="matrix" values="0 0 0 0 0 0 0 0 0 0 0 0 0 0 0 0 0 0 127 0" result="hardAlpha"/>
<feOffset/>
<feGaussianBlur stdDeviation="20.5"/>
<feComposite in2="hardAlpha" operator="out"/>
<feColorMatrix type="matrix" values="0 0 0 0 0.0666667 0 0 0 0 0.898039 0 0 0 0 0.913725 0 0 0 1 0"/>
<feBlend mode="normal" in2="BackgroundImageFix" result="effect1_dropShadow_27_56"/>
<feBlend mode="normal" in="SourceGraphic" in2="effect1_dropShadow_27_56" result="shape"/>
</filter>
</defs>
</svg>
