<svg width="190" height="102" viewBox="0 0 190 102" fill="none" xmlns="http://www.w3.org/2000/svg">
<g filter="url(#filter0_d_12_87)">
<mask id="path-1-outside-1_12_87" maskUnits="userSpaceOnUse" x="36" y="11" width="118" height="48" fill="black">
<rect fill="white" x="36" y="11" width="118" height="48"/>
<path fill-rule="evenodd" clip-rule="evenodd" d="M110.38 55.1816C109.364 55.4819 108.365 55.7775 107.32 55.9184C104.762 56.3064 102.174 56.5004 99.5581 56.5004C94.1512 56.5004 89.3547 55.7675 85.1686 54.3017C83.1728 53.5929 81.3876 52.7028 79.8131 51.6312L51.2345 44.0897C49.9176 43.7421 49 42.551 49 41.189V24C49 22.3431 47.6569 21 46 21H40C38.8954 21 38 20.1046 38 19C38 17.8954 38.8954 17 40 17H61C62.1046 17 63 17.8954 63 19C63 20.1046 62.1046 21 61 21H57C55.3431 21 54 22.3431 54 24V38.1952C54 39.5543 54.9138 40.7437 56.227 41.0939L74.8708 46.0655C73.2412 39.9546 73.0228 19.9313 73.0019 13.9907C73 13.4385 73.4468 13 73.999 13L78.3272 13.0002C78.8795 13.0002 79.3208 13.4503 79.3542 14.0016C79.6062 18.1657 81.5267 19.1665 85.2558 17.7638C89.2674 16.2549 93.657 15.5004 98.4244 15.5004C101.738 15.5004 104.645 15.7591 107.145 16.2764C109.645 16.7938 111.593 17.4405 112.988 18.2165C114.384 18.9925 115.081 19.7901 115.081 20.6092C115.081 21.1697 114.849 21.687 114.384 22.1613C113.919 22.5924 113.366 22.9158 112.727 23.1313C111.157 22.3553 109.297 21.6439 107.145 20.9972C104.994 20.3074 102.233 19.9625 98.8605 19.9625C95.1977 19.9625 91.8837 20.5661 88.9186 21.7733C85.9535 22.9804 83.5988 24.7911 81.8547 27.2054C80.1686 29.5766 79.3256 32.5298 79.3256 36.0651C79.3256 37.8666 79.5315 39.5103 79.9432 40.9963C80.7648 43.9609 82.3712 47.0902 85.2314 48.223C87.7154 49.2068 91.1424 49.6085 93.9704 49.9401C95.8939 50.1656 97.5404 50.3586 98.4244 50.6802C99.227 50.9722 98.7122 50.4554 97.8358 49.5755C95.3835 47.1134 90.0993 41.8083 102.922 43.4245C103.285 43.4703 103.701 43.6039 103.826 43.9479C104.065 44.6032 103.632 45.5236 103.169 46.5077C102.213 48.5406 101.128 50.8458 105.576 51.6502C107.436 51.3916 108.89 51.0682 109.936 50.6802L111.235 39.7361C111.376 38.5464 110.447 37.5004 109.249 37.5004H101.558C100.454 37.5004 99.5581 36.605 99.5581 35.5004C99.5581 34.3958 100.454 33.5004 101.558 33.5004H112.5C113.558 33.5004 114.433 34.3248 114.496 35.3812L115.081 45.1834V46.1671L133.1 42.4898C134.497 42.2048 135.5 40.976 135.5 39.5504V25.5C135.5 23.8431 134.157 22.5 132.5 22.5H128.5C127.395 22.5 126.5 21.6046 126.5 20.5C126.5 19.3954 127.395 18.5 128.5 18.5H149.5C150.605 18.5 151.5 19.3954 151.5 20.5C151.5 21.6046 150.605 22.5 149.5 22.5H143.5C141.843 22.5 140.5 23.8431 140.5 25.5V42.6286C140.5 44.0186 139.545 45.2266 138.193 45.5475L115.081 51.0315V52.3017C115.081 53.4062 114.18 54.2923 113.093 54.4882C112.149 54.6582 111.258 54.9217 110.38 55.1816Z"/>
</mask>
<path fill-rule="evenodd" clip-rule="evenodd" d="M110.38 55.1816C109.364 55.4819 108.365 55.7775 107.32 55.9184C104.762 56.3064 102.174 56.5004 99.5581 56.5004C94.1512 56.5004 89.3547 55.7675 85.1686 54.3017C83.1728 53.5929 81.3876 52.7028 79.8131 51.6312L51.2345 44.0897C49.9176 43.7421 49 42.551 49 41.189V24C49 22.3431 47.6569 21 46 21H40C38.8954 21 38 20.1046 38 19C38 17.8954 38.8954 17 40 17H61C62.1046 17 63 17.8954 63 19C63 20.1046 62.1046 21 61 21H57C55.3431 21 54 22.3431 54 24V38.1952C54 39.5543 54.9138 40.7437 56.227 41.0939L74.8708 46.0655C73.2412 39.9546 73.0228 19.9313 73.0019 13.9907C73 13.4385 73.4468 13 73.999 13L78.3272 13.0002C78.8795 13.0002 79.3208 13.4503 79.3542 14.0016C79.6062 18.1657 81.5267 19.1665 85.2558 17.7638C89.2674 16.2549 93.657 15.5004 98.4244 15.5004C101.738 15.5004 104.645 15.7591 107.145 16.2764C109.645 16.7938 111.593 17.4405 112.988 18.2165C114.384 18.9925 115.081 19.7901 115.081 20.6092C115.081 21.1697 114.849 21.687 114.384 22.1613C113.919 22.5924 113.366 22.9158 112.727 23.1313C111.157 22.3553 109.297 21.6439 107.145 20.9972C104.994 20.3074 102.233 19.9625 98.8605 19.9625C95.1977 19.9625 91.8837 20.5661 88.9186 21.7733C85.9535 22.9804 83.5988 24.7911 81.8547 27.2054C80.1686 29.5766 79.3256 32.5298 79.3256 36.0651C79.3256 37.8666 79.5315 39.5103 79.9432 40.9963C80.7648 43.9609 82.3712 47.0902 85.2314 48.223C87.7154 49.2068 91.1424 49.6085 93.9704 49.9401C95.8939 50.1656 97.5404 50.3586 98.4244 50.6802C99.227 50.9722 98.7122 50.4554 97.8358 49.5755C95.3835 47.1134 90.0993 41.8083 102.922 43.4245C103.285 43.4703 103.701 43.6039 103.826 43.9479C104.065 44.6032 103.632 45.5236 103.169 46.5077C102.213 48.5406 101.128 50.8458 105.576 51.6502C107.436 51.3916 108.89 51.0682 109.936 50.6802L111.235 39.7361C111.376 38.5464 110.447 37.5004 109.249 37.5004H101.558C100.454 37.5004 99.5581 36.605 99.5581 35.5004C99.5581 34.3958 100.454 33.5004 101.558 33.5004H112.5C113.558 33.5004 114.433 34.3248 114.496 35.3812L115.081 45.1834V46.1671L133.1 42.4898C134.497 42.2048 135.5 40.976 135.5 39.5504V25.5C135.5 23.8431 134.157 22.5 132.5 22.5H128.5C127.395 22.5 126.5 21.6046 126.5 20.5C126.5 19.3954 127.395 18.5 128.5 18.5H149.5C150.605 18.5 151.5 19.3954 151.5 20.5C151.5 21.6046 150.605 22.5 149.5 22.5H143.5C141.843 22.5 140.5 23.8431 140.5 25.5V42.6286C140.5 44.0186 139.545 45.2266 138.193 45.5475L115.081 51.0315V52.3017C115.081 53.4062 114.18 54.2923 113.093 54.4882C112.149 54.6582 111.258 54.9217 110.38 55.1816Z" fill="url(#paint0_radial_12_87)" shape-rendering="crispEdges"/>
<path d="M107.32 55.9184L107.053 53.9363L107.036 53.9385L107.02 53.941L107.32 55.9184ZM110.38 55.1816L110.947 57.0995H110.947L110.38 55.1816ZM85.1686 54.3017L84.4993 56.1864L84.5076 56.1893L85.1686 54.3017ZM79.8131 51.6312L80.9383 49.9778L80.6549 49.7849L80.3234 49.6974L79.8131 51.6312ZM51.2345 44.0897L50.7242 46.0235L51.2345 44.0897ZM56.227 41.0939L56.7423 39.1614L56.227 41.0939ZM74.8708 46.0655L74.3555 47.998L77.6934 48.8881L76.8032 45.5502L74.8708 46.0655ZM73.0019 13.9907L71.0019 13.9978V13.9978L73.0019 13.9907ZM73.999 13L73.9991 11H73.999L73.999 13ZM78.3272 13.0002L78.3274 11.0002H78.3273L78.3272 13.0002ZM79.3542 14.0016L77.3579 14.1224V14.1224L79.3542 14.0016ZM85.2558 17.7638L85.9599 19.6358L85.2558 17.7638ZM107.145 16.2764L106.74 18.2349L107.145 16.2764ZM112.988 18.2165L113.96 16.4686L113.96 16.4686L112.988 18.2165ZM114.384 22.1613L115.743 23.6281L115.778 23.5957L115.812 23.5617L114.384 22.1613ZM112.727 23.1313L111.84 24.9242L112.582 25.2907L113.366 25.0266L112.727 23.1313ZM107.145 20.9972L106.535 22.9017L106.552 22.9073L106.57 22.9126L107.145 20.9972ZM88.9186 21.7733L88.1645 19.9209H88.1645L88.9186 21.7733ZM81.8547 27.2054L80.2335 26.0342L80.2291 26.0403L80.2247 26.0465L81.8547 27.2054ZM79.9432 40.9963L78.0159 41.5304L78.0159 41.5304L79.9432 40.9963ZM85.2314 48.223L84.4949 50.0825L85.2314 48.223ZM93.9704 49.9401L94.2032 47.9537H94.2032L93.9704 49.9401ZM98.4244 50.6802L99.1081 48.8007H99.1081L98.4244 50.6802ZM97.8358 49.5755L96.4188 50.9869L97.8358 49.5755ZM102.922 43.4245L102.672 45.4088L102.922 43.4245ZM103.826 43.9479L101.947 44.6333L101.947 44.6334L103.826 43.9479ZM103.169 46.5077L101.359 45.6562L101.359 45.6562L103.169 46.5077ZM105.576 51.6502L105.22 53.6183L105.534 53.6752L105.851 53.6312L105.576 51.6502ZM109.936 50.6802L110.631 52.5555L111.778 52.1303L111.922 50.9159L109.936 50.6802ZM111.235 39.7361L113.221 39.9717V39.9717L111.235 39.7361ZM114.496 35.3812L112.5 35.5004V35.5004L114.496 35.3812ZM115.081 45.1834H117.081V45.1237L117.078 45.0641L115.081 45.1834ZM115.081 46.1671H113.081V48.6165L115.481 48.1267L115.081 46.1671ZM133.1 42.4898L132.7 40.5302L133.1 42.4898ZM138.193 45.5475L138.654 47.4935H138.654L138.193 45.5475ZM115.081 51.0315L114.62 49.0856L113.081 49.4506V51.0315H115.081ZM113.093 54.4882L113.447 56.4565H113.447L113.093 54.4882ZM107.587 57.9004C108.81 57.7356 109.956 57.3926 110.947 57.0995L109.813 53.2637C108.773 53.5712 107.92 53.8194 107.053 53.9363L107.587 57.9004ZM99.5581 58.5004C102.274 58.5004 104.961 58.299 107.62 57.8958L107.02 53.941C104.562 54.3138 102.075 54.5004 99.5581 54.5004V58.5004ZM84.5076 56.1893C88.9468 57.7438 93.9737 58.5004 99.5581 58.5004V54.5004C94.3286 54.5004 89.7625 53.7912 85.8296 52.414L84.5076 56.1893ZM78.6878 53.2846C80.4186 54.4626 82.36 55.4267 84.4994 56.1864L85.8379 52.417C83.9855 51.7592 82.3566 50.943 80.9383 49.9778L78.6878 53.2846ZM80.3234 49.6974L51.7448 42.1559L50.7242 46.0235L79.3027 53.565L80.3234 49.6974ZM51.7448 42.1559C51.3059 42.04 51 41.643 51 41.189H47C47 43.459 48.5293 45.4442 50.7242 46.0235L51.7448 42.1559ZM51 41.189V24H47V41.189H51ZM51 24C51 21.2386 48.7614 19 46 19V23C46.5523 23 47 23.4477 47 24H51ZM46 19H40V23H46V19ZM40 19H36C36 21.2091 37.7909 23 40 23V19ZM40 19V15C37.7909 15 36 16.7909 36 19H40ZM40 19H61V15H40V19ZM61 19H65C65 16.7909 63.2091 15 61 15V19ZM61 19V23C63.2091 23 65 21.2091 65 19H61ZM61 19H57V23H61V19ZM57 19C54.2386 19 52 21.2386 52 24H56C56 23.4477 56.4477 23 57 23V19ZM52 24V38.1952H56V24H52ZM52 38.1952C52 40.4604 53.5229 42.4427 55.7117 43.0263L56.7423 39.1614C56.3046 39.0447 56 38.6482 56 38.1952H52ZM55.7117 43.0263L74.3555 47.998L75.3861 44.1331L56.7423 39.1614L55.7117 43.0263ZM71.0019 13.9978C71.0124 16.9793 71.0724 23.4974 71.3347 30.0443C71.5929 36.4902 72.0547 43.2673 72.9383 46.5809L76.8032 45.5502C76.0573 42.7528 75.5951 36.4628 75.3315 29.8842C75.072 23.4065 75.0123 16.9427 75.0019 13.9837L71.0019 13.9978ZM73.999 11C72.3656 11 70.996 12.3123 71.0019 13.9978L75.0019 13.9837C75.0039 14.5647 74.528 15 73.999 15L73.999 11ZM78.3273 11.0002L73.9991 11L73.999 15L78.3272 15.0002L78.3273 11.0002ZM81.3505 13.8808C81.2588 12.3644 80.0256 11.0003 78.3274 11.0002L78.3271 15.0002C77.7334 15.0001 77.3829 14.5363 77.3579 14.1224L81.3505 13.8808ZM84.5517 15.8919C82.7923 16.5537 82.1775 16.3449 82.0413 16.262C81.9475 16.2049 81.4675 15.8132 81.3505 13.8807L77.3579 14.1224C77.4929 16.354 78.0992 18.5448 79.961 19.6784C81.7803 20.7863 83.9903 20.3766 85.9599 19.6358L84.5517 15.8919ZM98.4244 13.5004C93.4434 13.5004 88.8123 14.2893 84.5517 15.8919L85.9599 19.6358C89.7226 18.2205 93.8706 17.5004 98.4244 17.5004V13.5004ZM107.551 14.3179C104.885 13.7662 101.837 13.5004 98.4244 13.5004V17.5004C101.64 17.5004 104.406 17.7519 106.74 18.2349L107.551 14.3179ZM113.96 16.4686C112.314 15.5532 110.145 14.8549 107.551 14.3179L106.74 18.2349C109.145 18.7327 110.872 19.3277 112.016 19.9644L113.96 16.4686ZM117.081 20.6092C117.081 18.5805 115.407 17.2733 113.96 16.4686L112.016 19.9644C112.604 20.2914 112.912 20.5524 113.053 20.7135C113.179 20.8573 113.081 20.8121 113.081 20.6092H117.081ZM115.812 23.5617C116.571 22.7877 117.081 21.7889 117.081 20.6092H113.081C113.081 20.6099 113.081 20.6058 113.083 20.5997C113.084 20.5936 113.085 20.5923 113.083 20.5976C113.078 20.6075 113.051 20.664 112.956 20.7609L115.812 23.5617ZM113.366 25.0266C114.255 24.7266 115.058 24.2635 115.743 23.6281L113.024 20.6945C112.779 20.9213 112.477 21.1049 112.088 21.2361L113.366 25.0266ZM106.57 22.9126C108.642 23.5357 110.394 24.2091 111.84 24.9242L113.613 21.3384C111.92 20.5015 109.951 19.7522 107.721 19.0819L106.57 22.9126ZM98.8605 21.9625C102.117 21.9625 104.652 22.2982 106.535 22.9017L107.756 19.0928C105.336 18.3167 102.348 17.9625 98.8605 17.9625V21.9625ZM89.6727 23.6256C92.3664 22.529 95.4193 21.9625 98.8605 21.9625V17.9625C94.9761 17.9625 91.4011 18.6032 88.1645 19.9209L89.6727 23.6256ZM83.4758 28.3767C84.984 26.289 87.0277 24.7025 89.6727 23.6256L88.1645 19.9209C84.8793 21.2584 82.2136 23.2933 80.2335 26.0342L83.4758 28.3767ZM81.3256 36.0651C81.3256 32.8543 82.0871 30.3298 83.4846 28.3644L80.2247 26.0465C78.2501 28.8234 77.3256 32.2054 77.3256 36.0651H81.3256ZM81.8706 40.4622C81.5143 39.1765 81.3256 37.7156 81.3256 36.0651H77.3256C77.3256 38.0175 77.5486 39.8441 78.0159 41.5304L81.8706 40.4622ZM85.9678 46.3635C84.0314 45.5966 82.6561 43.2968 81.8706 40.4622L78.0159 41.5304C78.8734 44.625 80.711 48.5838 84.4949 50.0825L85.9678 46.3635ZM94.2032 47.9537C91.2927 47.6125 88.1571 47.2306 85.9678 46.3635L84.4949 50.0825C87.2737 51.183 90.9921 51.6046 93.7375 51.9265L94.2032 47.9537ZM99.1081 48.8007C98.4666 48.5673 97.6654 48.4158 96.8896 48.2971C96.0852 48.1741 95.1547 48.0652 94.2032 47.9537L93.7375 51.9265C94.7096 52.0404 95.5641 52.1409 96.2848 52.2511C97.0341 52.3657 97.4982 52.4715 97.7407 52.5597L99.1081 48.8007ZM96.4188 50.9869C96.6436 51.2126 96.8208 51.3906 96.9592 51.5366C97.1208 51.707 97.1386 51.7399 97.1062 51.6924C97.0919 51.6713 97.0567 51.6181 97.0168 51.5392C96.9819 51.4703 96.907 51.3114 96.8618 51.088C96.8179 50.8713 96.7708 50.4368 96.9807 49.9453C97.2147 49.3972 97.6424 49.0672 98.0273 48.9074C98.3613 48.7687 98.6457 48.7607 98.7686 48.7622C98.9088 48.764 99.0114 48.7823 99.0542 48.7908C99.1379 48.8074 99.1672 48.8222 99.1081 48.8007L97.7407 52.5597C97.8823 52.6112 98.0711 52.6737 98.2768 52.7145C98.3651 52.732 98.9365 52.861 99.5613 52.6016C99.9716 52.4312 100.416 52.0852 100.659 51.5158C100.878 51.0031 100.832 50.5421 100.782 50.2939C100.692 49.8482 100.472 49.5289 100.413 49.4422C100.243 49.192 100.018 48.949 99.8616 48.7841C99.6821 48.5949 99.4662 48.3783 99.2528 48.1641L96.4188 50.9869ZM103.172 41.4402C99.9162 41.0298 97.5402 41.0156 95.9005 41.4141C95.0671 41.6167 94.2415 41.9683 93.6122 42.6018C92.9264 43.2921 92.6364 44.1539 92.6511 45.0052C92.6645 45.7827 92.927 46.4814 93.2023 47.0249C93.4858 47.5846 93.8517 48.113 94.2173 48.5804C94.9433 49.5089 95.8198 50.3855 96.4188 50.9869L99.2528 48.1641C98.6257 47.5344 97.922 46.8246 97.3683 46.1164C97.0939 45.7656 96.8951 45.4631 96.7706 45.2174C96.638 44.9556 96.6494 44.8746 96.6505 44.9361C96.6528 45.0714 96.589 45.2809 96.45 45.4208C96.3675 45.5039 96.4091 45.407 96.8452 45.301C97.7444 45.0824 99.5164 45.0111 102.672 45.4088L103.172 41.4402ZM105.705 43.2624C105.411 42.4566 104.808 42.0099 104.355 41.784C103.912 41.5638 103.473 41.4782 103.172 41.4402L102.672 45.4088C102.734 45.4166 102.684 45.4207 102.572 45.3647C102.448 45.3031 102.116 45.0952 101.947 44.6333L105.705 43.2624ZM104.979 47.3591C105.194 46.9019 105.484 46.2938 105.67 45.7022C105.845 45.143 106.055 44.2211 105.705 43.2624L101.947 44.6334C101.887 44.4689 101.894 44.3535 101.895 44.3397C101.895 44.331 101.892 44.3799 101.852 44.5067C101.765 44.7852 101.607 45.1293 101.359 45.6562L104.979 47.3591ZM105.932 49.6822C104.966 49.5076 104.521 49.2861 104.346 49.1621C104.236 49.0839 104.3 49.1034 104.315 49.1902C104.316 49.1976 104.309 49.1642 104.321 49.0722C104.333 48.9784 104.362 48.8479 104.419 48.6721C104.539 48.2999 104.728 47.8918 104.979 47.3591L101.359 45.6562C101.132 46.14 100.826 46.7825 100.614 47.4393C100.402 48.0913 100.212 48.9593 100.377 49.8892C100.772 52.1189 102.779 53.177 105.22 53.6183L105.932 49.6822ZM109.241 48.805C108.391 49.1201 107.1 49.419 105.3 49.6693L105.851 53.6312C107.772 53.3641 109.388 53.0163 110.631 52.5555L109.241 48.805ZM109.249 39.5004L107.95 50.4445L111.922 50.9159L113.221 39.9717L109.249 39.5004ZM109.249 39.5004V39.5004L113.221 39.9717C113.503 37.5925 111.645 35.5004 109.249 35.5004V39.5004ZM101.558 39.5004H109.249V35.5004H101.558V39.5004ZM97.5581 35.5004C97.5581 37.7095 99.349 39.5004 101.558 39.5004V35.5004H97.5581ZM101.558 31.5004C99.349 31.5004 97.5581 33.2913 97.5581 35.5004H101.558V31.5004ZM112.5 31.5004H101.558V35.5004H112.5V31.5004ZM116.492 35.262C116.366 33.1492 114.616 31.5004 112.5 31.5004V35.5004V35.5004L116.492 35.262ZM117.078 45.0641L116.492 35.262L112.5 35.5004L113.085 45.3026L117.078 45.0641ZM117.081 46.1671V45.1834H113.081V46.1671H117.081ZM132.7 40.5302L114.681 44.2075L115.481 48.1267L133.5 44.4494L132.7 40.5302ZM133.5 39.5504C133.5 40.0256 133.166 40.4352 132.7 40.5302L133.5 44.4494C135.828 43.9743 137.5 41.9264 137.5 39.5504H133.5ZM133.5 25.5V39.5504H137.5V25.5H133.5ZM132.5 24.5C133.052 24.5 133.5 24.9477 133.5 25.5H137.5C137.5 22.7386 135.261 20.5 132.5 20.5V24.5ZM128.5 24.5H132.5V20.5H128.5V24.5ZM124.5 20.5C124.5 22.7091 126.291 24.5 128.5 24.5V20.5H124.5ZM128.5 16.5C126.291 16.5 124.5 18.2909 124.5 20.5H128.5V16.5ZM149.5 16.5H128.5V20.5H149.5V16.5ZM153.5 20.5C153.5 18.2909 151.709 16.5 149.5 16.5V20.5H153.5ZM149.5 24.5C151.709 24.5 153.5 22.7091 153.5 20.5H149.5V24.5ZM143.5 24.5H149.5V20.5H143.5V24.5ZM142.5 25.5C142.5 24.9477 142.948 24.5 143.5 24.5V20.5C140.739 20.5 138.5 22.7386 138.5 25.5H142.5ZM142.5 42.6286V25.5H138.5V42.6286H142.5ZM138.654 47.4935C140.909 46.9586 142.5 44.9453 142.5 42.6286H138.5C138.5 43.0919 138.182 43.4946 137.731 43.6015L138.654 47.4935ZM115.543 52.9775L138.654 47.4935L137.731 43.6015L114.62 49.0856L115.543 52.9775ZM117.081 52.3017V51.0315H113.081V52.3017H117.081ZM113.447 56.4565C115.279 56.1263 117.081 54.5705 117.081 52.3017H113.081C113.081 52.3017 113.082 52.3012 113.08 52.3065C113.077 52.3141 113.066 52.3355 113.038 52.3653C112.976 52.4309 112.868 52.4965 112.738 52.5199L113.447 56.4565ZM110.947 57.0995C111.841 56.8352 112.629 56.604 113.447 56.4565L112.738 52.5199C111.67 52.7124 110.676 53.0082 109.813 53.2637L110.947 57.0995Z" fill="#9A89FF" fill-opacity="0.29" mask="url(#path-1-outside-1_12_87)"/>
</g>
<g filter="url(#filter1_d_12_87)">
<path d="M16.3867 79.067L16.2855 78.7H15.9048H11.0476H10.5476V79.2V87C10.5476 87.2761 10.3238 87.5 10.0476 87.5H8C7.72386 87.5 7.5 87.2761 7.5 87V77C7.5 76.7239 7.72386 76.5 8 76.5H19.7619C20.5903 76.5 21.2619 75.8284 21.2619 75V72.2C21.2619 71.3716 20.5903 70.7 19.7619 70.7H8C7.72386 70.7 7.5 70.4761 7.5 70.2V68.5H18.4C21.2167 68.5 23.5 70.7833 23.5 73.6V76.0759C23.5 77.5251 22.3251 78.7 20.8759 78.7C20.4882 78.7 20.2071 79.0692 20.3102 79.4429L22.3591 86.867C22.447 87.1854 22.2074 87.5 21.8771 87.5H19.0947C18.8698 87.5 18.6726 87.3498 18.6128 87.133L16.3867 79.067Z" fill="black" stroke="black"/>
<path d="M171.5 71C171.5 69.6193 172.619 68.5 174 68.5H183.387C184.078 68.5 184.637 69.0596 184.637 69.75V70.2284C184.637 70.6545 184.292 71 183.866 71H175.793C174.357 71 173.193 72.1641 173.193 73.6C173.193 75.0359 174.357 76.2 175.793 76.2H178.309C179.201 76.2 179.925 76.9234 179.925 77.8158V77.9089C179.925 78.7843 179.263 79.5181 178.393 79.6086L175.291 79.9311C174.099 80.0551 173.193 81.0602 173.193 82.2593C173.193 83.552 174.241 84.6 175.534 84.6H183.866C184.292 84.6 184.637 84.9455 184.637 85.3716V85.5C184.637 85.9971 184.234 86.4 183.737 86.4H174C172.619 86.4 171.5 85.2807 171.5 83.9V80.3883C171.5 80.2342 171.571 80.0887 171.693 79.994L172.989 78.9828C173.759 78.3823 173.759 77.2177 172.989 76.6172L171.693 75.606C171.571 75.5113 171.5 75.3658 171.5 75.2117V71Z" fill="black" stroke="black"/>
<path d="M111.5 71C111.5 69.6193 112.619 68.5 114 68.5H123.387C124.078 68.5 124.637 69.0596 124.637 69.75V70.2284C124.637 70.6545 124.292 71 123.866 71H115.793C114.357 71 113.193 72.1641 113.193 73.6C113.193 75.0359 114.357 76.2 115.793 76.2H118.309C119.201 76.2 119.925 76.9234 119.925 77.8158V77.9089C119.925 78.7843 119.263 79.5181 118.393 79.6086L115.291 79.9311C114.099 80.0551 113.193 81.0602 113.193 82.2593C113.193 83.552 114.241 84.6 115.534 84.6H123.866C124.292 84.6 124.637 84.9455 124.637 85.3716V85.5C124.637 85.9971 124.234 86.4 123.737 86.4H114C112.619 86.4 111.5 85.2807 111.5 83.9V80.3883C111.5 80.2342 111.571 80.0887 111.693 79.994L112.989 78.9828C113.759 78.3823 113.759 77.2177 112.989 76.6172L111.693 75.606C111.571 75.5113 111.5 75.3658 111.5 75.2117V71Z" fill="black" stroke="black"/>
<path d="M32.4499 70.832L31.7428 71.5391L32.4499 70.832ZM32.349 70.7311L33.0561 70.024L32.349 70.7311ZM29.5744 73.6134L28.8673 74.3206L29.5744 73.6134ZM29.8034 73.8424L30.5105 73.1353L29.8034 73.8424ZM29.8998 82.2719L29.1926 81.5648L29.8998 82.2719ZM29.6571 84.7993L30.3642 84.0922L29.6571 84.7993ZM29.6571 82.5145L28.95 81.8074L29.6571 82.5145ZM32.5412 85.2872L31.8341 84.5801L32.5412 85.2872ZM30.1451 85.2872L30.8522 84.5801L30.1451 85.2872ZM43.9113 85.3594L44.6184 86.0665L43.9113 85.3594ZM44.2063 85.0643L44.9134 85.7714L44.2063 85.0643ZM44.2872 71.1451L43.5801 71.8522L44.2872 71.1451ZM41.5145 70.6572L42.2216 71.3643L41.5145 70.6572ZM43.7993 70.6572L44.5064 69.9501L43.7993 70.6572ZM41.2718 70.8998L41.9789 71.6069L41.2718 70.8998ZM37.378 67H36.5669V69H37.378V67ZM40 69.9572V69.622H38V69.9572H40ZM40.8073 69.9501L40.5647 70.1927L41.9789 71.6069L42.2216 71.3643L40.8073 69.9501ZM44.9943 70.438L44.5064 69.9501L43.0922 71.3643L43.5801 71.8522L44.9943 70.438ZM44.6932 74.5495L44.9943 74.2484L43.5801 72.8342L43.2789 73.1353L44.6932 74.5495ZM45.3141 75H44.8787V77H45.3141V75ZM48 78.2575V77.6859H46V78.2575H48ZM44.8324 81H45.2575V79H44.8324V81ZM44.9134 81.8814L44.5968 81.5647L43.1826 82.979L43.4992 83.2956L44.9134 81.8814ZM44.6184 86.0665L44.9134 85.7714L43.4992 84.3572L43.2042 84.6523L44.6184 86.0665ZM40.1722 85.6254L40.6133 86.0665L42.0275 84.6523L41.5864 84.2112L40.1722 85.6254ZM40 86.2575V85.6968H38V86.2575H40ZM36.6858 89H37.2575V87H36.6858V89ZM34 85.8788V86.3142H36V85.8788H34ZM33.2484 85.9943L33.5495 85.6932L32.1352 84.279L31.8341 84.5801L33.2484 85.9943ZM28.95 85.5064L29.438 85.9943L30.8522 84.5801L30.3642 84.0922L28.95 85.5064ZM29.1926 81.5648L28.95 81.8074L30.3642 83.2216L30.6069 82.979L29.1926 81.5648ZM28.6219 81H28.9571V79H28.6219V81ZM26 77.5669V78.3781H28V77.5669H26ZM28.9107 75H28.5669V77H28.9107V75ZM28.8673 74.3206L29.0963 74.5495L30.5105 73.1353L30.2816 72.9063L28.8673 74.3206ZM29.5481 70.024L28.8673 70.7048L30.2816 72.1191L30.9624 71.4383L29.5481 70.024ZM33.157 70.1249L33.0561 70.024L31.6419 71.4383L31.7428 71.5391L33.157 70.1249ZM34 69.5669V69.7751H36V69.5669H34ZM34.4373 72.0175C35.2722 71.668 36 70.8455 36 69.7751H34C34 69.8804 33.9146 70.0681 33.6649 70.1727L34.4373 72.0175ZM31.7428 71.5391C32.4973 72.2937 33.5872 72.3734 34.4373 72.0175L33.6649 70.1727C33.4248 70.2732 33.2382 70.2061 33.157 70.1249L31.7428 71.5391ZM30.9624 71.4383C31.15 71.2506 31.4542 71.2506 31.6419 71.4383L33.0561 70.024C32.0874 69.0553 30.5168 69.0553 29.5481 70.024L30.9624 71.4383ZM30.2816 72.9063C30.0641 72.6889 30.0641 72.3365 30.2816 72.1191L28.8673 70.7048C27.8689 71.7033 27.8689 73.3221 28.8673 74.3206L30.2816 72.9063ZM30.9728 75.547C31.2792 74.7749 31.1824 73.8072 30.5105 73.1353L29.0963 74.5495C29.1129 74.5661 29.1288 74.5914 29.1361 74.6347C29.1439 74.6811 29.14 74.7433 29.1138 74.8092L30.9728 75.547ZM28.9107 77C29.8981 77 30.6617 76.3309 30.9728 75.547L29.1138 74.8092C29.0861 74.879 29.0421 74.9326 28.9991 74.9647C28.9588 74.9947 28.9291 75 28.9107 75V77ZM28 77.5669C28 77.2538 28.2538 77 28.5669 77V75C27.1492 75 26 76.1492 26 77.5669H28ZM28.6219 79C28.2784 79 28 78.7216 28 78.3781H26C26 79.8261 27.1739 81 28.6219 81V79ZM31.0494 80.4272C30.714 79.6543 29.9438 79 28.9571 79V81C28.9863 81 29.0264 81.0089 29.0758 81.0446C29.1278 81.0822 29.1801 81.1437 29.2147 81.2233L31.0494 80.4272ZM30.6069 82.979C31.3207 82.2652 31.3984 81.2314 31.0494 80.4272L29.2147 81.2233C29.2913 81.3998 29.2348 81.5227 29.1926 81.5648L30.6069 82.979ZM30.3642 84.0922C30.1238 83.8518 30.1238 83.462 30.3642 83.2216L28.95 81.8074C27.9286 82.8289 27.9286 84.485 28.95 85.5064L30.3642 84.0922ZM31.8341 84.5801C31.563 84.8513 31.1233 84.8513 30.8522 84.5801L29.438 85.9943C30.4902 87.0466 32.1961 87.0466 33.2484 85.9943L31.8341 84.5801ZM34.5469 83.8168C33.7749 83.5104 32.8071 83.6071 32.1352 84.279L33.5495 85.6932C33.566 85.6767 33.5913 85.6607 33.6347 85.6534C33.681 85.6456 33.7433 85.6496 33.8092 85.6757L34.5469 83.8168ZM36 85.8788C36 84.8914 35.3309 84.1279 34.5469 83.8168L33.8092 85.6757C33.879 85.7034 33.9326 85.7475 33.9647 85.7905C33.9947 85.8307 34 85.8605 34 85.8788H36ZM36.6858 87C36.3071 87 36 86.6929 36 86.3142H34C34 87.7975 35.2025 89 36.6858 89V87ZM38 86.2575C38 86.6676 37.6676 87 37.2575 87V89C38.7721 89 40 87.7721 40 86.2575H38ZM39.3183 83.7861C38.5969 84.0833 38 84.7937 38 85.6968H40C40 85.7064 39.9959 85.7046 40.0066 85.6898C40.0191 85.6726 40.044 85.6502 40.08 85.6354L39.3183 83.7861ZM41.5864 84.2112C40.9557 83.5805 40.0443 83.4871 39.3183 83.7861L40.08 85.6354C40.1146 85.6211 40.1443 85.6203 40.1615 85.6232C40.1694 85.6245 40.1731 85.6262 40.1736 85.6265C40.1738 85.6266 40.1736 85.6265 40.1731 85.6262C40.1729 85.626 40.1727 85.6258 40.1725 85.6257C40.1723 85.6255 40.1722 85.6254 40.1722 85.6254L41.5864 84.2112ZM43.2042 84.6523C42.8792 84.9772 42.3524 84.9772 42.0275 84.6523L40.6133 86.0665C41.7193 87.1725 43.5124 87.1725 44.6184 86.0665L43.2042 84.6523ZM43.4992 83.2956C43.7924 83.5887 43.7924 84.0641 43.4992 84.3572L44.9134 85.7714C45.9876 84.6972 45.9876 82.9556 44.9134 81.8814L43.4992 83.2956ZM42.74 80.4272C42.3911 81.2314 42.4688 82.2651 43.1826 82.979L44.5968 81.5647C44.5547 81.5226 44.4982 81.3998 44.5748 81.2233L42.74 80.4272ZM44.8324 79C43.8456 79 43.0754 79.6543 42.74 80.4272L44.5748 81.2233C44.6093 81.1437 44.6617 81.0822 44.7137 81.0446C44.763 81.0089 44.8031 81 44.8324 81V79ZM46 78.2575C46 78.6676 45.6676 79 45.2575 79V81C46.7721 81 48 79.7721 48 78.2575H46ZM45.3141 77C45.6929 77 46 77.3071 46 77.6859H48C48 76.2025 46.7975 75 45.3141 75V77ZM42.8167 75.547C43.1278 76.3309 43.8913 77 44.8787 77V75C44.8604 75 44.8306 74.9947 44.7904 74.9647C44.7474 74.9326 44.7033 74.879 44.6756 74.8092L42.8167 75.547ZM43.2789 73.1353C42.6071 73.8072 42.5103 74.7749 42.8167 75.547L44.6756 74.8092C44.6495 74.7433 44.6456 74.6811 44.6534 74.6347C44.6606 74.5914 44.6766 74.5661 44.6932 74.5495L43.2789 73.1353ZM43.5801 71.8522C43.8512 72.1234 43.8512 72.563 43.5801 72.8342L44.9943 74.2484C46.0465 73.1962 46.0465 71.4902 44.9943 70.438L43.5801 71.8522ZM42.2216 71.3643C42.462 71.1239 42.8518 71.1239 43.0922 71.3643L44.5064 69.9501C43.4849 68.9286 41.8288 68.9286 40.8073 69.9501L42.2216 71.3643ZM39.4271 72.0495C40.2313 72.3984 41.2651 72.3208 41.9789 71.6069L40.5647 70.1927C40.5226 70.2348 40.3998 70.2914 40.2233 70.2148L39.4271 72.0495ZM38 69.9572C38 70.9439 38.6543 71.7141 39.4271 72.0495L40.2233 70.2148C40.1436 70.1802 40.0822 70.1279 40.0446 70.0759C40.0089 70.0265 40 69.9864 40 69.9572H38ZM36.5669 67C35.1492 67 34 68.1492 34 69.5669H36C36 69.2538 36.2538 69 36.5669 69V67ZM37.378 69C37.7215 69 38 69.2785 38 69.622H40C40 68.1739 38.8261 67 37.378 67V69Z" fill="black"/>
<circle cx="37" cy="78.0001" r="4.29412" stroke="black" stroke-width="2"/>
<circle cx="36.8824" cy="77.8823" r="1.5" stroke="black" stroke-opacity="0.6" stroke-width="2.17647"/>
<path d="M72.4499 70.832L71.7428 71.5391L72.4499 70.832ZM72.349 70.7311L73.0561 70.024L72.349 70.7311ZM69.5744 73.6134L68.8673 74.3206L69.5744 73.6134ZM69.8034 73.8424L70.5105 73.1353L69.8034 73.8424ZM69.8998 82.2719L69.1926 81.5648L69.8998 82.2719ZM69.6571 84.7993L70.3642 84.0922L69.6571 84.7993ZM69.6571 82.5145L68.95 81.8074L69.6571 82.5145ZM72.5412 85.2872L71.8341 84.5801L72.5412 85.2872ZM70.1451 85.2872L70.8522 84.5801L70.1451 85.2872ZM83.9113 85.3594L84.6184 86.0665L83.9113 85.3594ZM84.2063 85.0643L84.9134 85.7714L84.2063 85.0643ZM84.2872 71.1451L83.5801 71.8522L84.2872 71.1451ZM81.5145 70.6572L82.2216 71.3643L81.5145 70.6572ZM83.7993 70.6572L84.5064 69.9501L83.7993 70.6572ZM81.2718 70.8998L81.9789 71.6069L81.2718 70.8998ZM77.378 67H76.5669V69H77.378V67ZM80 69.9572V69.622H78V69.9572H80ZM80.8073 69.9501L80.5647 70.1927L81.9789 71.6069L82.2216 71.3643L80.8073 69.9501ZM84.9943 70.438L84.5064 69.9501L83.0922 71.3643L83.5801 71.8522L84.9943 70.438ZM84.6932 74.5495L84.9943 74.2484L83.5801 72.8342L83.2789 73.1353L84.6932 74.5495ZM85.3141 75H84.8787V77H85.3141V75ZM88 78.2575V77.6859H86V78.2575H88ZM84.8324 81H85.2575V79H84.8324V81ZM84.9134 81.8814L84.5968 81.5647L83.1826 82.979L83.4992 83.2956L84.9134 81.8814ZM84.6184 86.0665L84.9134 85.7714L83.4992 84.3572L83.2042 84.6523L84.6184 86.0665ZM80.1722 85.6254L80.6133 86.0665L82.0275 84.6523L81.5864 84.2112L80.1722 85.6254ZM80 86.2575V85.6968H78V86.2575H80ZM76.6858 89H77.2575V87H76.6858V89ZM74 85.8788V86.3142H76V85.8788H74ZM73.2484 85.9943L73.5495 85.6932L72.1352 84.279L71.8341 84.5801L73.2484 85.9943ZM68.95 85.5064L69.438 85.9943L70.8522 84.5801L70.3642 84.0922L68.95 85.5064ZM69.1926 81.5648L68.95 81.8074L70.3642 83.2216L70.6069 82.979L69.1926 81.5648ZM68.6219 81H68.9571V79H68.6219V81ZM66 77.5669V78.3781H68V77.5669H66ZM68.9107 75H68.5669V77H68.9107V75ZM68.8673 74.3206L69.0963 74.5495L70.5105 73.1353L70.2816 72.9063L68.8673 74.3206ZM69.5481 70.024L68.8673 70.7048L70.2816 72.1191L70.9624 71.4383L69.5481 70.024ZM73.157 70.1249L73.0561 70.024L71.6419 71.4383L71.7428 71.5391L73.157 70.1249ZM74 69.5669V69.7751H76V69.5669H74ZM74.4373 72.0175C75.2722 71.668 76 70.8455 76 69.7751H74C74 69.8804 73.9146 70.0681 73.6649 70.1727L74.4373 72.0175ZM71.7428 71.5391C72.4973 72.2937 73.5872 72.3734 74.4373 72.0175L73.6649 70.1727C73.4248 70.2732 73.2382 70.2061 73.157 70.1249L71.7428 71.5391ZM70.9624 71.4383C71.15 71.2506 71.4542 71.2506 71.6419 71.4383L73.0561 70.024C72.0874 69.0553 70.5168 69.0553 69.5481 70.024L70.9624 71.4383ZM70.2816 72.9063C70.0641 72.6889 70.0641 72.3365 70.2816 72.1191L68.8673 70.7048C67.8689 71.7033 67.8689 73.3221 68.8673 74.3206L70.2816 72.9063ZM70.9728 75.547C71.2792 74.7749 71.1824 73.8072 70.5105 73.1353L69.0963 74.5495C69.1129 74.5661 69.1288 74.5914 69.1361 74.6347C69.1439 74.6811 69.14 74.7433 69.1138 74.8092L70.9728 75.547ZM68.9107 77C69.8981 77 70.6617 76.3309 70.9728 75.547L69.1138 74.8092C69.0861 74.879 69.0421 74.9326 68.9991 74.9647C68.9588 74.9947 68.9291 75 68.9107 75V77ZM68 77.5669C68 77.2538 68.2538 77 68.5669 77V75C67.1492 75 66 76.1492 66 77.5669H68ZM68.6219 79C68.2784 79 68 78.7216 68 78.3781H66C66 79.8261 67.1739 81 68.6219 81V79ZM71.0494 80.4272C70.714 79.6543 69.9438 79 68.9571 79V81C68.9863 81 69.0264 81.0089 69.0758 81.0446C69.1278 81.0822 69.1801 81.1437 69.2147 81.2233L71.0494 80.4272ZM70.6069 82.979C71.3207 82.2652 71.3984 81.2314 71.0494 80.4272L69.2147 81.2233C69.2913 81.3998 69.2348 81.5227 69.1926 81.5648L70.6069 82.979ZM70.3642 84.0922C70.1238 83.8518 70.1238 83.462 70.3642 83.2216L68.95 81.8074C67.9286 82.8289 67.9286 84.485 68.95 85.5064L70.3642 84.0922ZM71.8341 84.5801C71.563 84.8513 71.1233 84.8513 70.8522 84.5801L69.438 85.9943C70.4902 87.0466 72.1961 87.0466 73.2484 85.9943L71.8341 84.5801ZM74.5469 83.8168C73.7749 83.5104 72.8071 83.6071 72.1352 84.279L73.5495 85.6932C73.566 85.6767 73.5913 85.6607 73.6347 85.6534C73.681 85.6456 73.7433 85.6496 73.8092 85.6757L74.5469 83.8168ZM76 85.8788C76 84.8914 75.3309 84.1279 74.5469 83.8168L73.8092 85.6757C73.879 85.7034 73.9326 85.7475 73.9647 85.7905C73.9947 85.8307 74 85.8605 74 85.8788H76ZM76.6858 87C76.3071 87 76 86.6929 76 86.3142H74C74 87.7975 75.2025 89 76.6858 89V87ZM78 86.2575C78 86.6676 77.6676 87 77.2575 87V89C78.7721 89 80 87.7721 80 86.2575H78ZM79.3183 83.7861C78.5969 84.0833 78 84.7937 78 85.6968H80C80 85.7064 79.9959 85.7046 80.0066 85.6898C80.0191 85.6726 80.044 85.6502 80.08 85.6354L79.3183 83.7861ZM81.5864 84.2112C80.9557 83.5805 80.0443 83.4871 79.3183 83.7861L80.08 85.6354C80.1146 85.6211 80.1443 85.6203 80.1615 85.6232C80.1694 85.6245 80.1731 85.6262 80.1736 85.6265C80.1738 85.6266 80.1736 85.6265 80.1731 85.6262C80.1729 85.626 80.1727 85.6258 80.1725 85.6257C80.1723 85.6255 80.1722 85.6254 80.1722 85.6254L81.5864 84.2112ZM83.2042 84.6523C82.8792 84.9772 82.3524 84.9772 82.0275 84.6523L80.6133 86.0665C81.7193 87.1725 83.5124 87.1725 84.6184 86.0665L83.2042 84.6523ZM83.4992 83.2956C83.7924 83.5887 83.7924 84.0641 83.4992 84.3572L84.9134 85.7714C85.9876 84.6972 85.9876 82.9556 84.9134 81.8814L83.4992 83.2956ZM82.74 80.4272C82.3911 81.2314 82.4688 82.2651 83.1826 82.979L84.5968 81.5647C84.5547 81.5226 84.4982 81.3998 84.5748 81.2233L82.74 80.4272ZM84.8324 79C83.8456 79 83.0754 79.6543 82.74 80.4272L84.5748 81.2233C84.6093 81.1437 84.6617 81.0822 84.7137 81.0446C84.763 81.0089 84.8031 81 84.8324 81V79ZM86 78.2575C86 78.6676 85.6676 79 85.2575 79V81C86.7721 81 88 79.7721 88 78.2575H86ZM85.3141 77C85.6929 77 86 77.3071 86 77.6859H88C88 76.2025 86.7975 75 85.3141 75V77ZM82.8167 75.547C83.1278 76.3309 83.8913 77 84.8787 77V75C84.8604 75 84.8306 74.9947 84.7904 74.9647C84.7474 74.9326 84.7033 74.879 84.6756 74.8092L82.8167 75.547ZM83.2789 73.1353C82.6071 73.8072 82.5103 74.7749 82.8167 75.547L84.6756 74.8092C84.6495 74.7433 84.6456 74.6811 84.6534 74.6347C84.6606 74.5914 84.6766 74.5661 84.6932 74.5495L83.2789 73.1353ZM83.5801 71.8522C83.8512 72.1234 83.8512 72.563 83.5801 72.8342L84.9943 74.2484C86.0465 73.1962 86.0465 71.4902 84.9943 70.438L83.5801 71.8522ZM82.2216 71.3643C82.462 71.1239 82.8518 71.1239 83.0922 71.3643L84.5064 69.9501C83.4849 68.9286 81.8288 68.9286 80.8073 69.9501L82.2216 71.3643ZM79.4271 72.0495C80.2313 72.3984 81.2651 72.3208 81.9789 71.6069L80.5647 70.1927C80.5226 70.2348 80.3998 70.2914 80.2233 70.2148L79.4271 72.0495ZM78 69.9572C78 70.9439 78.6543 71.7141 79.4271 72.0495L80.2233 70.2148C80.1436 70.1802 80.0822 70.1279 80.0446 70.0759C80.0089 70.0265 80 69.9864 80 69.9572H78ZM76.5669 67C75.1492 67 74 68.1492 74 69.5669H76C76 69.2538 76.2538 69 76.5669 69V67ZM77.378 69C77.7215 69 78 69.2785 78 69.622H80C80 68.1739 78.8261 67 77.378 67V69Z" fill="black"/>
<circle cx="77" cy="78.0001" r="4.29412" stroke="black" stroke-width="2"/>
<circle cx="76.8824" cy="77.8823" r="1.5" stroke="black" stroke-opacity="0.6" stroke-width="2.17647"/>
<path d="M52.3433 74.377C52.3433 74.8714 52.3988 75.1943 52.5098 75.3457C52.6309 75.4971 52.9588 75.5728 53.4937 75.5728H54.2354L54.3564 75.5576C57.7975 75.5576 59.5181 74.377 59.5181 72.0156V71.7583C59.5181 70.8804 59.2254 70.179 58.6401 69.6543C58.0549 69.1296 57.2173 68.8672 56.1274 68.8672H54.7349L54.3716 68.8975L53.8872 68.9277C53.2918 68.9277 52.8983 69.0135 52.7065 69.1851C52.5148 69.3566 52.4189 69.7502 52.4189 70.3657L52.3887 70.6079C52.3887 70.6886 52.3887 70.7694 52.3887 70.8501L52.3735 71.1074V71.3647L52.3584 71.6069V72.1216L52.3433 72.6211V74.377ZM52.3584 80.7646V82.2026C52.3584 83.8374 52.4341 84.791 52.5854 85.0635C52.7469 85.3359 53.4482 85.4722 54.6895 85.4722H55.7188C59.0488 85.4722 60.7139 84.1502 60.7139 81.5063V81.3398C60.7139 80.1693 60.3153 79.2712 59.5181 78.6455C58.7209 78.0199 57.5503 77.707 56.0063 77.707H55.5674L55.4312 77.7222C53.9074 77.7222 53.0143 77.8281 52.752 78.04C52.4896 78.252 52.3584 79.1602 52.3584 80.7646ZM56.3242 66.5059C58.2718 66.5059 59.7552 66.9246 60.7744 67.7622C61.9248 68.7007 62.5 69.9621 62.5 71.5464C62.5 73.1206 62.0308 74.4274 61.0923 75.4668C60.6281 75.9915 60.396 76.2842 60.396 76.3447C60.396 76.3952 60.507 76.491 60.729 76.6323L61.0166 76.7988C61.834 77.2832 62.5 77.924 63.0146 78.7212C63.5293 79.5083 63.7866 80.4468 63.7866 81.5366V81.8999C63.7765 82.8384 63.5697 83.7214 63.166 84.5488C62.0257 86.8395 59.4373 87.9899 55.4009 88H53.0396C51.9295 88 51.092 87.9243 50.5269 87.7729C49.9618 87.6216 49.6136 87.3239 49.4824 86.8799C49.3613 86.4359 49.3008 84.5488 49.3008 81.2188V75.9058L49.3159 74.8916C49.3159 74.6696 49.3159 74.4476 49.3159 74.2256L49.2554 69.2607V68.6099C49.2554 67.7017 49.5127 67.1366 50.0273 66.9146C50.5521 66.6925 51.6016 66.5815 53.1758 66.5815L53.5239 66.5664C53.756 66.5563 53.9831 66.5513 54.2051 66.5513L55.2495 66.5059H56.3242Z" fill="black"/>
<path d="M99.8975 66.7783C102.784 66.7783 104.862 67.0155 106.134 67.4897C106.416 67.5907 106.689 67.8278 106.951 68.2012C107.214 68.5745 107.345 69.2204 107.345 70.1387C107.345 71.057 107.178 71.6574 106.845 71.9399L106.542 72.1064C106.27 72.1064 105.821 71.7533 105.195 71.0469C103.742 69.4323 101.996 68.625 99.958 68.625C97.9297 68.625 96.305 69.4172 95.084 71.0015C93.873 72.5858 93.2676 74.6948 93.2676 77.3286C93.2676 79.9523 93.9033 82.0916 95.1748 83.7466C96.4463 85.4116 98.1164 86.2441 100.185 86.2441C101.527 86.2441 102.501 85.9616 103.106 85.3965C103.712 84.8314 104.015 83.7113 104.015 82.0361C104.015 81.3903 103.863 80.8252 103.561 80.3408C103.48 80.2096 103.278 79.9927 102.955 79.6899C102.642 79.3771 102.486 79.1803 102.486 79.0996C102.486 78.6657 103.48 78.4487 105.468 78.4487C106.739 78.4487 107.582 78.5194 107.996 78.6606C108.409 78.7918 108.616 79.0441 108.616 79.4175C108.616 79.4881 108.485 79.7202 108.223 80.1138C107.96 80.4972 107.809 80.7546 107.769 80.8857C107.728 81.0169 107.642 81.8848 107.511 83.4893C107.39 85.0837 107.214 86.0423 106.981 86.3652C106.759 86.6882 106.199 86.9858 105.301 87.2583C103.011 87.9647 101.32 88.3179 100.23 88.3179H99.625C98.2122 88.3179 96.8802 88.0757 95.6289 87.5913C94.3776 87.0968 93.313 86.4106 92.4351 85.5327C91.5571 84.6548 90.8507 83.5246 90.3159 82.1421C89.7811 80.7596 89.5137 79.3418 89.5137 77.8887V77.2378C89.5137 75.8149 89.7962 74.4072 90.3613 73.0146C91.4209 70.4111 93.1868 68.6099 95.6592 67.6108C97.0316 67.0558 98.4443 66.7783 99.8975 66.7783Z" fill="black"/>
<path d="M146.48 84.2764C146.48 86.012 146.424 87.0262 146.313 87.3188C146.202 87.6014 145.955 87.7427 145.572 87.7427C144.744 87.7427 143.7 86.9858 142.438 85.4722L141.984 84.9121C141.026 83.6911 140.092 82.4146 139.184 81.0825C138.286 79.7505 137.67 78.8473 137.337 78.373C134.229 74.0439 132.539 71.8794 132.267 71.8794C132.055 71.8794 131.949 73.6504 131.949 77.1924C131.949 80.7344 132.095 83.237 132.388 84.7002C132.489 85.2249 132.706 85.7396 133.039 86.2441C133.382 86.7386 133.553 87.0716 133.553 87.2432C133.553 87.6771 132.529 87.894 130.48 87.894H129.784C128.351 87.894 127.635 87.7124 127.635 87.3491C127.635 86.9858 127.943 86.6326 128.558 86.2896C129.184 85.9364 129.577 85.4621 129.739 84.8667C129.9 84.2612 129.981 82.1421 129.981 78.5093L130.026 76.2539L130.011 74.0439C130.011 71.8945 129.88 70.4868 129.618 69.8208C129.497 69.508 129.148 69.1346 128.573 68.7007C127.998 68.2567 127.71 67.9943 127.71 67.9136C127.71 67.3787 128.255 67.1113 129.345 67.1113C130.445 67.1113 131.313 67.2425 131.949 67.5049C132.584 67.7673 133.145 68.1305 133.629 68.5947C134.123 69.0589 135.183 70.3758 136.808 72.5454C138.442 74.7049 139.573 76.2236 140.198 77.1016L141.485 78.8574C143.029 80.9665 143.851 82.021 143.952 82.021C144.275 82.021 144.437 80.2601 144.437 76.7383C144.437 73.2165 144.366 71.0923 144.225 70.3657C144.093 69.6392 143.806 69.0387 143.362 68.5645C142.928 68.0801 142.711 67.8177 142.711 67.7773C142.711 67.2829 143.251 67.0356 144.331 67.0356H145.769C147.05 67.0356 147.898 67.1315 148.312 67.3232C148.554 67.4342 148.675 67.6512 148.675 67.9741C148.675 68.0044 148.291 68.3979 147.524 69.1548C147.111 69.5584 146.838 70.0731 146.707 70.6987C146.576 71.3244 146.51 73.5041 146.51 77.2378L146.48 80.1895V84.2764ZM161.617 66.7632H162.131C162.838 66.7632 163.65 66.854 164.568 67.0356C165.487 67.2072 166.208 67.3081 166.733 67.3384C167.258 67.3687 167.671 67.4696 167.974 67.6411C168.559 67.9741 168.852 68.8369 168.852 70.2295C168.852 71.6221 168.59 72.3184 168.065 72.3184C167.893 72.3184 167.47 71.9349 166.793 71.168C166.117 70.391 165.472 69.8359 164.856 69.5029C163.766 68.9176 162.545 68.625 161.193 68.625C160.416 68.625 159.634 68.8369 158.847 69.2607C156.475 70.5221 155.29 73.2669 155.29 77.4951C155.3 80.1188 155.91 82.238 157.121 83.8525C158.332 85.4671 160.017 86.2744 162.177 86.2744C164.023 86.2744 165.588 85.6639 166.869 84.4429C167.666 83.686 168.176 83.3076 168.398 83.3076C168.822 83.3076 169.034 83.6154 169.034 84.231C169.034 84.5438 168.837 85.0332 168.443 85.6992C168.05 86.3652 167.611 86.8345 167.126 87.1069C165.764 87.8638 163.993 88.2422 161.813 88.2422H161.284C160.063 88.2422 158.826 88.0202 157.575 87.5762C155.042 86.6781 153.266 84.902 152.247 82.248C151.722 80.8656 151.46 79.3569 151.46 77.7222C151.46 76.0773 151.722 74.5687 152.247 73.1963C153.307 70.4111 155.103 68.519 157.636 67.52C158.917 67.0155 160.244 66.7632 161.617 66.7632Z" fill="black"/>
</g>
<defs>
<filter id="filter0_d_12_87" x="32" y="11" width="125.5" height="55.5004" filterUnits="userSpaceOnUse" color-interpolation-filters="sRGB">
<feFlood flood-opacity="0" result="BackgroundImageFix"/>
<feColorMatrix in="SourceAlpha" type="matrix" values="0 0 0 0 0 0 0 0 0 0 0 0 0 0 0 0 0 0 127 0" result="hardAlpha"/>
<feOffset dy="4"/>
<feGaussianBlur stdDeviation="2"/>
<feComposite in2="hardAlpha" operator="out"/>
<feColorMatrix type="matrix" values="0 0 0 0 0 0 0 0 0 0 0 0 0 0 0 0 0 0 0.45 0"/>
<feBlend mode="normal" in2="BackgroundImageFix" result="effect1_dropShadow_12_87"/>
<feBlend mode="normal" in="SourceGraphic" in2="effect1_dropShadow_12_87" result="shape"/>
</filter>
<filter id="filter1_d_12_87" x="6" y="66.5059" width="180.137" height="25.4941" filterUnits="userSpaceOnUse" color-interpolation-filters="sRGB">
<feFlood flood-opacity="0" result="BackgroundImageFix"/>
<feColorMatrix in="SourceAlpha" type="matrix" values="0 0 0 0 0 0 0 0 0 0 0 0 0 0 0 0 0 0 127 0" result="hardAlpha"/>
<feOffset dy="2"/>
<feGaussianBlur stdDeviation="0.5"/>
<feComposite in2="hardAlpha" operator="out"/>
<feColorMatrix type="matrix" values="0 0 0 0 0 0 0 0 0 0 0 0 0 0 0 0 0 0 0.4 0"/>
<feBlend mode="normal" in2="BackgroundImageFix" result="effect1_dropShadow_12_87"/>
<feBlend mode="normal" in="SourceGraphic" in2="effect1_dropShadow_12_87" result="shape"/>
</filter>
<radialGradient id="paint0_radial_12_87" cx="0" cy="0" r="1" gradientUnits="userSpaceOnUse" gradientTransform="translate(131 53.5) rotate(-156.631) scale(88.2383 197.973)">
<stop stop-color="#1125DB" stop-opacity="0.83"/>
<stop offset="0.747322" stop-color="#3ACE51"/>
</radialGradient>
</defs>
</svg>
