<svg width="998" height="668" viewBox="0 0 998 668" fill="none" xmlns="http://www.w3.org/2000/svg">
<path d="M507.726 121.5C328.226 109 263.726 286.5 514.226 303.5L507.726 121.5Z" fill="#73C1F1"/>
<path d="M500.226 117C678.226 117 727.726 276.5 500.226 297V117Z" fill="#00ACEE"/>
<circle cx="552.5" cy="206.5" r="24.5" fill="black"/>
<path d="M481 206.5C481 220.031 470.031 231 456.5 231C442.969 231 432 220.031 432 206.5C432 192.969 442.969 182 456.5 182C470.031 182 481 192.969 481 206.5Z" fill="black"/>
<path fill-rule="evenodd" clip-rule="evenodd" d="M511 81.5757C518.185 77.3051 523 69.4649 523 60.5C523 46.969 512.031 36 498.5 36C484.969 36 474 46.969 474 60.5C474 70.2734 479.723 78.7102 488 82.6423V109.606C451.311 111.965 416.157 117.331 389.057 130.482C373.889 137.843 360.404 148.032 350.779 162.235C341.054 176.586 336.226 193.631 336.226 213C336.226 252.525 362.685 277.242 393.624 290.95C424.194 304.495 462.991 309.5 499.226 309.5C535.521 309.5 574.312 304.355 604.866 290.746C635.516 277.094 661.888 252.632 662.223 213.751C663.5 193.623 658.455 176.087 647.871 161.618C637.461 147.386 622.757 137.557 607.092 130.571C579.18 118.123 543.827 112.838 511 109.907V81.5757ZM641.226 213C641.226 268.5 568.814 288.5 499.226 288.5C429.638 288.5 357.226 269 357.226 213C357.226 150 419.226 134 499.226 130C570.226 135.5 645.726 149.5 641.226 213Z" fill="black"/>
<path d="M656 493V394C656 371.356 637.644 353 615 353H383C360.356 353 342 371.356 342 394V493" stroke="black" stroke-width="24"/>
<path d="M500.136 305.56C385.636 267.06 366.636 554.06 500.136 530.56V305.56Z" fill="#73C1F1"/>
<path d="M500 305.5C614.5 267 633.5 554 500 530.5V305.5Z" fill="#00ACEE"/>
<path d="M529 305H469C436.415 305 410 331.415 410 364V471C410 503.585 436.415 530 469 530H529C561.585 530 588 503.585 588 471V364C588 331.415 561.585 305 529 305Z" stroke="black" stroke-width="24"/>
<rect x="469" y="369" width="60" height="95" rx="30" stroke="black" stroke-width="20"/>
<path d="M698 517.5C698 506.228 693.522 495.418 685.552 487.448C677.582 479.478 666.772 475 655.5 475C644.228 475 633.418 479.478 625.448 487.448C617.478 495.418 613 506.228 613 517.5L633.544 517.5C633.544 511.677 635.857 506.092 639.975 501.975C644.092 497.857 649.677 495.544 655.5 495.544C661.323 495.544 666.908 497.857 671.025 501.975C675.143 506.092 677.456 511.677 677.456 517.5H698Z" fill="black"/>
<path d="M384 517.5C384 506.228 379.522 495.418 371.552 487.448C363.582 479.478 352.772 475 341.5 475C330.228 475 319.418 479.478 311.448 487.448C303.478 495.418 299 506.228 299 517.5L319.544 517.5C319.544 511.677 321.857 506.092 325.975 501.975C330.092 497.857 335.677 495.544 341.5 495.544C347.323 495.544 352.908 497.857 357.025 501.975C361.143 506.092 363.456 511.677 363.456 517.5H384Z" fill="black"/>
<mask id="path-13-outside-1_24_8" maskUnits="userSpaceOnUse" x="9" y="553" width="979" height="86" fill="black">
<rect fill="white" x="9" y="553" width="979" height="86"/>
<path d="M40.8266 562.486L41.2673 562.189H64.9188L88.7171 562.288L90.7737 562.486C97.2374 563.145 102.428 564.629 106.345 566.938C110.263 569.048 112.662 571.752 113.544 575.05C113.935 576.831 113.838 578.611 113.25 580.392C111.585 585.075 106.835 589.197 99.0003 592.758C95.7684 594.143 92.3896 595.265 88.864 596.122C88.0805 596.386 87.6398 596.518 87.5418 596.518L88.7171 597.309C90.7737 598.43 92.5366 599.914 94.0056 601.761C95.0829 603.476 95.6705 605.191 95.7684 606.905C95.7684 608.291 95.4746 610.632 94.887 613.93C94.3973 617.227 94.1525 619.799 94.1525 621.646C94.1525 623.229 94.2504 624.251 94.4463 624.713C95.0339 626.164 96.5519 627.021 99.0003 627.285C100.273 627.285 101.302 627.054 102.085 626.593C103.554 625.933 104.925 624.119 106.199 621.151C106.59 620.162 107.129 619.602 107.814 619.47C108.206 619.404 109.186 619.371 110.753 619.371C112.809 619.371 114.033 619.536 114.425 619.865C114.817 620.195 114.719 620.921 114.131 622.042C111.683 626.922 107.863 630.055 102.673 631.44C101.987 631.638 101.302 631.77 100.616 631.836C99.9307 631.902 98.7065 631.935 96.9436 631.935C86.8563 631.605 80.3926 629.462 77.5524 625.504C76.7689 624.515 76.3282 623.229 76.2303 621.646C76.2303 620.393 76.2793 619.602 76.3772 619.272C76.8669 617.755 77.5524 615.71 78.4338 613.138C80.0988 608.653 80.8333 605.817 80.6374 604.63C80.2457 601.53 78.189 599.519 74.4675 598.595L73.4391 598.299H64.7719H56.2515L56.1046 598.694C56.1046 598.562 54.5376 602.783 51.4037 611.357C48.3677 619.602 46.8986 623.724 46.9966 623.724C47.4862 624.053 50.4733 624.218 55.9577 624.218H58.8957L59.4833 624.515C59.7771 624.779 59.924 625.043 59.924 625.307C59.924 626.362 59.4344 627.648 58.455 629.165C58.1612 629.561 57.1819 629.725 55.517 629.66C55.1252 629.66 54.2928 629.66 53.0196 629.66C38.3293 629.396 26.8708 629.429 18.6443 629.758H17.0283L16.5876 629.462C16.1959 629.198 16 628.934 16 628.67C16 627.615 16.4897 626.329 17.469 624.812C18.6443 624.416 20.505 624.218 23.0514 624.218C27.4584 624.152 29.9558 624.02 30.5434 623.823C31.0331 623.625 31.4248 623.229 31.7186 622.635C32.4042 621.316 35.783 612.413 41.855 595.924C48.6125 577.721 51.9913 568.553 51.9913 568.421C51.9913 568.224 51.8933 568.125 51.6975 568.125C51.1099 567.993 48.8084 567.861 44.793 567.729C41.3653 567.729 39.4555 567.498 39.0638 567.036C38.9659 566.839 39.1128 566.08 39.5045 564.761C39.9942 563.508 40.4349 562.749 40.8266 562.486ZM86.5135 567.927C85.9259 567.861 82.9389 567.795 77.5524 567.729C72.3618 567.729 69.3259 567.795 68.4444 567.927C67.9548 568.059 67.6609 568.191 67.563 568.323L58.0143 593.649H66.5347C73.1943 593.583 77.5524 593.385 79.6091 593.055C85.2893 592.198 89.4516 590.318 92.0958 587.416C93.369 585.965 94.5932 583.591 95.7684 580.293C96.6498 577.853 97.0905 575.973 97.0905 574.654C97.0905 572.873 96.3071 571.455 94.7401 570.4C93.7607 569.741 92.8793 569.312 92.0958 569.114C90.8227 568.652 88.9619 568.257 86.5135 567.927Z"/>
<path d="M194.857 560.111C197.501 559.913 200.194 559.979 202.937 560.309C212.338 561.233 219.635 564.365 224.825 569.708C226.588 571.554 227.812 573.236 228.498 574.753C230.261 577.919 231.191 581.315 231.289 584.943C231.387 590.021 230.114 595.133 227.469 600.277C223.846 607.598 217.823 614.127 209.4 619.865C201.761 624.944 193.535 628.439 184.721 630.352C171.989 633.188 161.02 632.364 151.814 627.879C150.443 627.219 149.17 626.494 147.995 625.702C139.964 620.294 136.487 612.841 137.565 603.344C138.25 597.474 140.748 591.604 145.057 585.734C151.325 577.358 159.894 570.796 170.765 566.047C178.502 562.618 186.532 560.639 194.857 560.111ZM198.823 565.157C194.22 564.695 189.519 565.289 184.721 566.938C176.2 569.642 169.296 574.621 164.007 581.876C161.363 585.503 159.11 589.856 157.25 594.935C155.193 600.739 154.165 605.619 154.165 609.577C154.165 613.666 155.095 617.062 156.956 619.766C160.286 624.383 165.427 626.758 172.381 626.889C173.262 626.889 174.193 626.856 175.172 626.791C183.79 626.131 191.674 622.537 198.823 616.007C201.468 613.633 203.769 610.995 205.728 608.093C210.429 601.036 213.514 593.616 214.983 585.833C215.374 583.327 215.374 580.788 214.983 578.216C214.983 578.084 214.983 577.952 214.983 577.82C213.905 573.863 211.898 570.829 208.96 568.718C206.315 566.74 202.937 565.552 198.823 565.157Z"/>
<path d="M260.611 562.486L261.052 562.189H287.2C304.927 562.189 314.133 562.222 314.818 562.288C319.715 562.618 323.877 563.574 327.305 565.157C329.46 566.08 331.222 567.234 332.594 568.619C334.063 570.268 335.042 571.851 335.532 573.368C335.923 574.885 335.923 576.534 335.532 578.315C333.965 583.855 328.676 588.274 319.666 591.571C319.176 591.769 318.687 591.934 318.197 592.066C316.336 592.725 313.79 593.418 310.558 594.143C309.579 594.209 309.089 594.308 309.089 594.44C310.362 594.44 312.125 594.77 314.378 595.43C321.723 597.342 326.081 600.64 327.452 605.323C327.648 606.114 327.746 606.938 327.746 607.796C327.746 612.479 324.661 616.996 318.491 621.349C318.295 621.481 318.099 621.613 317.903 621.745C312.517 625.373 306.102 627.813 298.659 629.066C296.308 629.462 292.048 629.66 285.878 629.66C286.27 629.66 279.415 629.693 265.312 629.758C246.312 629.758 236.617 629.66 236.225 629.462C236.127 629.462 236.029 629.33 235.931 629.066C235.735 628.868 235.882 628.11 236.372 626.791C236.862 625.406 237.253 624.647 237.547 624.515L237.988 624.218H242.689C247.194 624.152 249.74 624.02 250.328 623.823C250.817 623.625 251.209 623.229 251.503 622.635C252.189 621.316 255.567 612.413 261.639 595.924C268.397 577.721 271.776 568.553 271.776 568.421C271.776 568.224 271.678 568.125 271.482 568.125C270.894 567.993 268.593 567.861 264.577 567.729C261.15 567.729 259.24 567.498 258.848 567.036C258.75 566.839 258.897 566.08 259.289 564.761C259.779 563.508 260.219 562.749 260.611 562.486ZM311.439 567.828C310.95 567.762 307.13 567.729 299.981 567.729C292.734 567.729 288.669 567.795 287.788 567.927C287.298 568.059 287.005 568.191 286.907 568.323L282.206 580.392L277.799 592.264H288.082C295.035 592.264 298.953 592.198 299.834 592.066C305.906 591.208 310.852 588.834 314.671 584.943C318.883 580.722 320.156 576.633 318.491 572.675C317.414 569.971 315.063 568.356 311.439 567.828ZM302.185 597.012C301.597 596.946 297.043 596.913 288.523 596.913H276.036L271.188 610.269C267.858 619.107 266.193 623.658 266.193 623.922C266.193 624.053 266.585 624.119 267.369 624.119C267.662 624.185 271.776 624.218 279.708 624.218L291.02 624.119L292.342 623.922C299.393 622.537 304.633 619.503 308.061 614.82C309.53 612.775 310.46 610.599 310.852 608.291C311.537 603.608 309.921 600.244 306.004 598.2C304.829 597.606 303.556 597.21 302.185 597.012Z"/>
<path d="M410.908 560.111C413.552 559.913 416.245 559.979 418.987 560.309C428.389 561.233 435.685 564.365 440.876 569.708C442.639 571.554 443.863 573.236 444.549 574.753C446.311 577.919 447.242 581.315 447.34 584.943C447.438 590.021 446.165 595.133 443.52 600.277C439.897 607.598 433.874 614.127 425.451 619.865C417.812 624.944 409.586 628.439 400.771 630.352C388.04 633.188 377.071 632.364 367.865 627.879C366.494 627.219 365.221 626.494 364.046 625.702C356.015 620.294 352.538 612.841 353.616 603.344C354.301 597.474 356.798 591.604 361.108 585.734C367.376 577.358 375.945 570.796 386.816 566.047C394.553 562.618 402.583 560.639 410.908 560.111ZM414.874 565.157C410.271 564.695 405.57 565.289 400.771 566.938C392.251 569.642 385.347 574.621 380.058 581.876C377.414 585.503 375.161 589.856 373.301 594.935C371.244 600.739 370.216 605.619 370.216 609.577C370.216 613.666 371.146 617.062 373.007 619.766C376.337 624.383 381.478 626.758 388.432 626.889C389.313 626.889 390.243 626.856 391.223 626.791C399.841 626.131 407.725 622.537 414.874 616.007C417.518 613.633 419.82 610.995 421.779 608.093C426.48 601.036 429.565 593.616 431.034 585.833C431.425 583.327 431.425 580.788 431.034 578.216C431.034 578.084 431.034 577.952 431.034 577.82C429.956 573.863 427.949 570.829 425.011 568.718C422.366 566.74 418.988 565.552 414.874 565.157Z"/>
<path d="M524.405 560.111L527.49 560.012H527.637C536.256 560.012 542.964 562.123 547.763 566.344C548.449 567.069 548.84 567.432 548.938 567.432L554.521 563.772L560.103 560.012H561.278C562.551 560.012 563.286 560.21 563.482 560.606C563.58 560.738 561.964 565.421 558.634 574.654C555.108 584.151 553.345 588.801 553.345 588.603C553.149 588.999 551.778 589.197 549.232 589.197H546.147L545.706 588.9C545.315 588.636 545.217 588.043 545.413 587.119C546.196 583.69 546.343 580.425 545.853 577.325C544.776 570.862 541.005 567.036 534.542 565.849C533.66 565.717 532.289 565.651 530.428 565.651C526.805 565.585 522.985 565.981 518.97 566.839C514.171 567.894 509.862 569.477 506.043 571.587C497.326 576.072 490.863 583.228 486.651 593.055C484.007 599.585 482.685 604.96 482.685 609.181C482.685 612.215 483.273 614.754 484.448 616.799C486.994 621.283 491.793 624.218 498.844 625.603C499.53 625.735 500.215 625.834 500.901 625.9C509.03 627.087 516.032 626.065 521.908 622.833C523.965 621.712 525.434 620.426 526.315 618.975C528.862 612.116 530.135 608.752 530.135 608.884C530.135 608.752 529.302 608.62 527.637 608.488L520.733 608.291C517.207 608.291 515.248 608.225 514.857 608.093C514.269 607.961 513.975 607.664 513.975 607.202L515.444 603.344C515.836 602.948 516.864 602.783 518.529 602.849C519.019 602.849 520.047 602.849 521.614 602.849C537.48 603.113 548.498 603.08 554.667 602.75H555.99L556.43 603.047C556.822 603.311 557.018 603.542 557.018 603.74L555.696 607.598C555.5 608.06 554.472 608.291 552.611 608.291C549.477 608.291 547.518 608.389 546.735 608.587C546.539 608.653 546.294 608.785 546 608.983C545.902 609.115 544.58 612.512 542.034 619.173C539.585 625.834 538.263 629.231 538.067 629.363C537.676 629.758 537.235 629.89 536.745 629.758C535.57 629.495 533.611 628.373 530.869 626.395C530.477 626.131 530.184 625.9 529.988 625.702L529.106 625.01L527.931 625.801C522.741 628.901 516.13 630.847 508.099 631.638C504.769 631.968 500.999 632.001 496.788 631.737C488.561 630.814 481.901 628.538 476.809 624.911C474.458 623.328 472.5 621.481 470.933 619.371C468.582 616.403 467.113 613.072 466.526 609.379C466.134 607.73 466.085 605.422 466.379 602.454C466.477 602.124 466.526 601.86 466.526 601.662C467.701 594.275 471.52 587.251 477.984 580.59C479.943 578.743 481.657 577.226 483.126 576.039C485.77 573.863 489.051 571.653 492.968 569.411C502.958 563.937 513.437 560.837 524.405 560.111Z"/>
<path d="M590.426 562.683C590.622 562.552 603.304 562.486 628.474 562.486H666.081L666.669 562.782C666.962 563.046 667.109 563.31 667.109 563.574L662.261 586.625C661.968 586.823 661.772 586.954 661.674 587.02C661.478 587.152 660.401 587.218 658.442 587.218C656.385 587.218 655.21 587.152 654.916 587.02C654.427 586.823 654.28 585.932 654.476 584.349C655.063 581.645 655.357 579.337 655.357 577.424C655.357 574.588 654.818 572.643 653.741 571.587C652.664 570.4 650.705 569.51 647.865 568.916C644.633 568.323 638.169 568.026 628.474 568.026C621.422 568.092 617.75 568.257 617.456 568.52C617.358 568.586 615.791 572.511 612.755 580.293L608.495 591.967C608.495 592.033 610.649 592.066 614.959 592.066C620.345 592 623.822 591.769 625.389 591.373C628.327 590.714 630.481 589.362 631.852 587.317C632.538 586.328 633.273 584.844 634.056 582.865C634.546 581.612 634.937 580.92 635.231 580.788L635.672 580.491H638.61C640.96 580.491 642.332 580.722 642.723 581.184C642.821 581.447 641.254 586.031 638.022 594.935C634.595 603.971 632.832 608.521 632.734 608.587C632.538 608.983 631.216 609.181 628.768 609.181H625.829L625.242 608.884C624.85 608.554 624.899 607.631 625.389 606.114C626.074 604.004 626.417 602.355 626.417 601.168L626.123 599.881C625.634 598.958 624.409 598.331 622.451 598.002C620.786 597.738 617.309 597.606 612.021 597.606H606.438L601.59 610.566C598.359 619.338 596.743 623.757 596.743 623.823C596.743 624.02 597.036 624.119 597.624 624.119H619.513C627.445 623.724 633.566 622.306 637.876 619.865C642.087 617.425 646.445 612.149 650.95 604.036C651.538 602.981 652.027 602.322 652.419 602.058L652.86 601.761H655.945H659.03L659.47 602.058C659.862 602.322 659.862 602.849 659.47 603.641C658.981 604.696 656.63 608.851 652.419 616.106C647.326 624.944 644.78 629.33 644.78 629.264C644.584 629.528 643.066 629.66 640.226 629.66C637.092 629.725 625.389 629.758 605.116 629.758H566.481L565.893 629.462C565.599 629.132 565.452 628.868 565.452 628.67C565.452 627.615 565.942 626.329 566.921 624.812C568.097 624.416 569.957 624.218 572.504 624.218C576.911 624.152 579.408 624.02 579.996 623.823C580.485 623.625 580.877 623.229 581.171 622.635C581.856 621.382 585.235 612.446 591.307 595.825C598.065 577.622 601.395 568.52 601.297 568.52C600.807 568.191 597.82 568.026 592.336 568.026H589.397L588.81 567.729C588.32 567.333 588.369 566.41 588.957 564.959C589.544 563.574 590.034 562.815 590.426 562.683Z"/>
<path d="M689.84 562.486L690.281 562.189H704.237H718.193L718.633 562.486C718.927 562.618 719.172 562.848 719.368 563.178L731.708 586.724C739.934 602.223 744.047 610.005 744.047 610.071C744.047 610.137 744.145 610.038 744.341 609.774C744.733 608.917 747.132 602.553 751.54 590.681C756.534 577.226 758.934 570.268 758.738 569.807C758.738 569.741 758.591 569.609 758.297 569.411C757.22 568.29 754.233 567.729 749.336 567.729C747.965 567.729 747.132 567.498 746.839 567.036C746.741 566.773 746.888 566.014 747.279 564.761C747.769 563.508 748.21 562.749 748.601 562.486L749.042 562.189H750.658C756.436 562.453 764.075 562.519 773.575 562.387L782.095 562.189H783.271L783.711 562.486C784.103 562.749 784.299 562.98 784.299 563.178L782.977 567.135C782.585 567.531 781.41 567.729 779.451 567.729C776.219 567.795 773.477 568.191 771.225 568.916C769.756 569.378 768.678 570.037 767.993 570.895C767.699 571.225 764.026 580.953 756.975 600.079C749.728 619.602 746.104 629.264 746.104 629.066C746.006 629.198 745.81 629.363 745.517 629.561C745.223 629.693 743.999 629.758 741.844 629.758H738.612L738.171 629.462C737.878 629.33 733.03 620.36 723.628 602.553C713.639 583.558 708.742 574.225 708.938 574.555L708.203 573.17L699.242 597.012C693.366 612.907 690.428 621.02 690.428 621.349C690.428 621.811 690.477 622.075 690.575 622.141C691.358 623.526 694.492 624.218 699.977 624.218H701.446L702.033 624.515C702.327 624.779 702.474 625.043 702.474 625.307C702.474 626.362 701.984 627.648 701.005 629.165C700.711 629.561 699.83 629.725 698.361 629.66C697.969 629.66 697.234 629.66 696.157 629.66C683.915 629.396 674.317 629.429 667.364 629.758H666.042L665.601 629.462C665.209 629.198 665.014 628.934 665.014 628.67C665.014 627.615 665.503 626.329 666.483 624.812C666.678 624.416 667.462 624.218 668.833 624.218C673.24 624.218 676.57 623.724 678.822 622.734C679.802 622.405 680.585 621.91 681.173 621.25C681.467 620.921 684.894 611.951 691.456 594.341C697.92 576.732 701.103 567.927 701.005 567.927L694.982 567.729C690.771 567.729 688.469 567.498 688.077 567.036C687.979 566.839 688.126 566.08 688.518 564.761C689.008 563.508 689.448 562.749 689.84 562.486Z"/>
<path d="M846.904 560.111L849.989 560.012H850.136C858.754 560.012 865.463 562.123 870.261 566.344C870.947 567.069 871.339 567.432 871.437 567.432L877.019 563.772L882.601 560.012H883.776C885.05 560.012 885.784 560.21 885.98 560.606C886.078 560.738 884.462 565.421 881.132 574.654C877.607 584.151 875.844 588.801 875.844 588.603C875.648 588.999 874.277 589.197 871.73 589.197H868.645L868.205 588.9C867.813 588.636 867.715 588.043 867.911 587.119C868.694 583.69 868.841 580.425 868.352 577.325C867.274 570.862 863.504 567.036 857.04 565.849C856.159 565.717 854.788 565.651 852.927 565.651C849.303 565.585 845.484 565.981 841.468 566.839C836.67 567.894 832.36 569.477 828.541 571.587C819.825 576.072 813.361 583.228 809.15 593.055C806.505 599.585 805.183 604.96 805.183 609.181C805.183 612.215 805.771 614.754 806.946 616.799C809.492 621.283 814.291 624.218 821.343 625.603C822.028 625.735 822.714 625.834 823.399 625.9C832.703 627.219 841.175 625.373 848.814 620.36C854.494 616.403 858.607 611.588 861.153 605.916C861.643 604.795 862.133 604.201 862.622 604.135C862.916 604.069 863.896 604.036 865.56 604.036C868.009 604.036 869.38 604.234 869.674 604.63C869.772 604.894 869.674 605.356 869.38 606.015C866.148 613.93 859.733 620.426 850.136 625.504C847.393 626.955 844.504 628.176 841.468 629.165C835.396 631.078 829.324 632.001 823.252 631.935C819.041 631.869 814.928 631.275 810.912 630.154C804.253 628.439 799.062 625.57 795.341 621.547C791.913 618.118 789.807 614.061 789.024 609.379C788.632 607.73 788.583 605.422 788.877 602.454C788.975 602.124 789.024 601.86 789.024 601.662C790.199 594.275 794.019 587.251 800.482 580.59C802.441 578.743 804.155 577.226 805.624 576.039C808.268 573.863 811.549 571.653 815.467 569.411C825.456 563.937 835.935 560.837 846.904 560.111Z"/>
<path d="M904.317 562.683C904.512 562.552 917.195 562.486 942.364 562.486H979.972L980.559 562.782C980.853 563.046 981 563.31 981 563.574L976.152 586.625C975.858 586.823 975.663 586.954 975.565 587.02C975.369 587.152 974.291 587.218 972.333 587.218C970.276 587.218 969.101 587.152 968.807 587.02C968.317 586.823 968.17 585.932 968.366 584.349C968.954 581.645 969.248 579.337 969.248 577.424C969.248 574.588 968.709 572.643 967.632 571.587C966.554 570.4 964.596 569.51 961.756 568.916C958.524 568.323 952.06 568.026 942.364 568.026C935.313 568.092 931.64 568.257 931.347 568.52C931.249 568.586 929.682 572.511 926.646 580.293L922.386 591.967C922.386 592.033 924.54 592.066 928.849 592.066C934.236 592 937.713 591.769 939.279 591.373C942.218 590.714 944.372 589.362 945.743 587.317C946.429 586.328 947.163 584.844 947.947 582.865C948.436 581.612 948.828 580.92 949.122 580.788L949.563 580.491H952.501C954.851 580.491 956.222 580.722 956.614 581.184C956.712 581.447 955.145 586.031 951.913 594.935C948.485 603.971 946.723 608.521 946.625 608.587C946.429 608.983 945.107 609.181 942.658 609.181H939.72L939.133 608.884C938.741 608.554 938.79 607.631 939.279 606.114C939.965 604.004 940.308 602.355 940.308 601.168L940.014 599.881C939.524 598.958 938.3 598.331 936.341 598.002C934.676 597.738 931.2 597.606 925.911 597.606H920.329L915.481 610.566C912.249 619.338 910.633 623.757 910.633 623.823C910.633 624.02 910.927 624.119 911.515 624.119H933.403C941.336 623.724 947.457 622.306 951.766 619.865C955.977 617.425 960.336 612.149 964.841 604.036C965.428 602.981 965.918 602.322 966.31 602.058L966.75 601.761H969.835H972.92L973.361 602.058C973.753 602.322 973.753 602.849 973.361 603.641C972.871 604.696 970.521 608.851 966.31 616.106C961.217 624.944 958.671 629.33 958.671 629.264C958.475 629.528 956.957 629.66 954.117 629.66C950.983 629.725 939.279 629.758 919.007 629.758H880.371L879.784 629.462C879.49 629.132 879.343 628.868 879.343 628.67C879.343 627.615 879.833 626.329 880.812 624.812C881.987 624.416 883.848 624.218 886.394 624.218C890.801 624.152 893.299 624.02 893.886 623.823C894.376 623.625 894.768 623.229 895.062 622.635C895.747 621.382 899.126 612.446 905.198 595.825C911.955 577.622 915.285 568.52 915.187 568.52C914.698 568.191 911.711 568.026 906.226 568.026H903.288L902.701 567.729C902.211 567.333 902.26 566.41 902.847 564.959C903.435 563.574 903.925 562.815 904.317 562.683Z"/>
</mask>
<path d="M40.8266 562.486L41.2673 562.189H64.9188L88.7171 562.288L90.7737 562.486C97.2374 563.145 102.428 564.629 106.345 566.938C110.263 569.048 112.662 571.752 113.544 575.05C113.935 576.831 113.838 578.611 113.25 580.392C111.585 585.075 106.835 589.197 99.0003 592.758C95.7684 594.143 92.3896 595.265 88.864 596.122C88.0805 596.386 87.6398 596.518 87.5418 596.518L88.7171 597.309C90.7737 598.43 92.5366 599.914 94.0056 601.761C95.0829 603.476 95.6705 605.191 95.7684 606.905C95.7684 608.291 95.4746 610.632 94.887 613.93C94.3973 617.227 94.1525 619.799 94.1525 621.646C94.1525 623.229 94.2504 624.251 94.4463 624.713C95.0339 626.164 96.5519 627.021 99.0003 627.285C100.273 627.285 101.302 627.054 102.085 626.593C103.554 625.933 104.925 624.119 106.199 621.151C106.59 620.162 107.129 619.602 107.814 619.47C108.206 619.404 109.186 619.371 110.753 619.371C112.809 619.371 114.033 619.536 114.425 619.865C114.817 620.195 114.719 620.921 114.131 622.042C111.683 626.922 107.863 630.055 102.673 631.44C101.987 631.638 101.302 631.77 100.616 631.836C99.9307 631.902 98.7065 631.935 96.9436 631.935C86.8563 631.605 80.3926 629.462 77.5524 625.504C76.7689 624.515 76.3282 623.229 76.2303 621.646C76.2303 620.393 76.2793 619.602 76.3772 619.272C76.8669 617.755 77.5524 615.71 78.4338 613.138C80.0988 608.653 80.8333 605.817 80.6374 604.63C80.2457 601.53 78.189 599.519 74.4675 598.595L73.4391 598.299H64.7719H56.2515L56.1046 598.694C56.1046 598.562 54.5376 602.783 51.4037 611.357C48.3677 619.602 46.8986 623.724 46.9966 623.724C47.4862 624.053 50.4733 624.218 55.9577 624.218H58.8957L59.4833 624.515C59.7771 624.779 59.924 625.043 59.924 625.307C59.924 626.362 59.4344 627.648 58.455 629.165C58.1612 629.561 57.1819 629.725 55.517 629.66C55.1252 629.66 54.2928 629.66 53.0196 629.66C38.3293 629.396 26.8708 629.429 18.6443 629.758H17.0283L16.5876 629.462C16.1959 629.198 16 628.934 16 628.67C16 627.615 16.4897 626.329 17.469 624.812C18.6443 624.416 20.505 624.218 23.0514 624.218C27.4584 624.152 29.9558 624.02 30.5434 623.823C31.0331 623.625 31.4248 623.229 31.7186 622.635C32.4042 621.316 35.783 612.413 41.855 595.924C48.6125 577.721 51.9913 568.553 51.9913 568.421C51.9913 568.224 51.8933 568.125 51.6975 568.125C51.1099 567.993 48.8084 567.861 44.793 567.729C41.3653 567.729 39.4555 567.498 39.0638 567.036C38.9659 566.839 39.1128 566.08 39.5045 564.761C39.9942 563.508 40.4349 562.749 40.8266 562.486ZM86.5135 567.927C85.9259 567.861 82.9389 567.795 77.5524 567.729C72.3618 567.729 69.3259 567.795 68.4444 567.927C67.9548 568.059 67.6609 568.191 67.563 568.323L58.0143 593.649H66.5347C73.1943 593.583 77.5524 593.385 79.6091 593.055C85.2893 592.198 89.4516 590.318 92.0958 587.416C93.369 585.965 94.5932 583.591 95.7684 580.293C96.6498 577.853 97.0905 575.973 97.0905 574.654C97.0905 572.873 96.3071 571.455 94.7401 570.4C93.7607 569.741 92.8793 569.312 92.0958 569.114C90.8227 568.652 88.9619 568.257 86.5135 567.927Z" fill="#3685B5" fill-opacity="0.83"/>
<path d="M194.857 560.111C197.501 559.913 200.194 559.979 202.937 560.309C212.338 561.233 219.635 564.365 224.825 569.708C226.588 571.554 227.812 573.236 228.498 574.753C230.261 577.919 231.191 581.315 231.289 584.943C231.387 590.021 230.114 595.133 227.469 600.277C223.846 607.598 217.823 614.127 209.4 619.865C201.761 624.944 193.535 628.439 184.721 630.352C171.989 633.188 161.02 632.364 151.814 627.879C150.443 627.219 149.17 626.494 147.995 625.702C139.964 620.294 136.487 612.841 137.565 603.344C138.25 597.474 140.748 591.604 145.057 585.734C151.325 577.358 159.894 570.796 170.765 566.047C178.502 562.618 186.532 560.639 194.857 560.111ZM198.823 565.157C194.22 564.695 189.519 565.289 184.721 566.938C176.2 569.642 169.296 574.621 164.007 581.876C161.363 585.503 159.11 589.856 157.25 594.935C155.193 600.739 154.165 605.619 154.165 609.577C154.165 613.666 155.095 617.062 156.956 619.766C160.286 624.383 165.427 626.758 172.381 626.889C173.262 626.889 174.193 626.856 175.172 626.791C183.79 626.131 191.674 622.537 198.823 616.007C201.468 613.633 203.769 610.995 205.728 608.093C210.429 601.036 213.514 593.616 214.983 585.833C215.374 583.327 215.374 580.788 214.983 578.216C214.983 578.084 214.983 577.952 214.983 577.82C213.905 573.863 211.898 570.829 208.96 568.718C206.315 566.74 202.937 565.552 198.823 565.157Z" fill="#3685B5" fill-opacity="0.83"/>
<path d="M260.611 562.486L261.052 562.189H287.2C304.927 562.189 314.133 562.222 314.818 562.288C319.715 562.618 323.877 563.574 327.305 565.157C329.46 566.08 331.222 567.234 332.594 568.619C334.063 570.268 335.042 571.851 335.532 573.368C335.923 574.885 335.923 576.534 335.532 578.315C333.965 583.855 328.676 588.274 319.666 591.571C319.176 591.769 318.687 591.934 318.197 592.066C316.336 592.725 313.79 593.418 310.558 594.143C309.579 594.209 309.089 594.308 309.089 594.44C310.362 594.44 312.125 594.77 314.378 595.43C321.723 597.342 326.081 600.64 327.452 605.323C327.648 606.114 327.746 606.938 327.746 607.796C327.746 612.479 324.661 616.996 318.491 621.349C318.295 621.481 318.099 621.613 317.903 621.745C312.517 625.373 306.102 627.813 298.659 629.066C296.308 629.462 292.048 629.66 285.878 629.66C286.27 629.66 279.415 629.693 265.312 629.758C246.312 629.758 236.617 629.66 236.225 629.462C236.127 629.462 236.029 629.33 235.931 629.066C235.735 628.868 235.882 628.11 236.372 626.791C236.862 625.406 237.253 624.647 237.547 624.515L237.988 624.218H242.689C247.194 624.152 249.74 624.02 250.328 623.823C250.817 623.625 251.209 623.229 251.503 622.635C252.189 621.316 255.567 612.413 261.639 595.924C268.397 577.721 271.776 568.553 271.776 568.421C271.776 568.224 271.678 568.125 271.482 568.125C270.894 567.993 268.593 567.861 264.577 567.729C261.15 567.729 259.24 567.498 258.848 567.036C258.75 566.839 258.897 566.08 259.289 564.761C259.779 563.508 260.219 562.749 260.611 562.486ZM311.439 567.828C310.95 567.762 307.13 567.729 299.981 567.729C292.734 567.729 288.669 567.795 287.788 567.927C287.298 568.059 287.005 568.191 286.907 568.323L282.206 580.392L277.799 592.264H288.082C295.035 592.264 298.953 592.198 299.834 592.066C305.906 591.208 310.852 588.834 314.671 584.943C318.883 580.722 320.156 576.633 318.491 572.675C317.414 569.971 315.063 568.356 311.439 567.828ZM302.185 597.012C301.597 596.946 297.043 596.913 288.523 596.913H276.036L271.188 610.269C267.858 619.107 266.193 623.658 266.193 623.922C266.193 624.053 266.585 624.119 267.369 624.119C267.662 624.185 271.776 624.218 279.708 624.218L291.02 624.119L292.342 623.922C299.393 622.537 304.633 619.503 308.061 614.82C309.53 612.775 310.46 610.599 310.852 608.291C311.537 603.608 309.921 600.244 306.004 598.2C304.829 597.606 303.556 597.21 302.185 597.012Z" fill="#3685B5" fill-opacity="0.83"/>
<path d="M410.908 560.111C413.552 559.913 416.245 559.979 418.987 560.309C428.389 561.233 435.685 564.365 440.876 569.708C442.639 571.554 443.863 573.236 444.549 574.753C446.311 577.919 447.242 581.315 447.34 584.943C447.438 590.021 446.165 595.133 443.52 600.277C439.897 607.598 433.874 614.127 425.451 619.865C417.812 624.944 409.586 628.439 400.771 630.352C388.04 633.188 377.071 632.364 367.865 627.879C366.494 627.219 365.221 626.494 364.046 625.702C356.015 620.294 352.538 612.841 353.616 603.344C354.301 597.474 356.798 591.604 361.108 585.734C367.376 577.358 375.945 570.796 386.816 566.047C394.553 562.618 402.583 560.639 410.908 560.111ZM414.874 565.157C410.271 564.695 405.57 565.289 400.771 566.938C392.251 569.642 385.347 574.621 380.058 581.876C377.414 585.503 375.161 589.856 373.301 594.935C371.244 600.739 370.216 605.619 370.216 609.577C370.216 613.666 371.146 617.062 373.007 619.766C376.337 624.383 381.478 626.758 388.432 626.889C389.313 626.889 390.243 626.856 391.223 626.791C399.841 626.131 407.725 622.537 414.874 616.007C417.518 613.633 419.82 610.995 421.779 608.093C426.48 601.036 429.565 593.616 431.034 585.833C431.425 583.327 431.425 580.788 431.034 578.216C431.034 578.084 431.034 577.952 431.034 577.82C429.956 573.863 427.949 570.829 425.011 568.718C422.366 566.74 418.988 565.552 414.874 565.157Z" fill="#3685B5" fill-opacity="0.83"/>
<path d="M524.405 560.111L527.49 560.012H527.637C536.256 560.012 542.964 562.123 547.763 566.344C548.449 567.069 548.84 567.432 548.938 567.432L554.521 563.772L560.103 560.012H561.278C562.551 560.012 563.286 560.21 563.482 560.606C563.58 560.738 561.964 565.421 558.634 574.654C555.108 584.151 553.345 588.801 553.345 588.603C553.149 588.999 551.778 589.197 549.232 589.197H546.147L545.706 588.9C545.315 588.636 545.217 588.043 545.413 587.119C546.196 583.69 546.343 580.425 545.853 577.325C544.776 570.862 541.005 567.036 534.542 565.849C533.66 565.717 532.289 565.651 530.428 565.651C526.805 565.585 522.985 565.981 518.97 566.839C514.171 567.894 509.862 569.477 506.043 571.587C497.326 576.072 490.863 583.228 486.651 593.055C484.007 599.585 482.685 604.96 482.685 609.181C482.685 612.215 483.273 614.754 484.448 616.799C486.994 621.283 491.793 624.218 498.844 625.603C499.53 625.735 500.215 625.834 500.901 625.9C509.03 627.087 516.032 626.065 521.908 622.833C523.965 621.712 525.434 620.426 526.315 618.975C528.862 612.116 530.135 608.752 530.135 608.884C530.135 608.752 529.302 608.62 527.637 608.488L520.733 608.291C517.207 608.291 515.248 608.225 514.857 608.093C514.269 607.961 513.975 607.664 513.975 607.202L515.444 603.344C515.836 602.948 516.864 602.783 518.529 602.849C519.019 602.849 520.047 602.849 521.614 602.849C537.48 603.113 548.498 603.08 554.667 602.75H555.99L556.43 603.047C556.822 603.311 557.018 603.542 557.018 603.74L555.696 607.598C555.5 608.06 554.472 608.291 552.611 608.291C549.477 608.291 547.518 608.389 546.735 608.587C546.539 608.653 546.294 608.785 546 608.983C545.902 609.115 544.58 612.512 542.034 619.173C539.585 625.834 538.263 629.231 538.067 629.363C537.676 629.758 537.235 629.89 536.745 629.758C535.57 629.495 533.611 628.373 530.869 626.395C530.477 626.131 530.184 625.9 529.988 625.702L529.106 625.01L527.931 625.801C522.741 628.901 516.13 630.847 508.099 631.638C504.769 631.968 500.999 632.001 496.788 631.737C488.561 630.814 481.901 628.538 476.809 624.911C474.458 623.328 472.5 621.481 470.933 619.371C468.582 616.403 467.113 613.072 466.526 609.379C466.134 607.73 466.085 605.422 466.379 602.454C466.477 602.124 466.526 601.86 466.526 601.662C467.701 594.275 471.52 587.251 477.984 580.59C479.943 578.743 481.657 577.226 483.126 576.039C485.77 573.863 489.051 571.653 492.968 569.411C502.958 563.937 513.437 560.837 524.405 560.111Z" fill="#3685B5" fill-opacity="0.83"/>
<path d="M590.426 562.683C590.622 562.552 603.304 562.486 628.474 562.486H666.081L666.669 562.782C666.962 563.046 667.109 563.31 667.109 563.574L662.261 586.625C661.968 586.823 661.772 586.954 661.674 587.02C661.478 587.152 660.401 587.218 658.442 587.218C656.385 587.218 655.21 587.152 654.916 587.02C654.427 586.823 654.28 585.932 654.476 584.349C655.063 581.645 655.357 579.337 655.357 577.424C655.357 574.588 654.818 572.643 653.741 571.587C652.664 570.4 650.705 569.51 647.865 568.916C644.633 568.323 638.169 568.026 628.474 568.026C621.422 568.092 617.75 568.257 617.456 568.52C617.358 568.586 615.791 572.511 612.755 580.293L608.495 591.967C608.495 592.033 610.649 592.066 614.959 592.066C620.345 592 623.822 591.769 625.389 591.373C628.327 590.714 630.481 589.362 631.852 587.317C632.538 586.328 633.273 584.844 634.056 582.865C634.546 581.612 634.937 580.92 635.231 580.788L635.672 580.491H638.61C640.96 580.491 642.332 580.722 642.723 581.184C642.821 581.447 641.254 586.031 638.022 594.935C634.595 603.971 632.832 608.521 632.734 608.587C632.538 608.983 631.216 609.181 628.768 609.181H625.829L625.242 608.884C624.85 608.554 624.899 607.631 625.389 606.114C626.074 604.004 626.417 602.355 626.417 601.168L626.123 599.881C625.634 598.958 624.409 598.331 622.451 598.002C620.786 597.738 617.309 597.606 612.021 597.606H606.438L601.59 610.566C598.359 619.338 596.743 623.757 596.743 623.823C596.743 624.02 597.036 624.119 597.624 624.119H619.513C627.445 623.724 633.566 622.306 637.876 619.865C642.087 617.425 646.445 612.149 650.95 604.036C651.538 602.981 652.027 602.322 652.419 602.058L652.86 601.761H655.945H659.03L659.47 602.058C659.862 602.322 659.862 602.849 659.47 603.641C658.981 604.696 656.63 608.851 652.419 616.106C647.326 624.944 644.78 629.33 644.78 629.264C644.584 629.528 643.066 629.66 640.226 629.66C637.092 629.725 625.389 629.758 605.116 629.758H566.481L565.893 629.462C565.599 629.132 565.452 628.868 565.452 628.67C565.452 627.615 565.942 626.329 566.921 624.812C568.097 624.416 569.957 624.218 572.504 624.218C576.911 624.152 579.408 624.02 579.996 623.823C580.485 623.625 580.877 623.229 581.171 622.635C581.856 621.382 585.235 612.446 591.307 595.825C598.065 577.622 601.395 568.52 601.297 568.52C600.807 568.191 597.82 568.026 592.336 568.026H589.397L588.81 567.729C588.32 567.333 588.369 566.41 588.957 564.959C589.544 563.574 590.034 562.815 590.426 562.683Z" fill="#3685B5" fill-opacity="0.83"/>
<path d="M689.84 562.486L690.281 562.189H704.237H718.193L718.633 562.486C718.927 562.618 719.172 562.848 719.368 563.178L731.708 586.724C739.934 602.223 744.047 610.005 744.047 610.071C744.047 610.137 744.145 610.038 744.341 609.774C744.733 608.917 747.132 602.553 751.54 590.681C756.534 577.226 758.934 570.268 758.738 569.807C758.738 569.741 758.591 569.609 758.297 569.411C757.22 568.29 754.233 567.729 749.336 567.729C747.965 567.729 747.132 567.498 746.839 567.036C746.741 566.773 746.888 566.014 747.279 564.761C747.769 563.508 748.21 562.749 748.601 562.486L749.042 562.189H750.658C756.436 562.453 764.075 562.519 773.575 562.387L782.095 562.189H783.271L783.711 562.486C784.103 562.749 784.299 562.98 784.299 563.178L782.977 567.135C782.585 567.531 781.41 567.729 779.451 567.729C776.219 567.795 773.477 568.191 771.225 568.916C769.756 569.378 768.678 570.037 767.993 570.895C767.699 571.225 764.026 580.953 756.975 600.079C749.728 619.602 746.104 629.264 746.104 629.066C746.006 629.198 745.81 629.363 745.517 629.561C745.223 629.693 743.999 629.758 741.844 629.758H738.612L738.171 629.462C737.878 629.33 733.03 620.36 723.628 602.553C713.639 583.558 708.742 574.225 708.938 574.555L708.203 573.17L699.242 597.012C693.366 612.907 690.428 621.02 690.428 621.349C690.428 621.811 690.477 622.075 690.575 622.141C691.358 623.526 694.492 624.218 699.977 624.218H701.446L702.033 624.515C702.327 624.779 702.474 625.043 702.474 625.307C702.474 626.362 701.984 627.648 701.005 629.165C700.711 629.561 699.83 629.725 698.361 629.66C697.969 629.66 697.234 629.66 696.157 629.66C683.915 629.396 674.317 629.429 667.364 629.758H666.042L665.601 629.462C665.209 629.198 665.014 628.934 665.014 628.67C665.014 627.615 665.503 626.329 666.483 624.812C666.678 624.416 667.462 624.218 668.833 624.218C673.24 624.218 676.57 623.724 678.822 622.734C679.802 622.405 680.585 621.91 681.173 621.25C681.467 620.921 684.894 611.951 691.456 594.341C697.92 576.732 701.103 567.927 701.005 567.927L694.982 567.729C690.771 567.729 688.469 567.498 688.077 567.036C687.979 566.839 688.126 566.08 688.518 564.761C689.008 563.508 689.448 562.749 689.84 562.486Z" fill="#3685B5" fill-opacity="0.83"/>
<path d="M846.904 560.111L849.989 560.012H850.136C858.754 560.012 865.463 562.123 870.261 566.344C870.947 567.069 871.339 567.432 871.437 567.432L877.019 563.772L882.601 560.012H883.776C885.05 560.012 885.784 560.21 885.98 560.606C886.078 560.738 884.462 565.421 881.132 574.654C877.607 584.151 875.844 588.801 875.844 588.603C875.648 588.999 874.277 589.197 871.73 589.197H868.645L868.205 588.9C867.813 588.636 867.715 588.043 867.911 587.119C868.694 583.69 868.841 580.425 868.352 577.325C867.274 570.862 863.504 567.036 857.04 565.849C856.159 565.717 854.788 565.651 852.927 565.651C849.303 565.585 845.484 565.981 841.468 566.839C836.67 567.894 832.36 569.477 828.541 571.587C819.825 576.072 813.361 583.228 809.15 593.055C806.505 599.585 805.183 604.96 805.183 609.181C805.183 612.215 805.771 614.754 806.946 616.799C809.492 621.283 814.291 624.218 821.343 625.603C822.028 625.735 822.714 625.834 823.399 625.9C832.703 627.219 841.175 625.373 848.814 620.36C854.494 616.403 858.607 611.588 861.153 605.916C861.643 604.795 862.133 604.201 862.622 604.135C862.916 604.069 863.896 604.036 865.56 604.036C868.009 604.036 869.38 604.234 869.674 604.63C869.772 604.894 869.674 605.356 869.38 606.015C866.148 613.93 859.733 620.426 850.136 625.504C847.393 626.955 844.504 628.176 841.468 629.165C835.396 631.078 829.324 632.001 823.252 631.935C819.041 631.869 814.928 631.275 810.912 630.154C804.253 628.439 799.062 625.57 795.341 621.547C791.913 618.118 789.807 614.061 789.024 609.379C788.632 607.73 788.583 605.422 788.877 602.454C788.975 602.124 789.024 601.86 789.024 601.662C790.199 594.275 794.019 587.251 800.482 580.59C802.441 578.743 804.155 577.226 805.624 576.039C808.268 573.863 811.549 571.653 815.467 569.411C825.456 563.937 835.935 560.837 846.904 560.111Z" fill="#3685B5" fill-opacity="0.83"/>
<path d="M904.317 562.683C904.512 562.552 917.195 562.486 942.364 562.486H979.972L980.559 562.782C980.853 563.046 981 563.31 981 563.574L976.152 586.625C975.858 586.823 975.663 586.954 975.565 587.02C975.369 587.152 974.291 587.218 972.333 587.218C970.276 587.218 969.101 587.152 968.807 587.02C968.317 586.823 968.17 585.932 968.366 584.349C968.954 581.645 969.248 579.337 969.248 577.424C969.248 574.588 968.709 572.643 967.632 571.587C966.554 570.4 964.596 569.51 961.756 568.916C958.524 568.323 952.06 568.026 942.364 568.026C935.313 568.092 931.64 568.257 931.347 568.52C931.249 568.586 929.682 572.511 926.646 580.293L922.386 591.967C922.386 592.033 924.54 592.066 928.849 592.066C934.236 592 937.713 591.769 939.279 591.373C942.218 590.714 944.372 589.362 945.743 587.317C946.429 586.328 947.163 584.844 947.947 582.865C948.436 581.612 948.828 580.92 949.122 580.788L949.563 580.491H952.501C954.851 580.491 956.222 580.722 956.614 581.184C956.712 581.447 955.145 586.031 951.913 594.935C948.485 603.971 946.723 608.521 946.625 608.587C946.429 608.983 945.107 609.181 942.658 609.181H939.72L939.133 608.884C938.741 608.554 938.79 607.631 939.279 606.114C939.965 604.004 940.308 602.355 940.308 601.168L940.014 599.881C939.524 598.958 938.3 598.331 936.341 598.002C934.676 597.738 931.2 597.606 925.911 597.606H920.329L915.481 610.566C912.249 619.338 910.633 623.757 910.633 623.823C910.633 624.02 910.927 624.119 911.515 624.119H933.403C941.336 623.724 947.457 622.306 951.766 619.865C955.977 617.425 960.336 612.149 964.841 604.036C965.428 602.981 965.918 602.322 966.31 602.058L966.75 601.761H969.835H972.92L973.361 602.058C973.753 602.322 973.753 602.849 973.361 603.641C972.871 604.696 970.521 608.851 966.31 616.106C961.217 624.944 958.671 629.33 958.671 629.264C958.475 629.528 956.957 629.66 954.117 629.66C950.983 629.725 939.279 629.758 919.007 629.758H880.371L879.784 629.462C879.49 629.132 879.343 628.868 879.343 628.67C879.343 627.615 879.833 626.329 880.812 624.812C881.987 624.416 883.848 624.218 886.394 624.218C890.801 624.152 893.299 624.02 893.886 623.823C894.376 623.625 894.768 623.229 895.062 622.635C895.747 621.382 899.126 612.446 905.198 595.825C911.955 577.622 915.285 568.52 915.187 568.52C914.698 568.191 911.711 568.026 906.226 568.026H903.288L902.701 567.729C902.211 567.333 902.26 566.41 902.847 564.959C903.435 563.574 903.925 562.815 904.317 562.683Z" fill="#3685B5" fill-opacity="0.83"/>
<path d="M40.8266 562.486L41.2673 562.189H64.9188L88.7171 562.288L90.7737 562.486C97.2374 563.145 102.428 564.629 106.345 566.938C110.263 569.048 112.662 571.752 113.544 575.05C113.935 576.831 113.838 578.611 113.25 580.392C111.585 585.075 106.835 589.197 99.0003 592.758C95.7684 594.143 92.3896 595.265 88.864 596.122C88.0805 596.386 87.6398 596.518 87.5418 596.518L88.7171 597.309C90.7737 598.43 92.5366 599.914 94.0056 601.761C95.0829 603.476 95.6705 605.191 95.7684 606.905C95.7684 608.291 95.4746 610.632 94.887 613.93C94.3973 617.227 94.1525 619.799 94.1525 621.646C94.1525 623.229 94.2504 624.251 94.4463 624.713C95.0339 626.164 96.5519 627.021 99.0003 627.285C100.273 627.285 101.302 627.054 102.085 626.593C103.554 625.933 104.925 624.119 106.199 621.151C106.59 620.162 107.129 619.602 107.814 619.47C108.206 619.404 109.186 619.371 110.753 619.371C112.809 619.371 114.033 619.536 114.425 619.865C114.817 620.195 114.719 620.921 114.131 622.042C111.683 626.922 107.863 630.055 102.673 631.44C101.987 631.638 101.302 631.77 100.616 631.836C99.9307 631.902 98.7065 631.935 96.9436 631.935C86.8563 631.605 80.3926 629.462 77.5524 625.504C76.7689 624.515 76.3282 623.229 76.2303 621.646C76.2303 620.393 76.2793 619.602 76.3772 619.272C76.8669 617.755 77.5524 615.71 78.4338 613.138C80.0988 608.653 80.8333 605.817 80.6374 604.63C80.2457 601.53 78.189 599.519 74.4675 598.595L73.4391 598.299H64.7719H56.2515L56.1046 598.694C56.1046 598.562 54.5376 602.783 51.4037 611.357C48.3677 619.602 46.8986 623.724 46.9966 623.724C47.4862 624.053 50.4733 624.218 55.9577 624.218H58.8957L59.4833 624.515C59.7771 624.779 59.924 625.043 59.924 625.307C59.924 626.362 59.4344 627.648 58.455 629.165C58.1612 629.561 57.1819 629.725 55.517 629.66C55.1252 629.66 54.2928 629.66 53.0196 629.66C38.3293 629.396 26.8708 629.429 18.6443 629.758H17.0283L16.5876 629.462C16.1959 629.198 16 628.934 16 628.67C16 627.615 16.4897 626.329 17.469 624.812C18.6443 624.416 20.505 624.218 23.0514 624.218C27.4584 624.152 29.9558 624.02 30.5434 623.823C31.0331 623.625 31.4248 623.229 31.7186 622.635C32.4042 621.316 35.783 612.413 41.855 595.924C48.6125 577.721 51.9913 568.553 51.9913 568.421C51.9913 568.224 51.8933 568.125 51.6975 568.125C51.1099 567.993 48.8084 567.861 44.793 567.729C41.3653 567.729 39.4555 567.498 39.0638 567.036C38.9659 566.839 39.1128 566.08 39.5045 564.761C39.9942 563.508 40.4349 562.749 40.8266 562.486ZM86.5135 567.927C85.9259 567.861 82.9389 567.795 77.5524 567.729C72.3618 567.729 69.3259 567.795 68.4444 567.927C67.9548 568.059 67.6609 568.191 67.563 568.323L58.0143 593.649H66.5347C73.1943 593.583 77.5524 593.385 79.6091 593.055C85.2893 592.198 89.4516 590.318 92.0958 587.416C93.369 585.965 94.5932 583.591 95.7684 580.293C96.6498 577.853 97.0905 575.973 97.0905 574.654C97.0905 572.873 96.3071 571.455 94.7401 570.4C93.7607 569.741 92.8793 569.312 92.0958 569.114C90.8227 568.652 88.9619 568.257 86.5135 567.927Z" stroke="#0471A6" stroke-width="14" mask="url(#path-13-outside-1_24_8)"/>
<path d="M194.857 560.111C197.501 559.913 200.194 559.979 202.937 560.309C212.338 561.233 219.635 564.365 224.825 569.708C226.588 571.554 227.812 573.236 228.498 574.753C230.261 577.919 231.191 581.315 231.289 584.943C231.387 590.021 230.114 595.133 227.469 600.277C223.846 607.598 217.823 614.127 209.4 619.865C201.761 624.944 193.535 628.439 184.721 630.352C171.989 633.188 161.02 632.364 151.814 627.879C150.443 627.219 149.17 626.494 147.995 625.702C139.964 620.294 136.487 612.841 137.565 603.344C138.25 597.474 140.748 591.604 145.057 585.734C151.325 577.358 159.894 570.796 170.765 566.047C178.502 562.618 186.532 560.639 194.857 560.111ZM198.823 565.157C194.22 564.695 189.519 565.289 184.721 566.938C176.2 569.642 169.296 574.621 164.007 581.876C161.363 585.503 159.11 589.856 157.25 594.935C155.193 600.739 154.165 605.619 154.165 609.577C154.165 613.666 155.095 617.062 156.956 619.766C160.286 624.383 165.427 626.758 172.381 626.889C173.262 626.889 174.193 626.856 175.172 626.791C183.79 626.131 191.674 622.537 198.823 616.007C201.468 613.633 203.769 610.995 205.728 608.093C210.429 601.036 213.514 593.616 214.983 585.833C215.374 583.327 215.374 580.788 214.983 578.216C214.983 578.084 214.983 577.952 214.983 577.82C213.905 573.863 211.898 570.829 208.96 568.718C206.315 566.74 202.937 565.552 198.823 565.157Z" stroke="#0471A6" stroke-width="14" mask="url(#path-13-outside-1_24_8)"/>
<path d="M260.611 562.486L261.052 562.189H287.2C304.927 562.189 314.133 562.222 314.818 562.288C319.715 562.618 323.877 563.574 327.305 565.157C329.46 566.08 331.222 567.234 332.594 568.619C334.063 570.268 335.042 571.851 335.532 573.368C335.923 574.885 335.923 576.534 335.532 578.315C333.965 583.855 328.676 588.274 319.666 591.571C319.176 591.769 318.687 591.934 318.197 592.066C316.336 592.725 313.79 593.418 310.558 594.143C309.579 594.209 309.089 594.308 309.089 594.44C310.362 594.44 312.125 594.77 314.378 595.43C321.723 597.342 326.081 600.64 327.452 605.323C327.648 606.114 327.746 606.938 327.746 607.796C327.746 612.479 324.661 616.996 318.491 621.349C318.295 621.481 318.099 621.613 317.903 621.745C312.517 625.373 306.102 627.813 298.659 629.066C296.308 629.462 292.048 629.66 285.878 629.66C286.27 629.66 279.415 629.693 265.312 629.758C246.312 629.758 236.617 629.66 236.225 629.462C236.127 629.462 236.029 629.33 235.931 629.066C235.735 628.868 235.882 628.11 236.372 626.791C236.862 625.406 237.253 624.647 237.547 624.515L237.988 624.218H242.689C247.194 624.152 249.74 624.02 250.328 623.823C250.817 623.625 251.209 623.229 251.503 622.635C252.189 621.316 255.567 612.413 261.639 595.924C268.397 577.721 271.776 568.553 271.776 568.421C271.776 568.224 271.678 568.125 271.482 568.125C270.894 567.993 268.593 567.861 264.577 567.729C261.15 567.729 259.24 567.498 258.848 567.036C258.75 566.839 258.897 566.08 259.289 564.761C259.779 563.508 260.219 562.749 260.611 562.486ZM311.439 567.828C310.95 567.762 307.13 567.729 299.981 567.729C292.734 567.729 288.669 567.795 287.788 567.927C287.298 568.059 287.005 568.191 286.907 568.323L282.206 580.392L277.799 592.264H288.082C295.035 592.264 298.953 592.198 299.834 592.066C305.906 591.208 310.852 588.834 314.671 584.943C318.883 580.722 320.156 576.633 318.491 572.675C317.414 569.971 315.063 568.356 311.439 567.828ZM302.185 597.012C301.597 596.946 297.043 596.913 288.523 596.913H276.036L271.188 610.269C267.858 619.107 266.193 623.658 266.193 623.922C266.193 624.053 266.585 624.119 267.369 624.119C267.662 624.185 271.776 624.218 279.708 624.218L291.02 624.119L292.342 623.922C299.393 622.537 304.633 619.503 308.061 614.82C309.53 612.775 310.46 610.599 310.852 608.291C311.537 603.608 309.921 600.244 306.004 598.2C304.829 597.606 303.556 597.21 302.185 597.012Z" stroke="#0471A6" stroke-width="14" mask="url(#path-13-outside-1_24_8)"/>
<path d="M410.908 560.111C413.552 559.913 416.245 559.979 418.987 560.309C428.389 561.233 435.685 564.365 440.876 569.708C442.639 571.554 443.863 573.236 444.549 574.753C446.311 577.919 447.242 581.315 447.34 584.943C447.438 590.021 446.165 595.133 443.52 600.277C439.897 607.598 433.874 614.127 425.451 619.865C417.812 624.944 409.586 628.439 400.771 630.352C388.04 633.188 377.071 632.364 367.865 627.879C366.494 627.219 365.221 626.494 364.046 625.702C356.015 620.294 352.538 612.841 353.616 603.344C354.301 597.474 356.798 591.604 361.108 585.734C367.376 577.358 375.945 570.796 386.816 566.047C394.553 562.618 402.583 560.639 410.908 560.111ZM414.874 565.157C410.271 564.695 405.57 565.289 400.771 566.938C392.251 569.642 385.347 574.621 380.058 581.876C377.414 585.503 375.161 589.856 373.301 594.935C371.244 600.739 370.216 605.619 370.216 609.577C370.216 613.666 371.146 617.062 373.007 619.766C376.337 624.383 381.478 626.758 388.432 626.889C389.313 626.889 390.243 626.856 391.223 626.791C399.841 626.131 407.725 622.537 414.874 616.007C417.518 613.633 419.82 610.995 421.779 608.093C426.48 601.036 429.565 593.616 431.034 585.833C431.425 583.327 431.425 580.788 431.034 578.216C431.034 578.084 431.034 577.952 431.034 577.82C429.956 573.863 427.949 570.829 425.011 568.718C422.366 566.74 418.988 565.552 414.874 565.157Z" stroke="#0471A6" stroke-width="14" mask="url(#path-13-outside-1_24_8)"/>
<path d="M524.405 560.111L527.49 560.012H527.637C536.256 560.012 542.964 562.123 547.763 566.344C548.449 567.069 548.84 567.432 548.938 567.432L554.521 563.772L560.103 560.012H561.278C562.551 560.012 563.286 560.21 563.482 560.606C563.58 560.738 561.964 565.421 558.634 574.654C555.108 584.151 553.345 588.801 553.345 588.603C553.149 588.999 551.778 589.197 549.232 589.197H546.147L545.706 588.9C545.315 588.636 545.217 588.043 545.413 587.119C546.196 583.69 546.343 580.425 545.853 577.325C544.776 570.862 541.005 567.036 534.542 565.849C533.66 565.717 532.289 565.651 530.428 565.651C526.805 565.585 522.985 565.981 518.97 566.839C514.171 567.894 509.862 569.477 506.043 571.587C497.326 576.072 490.863 583.228 486.651 593.055C484.007 599.585 482.685 604.96 482.685 609.181C482.685 612.215 483.273 614.754 484.448 616.799C486.994 621.283 491.793 624.218 498.844 625.603C499.53 625.735 500.215 625.834 500.901 625.9C509.03 627.087 516.032 626.065 521.908 622.833C523.965 621.712 525.434 620.426 526.315 618.975C528.862 612.116 530.135 608.752 530.135 608.884C530.135 608.752 529.302 608.62 527.637 608.488L520.733 608.291C517.207 608.291 515.248 608.225 514.857 608.093C514.269 607.961 513.975 607.664 513.975 607.202L515.444 603.344C515.836 602.948 516.864 602.783 518.529 602.849C519.019 602.849 520.047 602.849 521.614 602.849C537.48 603.113 548.498 603.08 554.667 602.75H555.99L556.43 603.047C556.822 603.311 557.018 603.542 557.018 603.74L555.696 607.598C555.5 608.06 554.472 608.291 552.611 608.291C549.477 608.291 547.518 608.389 546.735 608.587C546.539 608.653 546.294 608.785 546 608.983C545.902 609.115 544.58 612.512 542.034 619.173C539.585 625.834 538.263 629.231 538.067 629.363C537.676 629.758 537.235 629.89 536.745 629.758C535.57 629.495 533.611 628.373 530.869 626.395C530.477 626.131 530.184 625.9 529.988 625.702L529.106 625.01L527.931 625.801C522.741 628.901 516.13 630.847 508.099 631.638C504.769 631.968 500.999 632.001 496.788 631.737C488.561 630.814 481.901 628.538 476.809 624.911C474.458 623.328 472.5 621.481 470.933 619.371C468.582 616.403 467.113 613.072 466.526 609.379C466.134 607.73 466.085 605.422 466.379 602.454C466.477 602.124 466.526 601.86 466.526 601.662C467.701 594.275 471.52 587.251 477.984 580.59C479.943 578.743 481.657 577.226 483.126 576.039C485.77 573.863 489.051 571.653 492.968 569.411C502.958 563.937 513.437 560.837 524.405 560.111Z" stroke="#0471A6" stroke-width="14" mask="url(#path-13-outside-1_24_8)"/>
<path d="M590.426 562.683C590.622 562.552 603.304 562.486 628.474 562.486H666.081L666.669 562.782C666.962 563.046 667.109 563.31 667.109 563.574L662.261 586.625C661.968 586.823 661.772 586.954 661.674 587.02C661.478 587.152 660.401 587.218 658.442 587.218C656.385 587.218 655.21 587.152 654.916 587.02C654.427 586.823 654.28 585.932 654.476 584.349C655.063 581.645 655.357 579.337 655.357 577.424C655.357 574.588 654.818 572.643 653.741 571.587C652.664 570.4 650.705 569.51 647.865 568.916C644.633 568.323 638.169 568.026 628.474 568.026C621.422 568.092 617.75 568.257 617.456 568.52C617.358 568.586 615.791 572.511 612.755 580.293L608.495 591.967C608.495 592.033 610.649 592.066 614.959 592.066C620.345 592 623.822 591.769 625.389 591.373C628.327 590.714 630.481 589.362 631.852 587.317C632.538 586.328 633.273 584.844 634.056 582.865C634.546 581.612 634.937 580.92 635.231 580.788L635.672 580.491H638.61C640.96 580.491 642.332 580.722 642.723 581.184C642.821 581.447 641.254 586.031 638.022 594.935C634.595 603.971 632.832 608.521 632.734 608.587C632.538 608.983 631.216 609.181 628.768 609.181H625.829L625.242 608.884C624.85 608.554 624.899 607.631 625.389 606.114C626.074 604.004 626.417 602.355 626.417 601.168L626.123 599.881C625.634 598.958 624.409 598.331 622.451 598.002C620.786 597.738 617.309 597.606 612.021 597.606H606.438L601.59 610.566C598.359 619.338 596.743 623.757 596.743 623.823C596.743 624.02 597.036 624.119 597.624 624.119H619.513C627.445 623.724 633.566 622.306 637.876 619.865C642.087 617.425 646.445 612.149 650.95 604.036C651.538 602.981 652.027 602.322 652.419 602.058L652.86 601.761H655.945H659.03L659.47 602.058C659.862 602.322 659.862 602.849 659.47 603.641C658.981 604.696 656.63 608.851 652.419 616.106C647.326 624.944 644.78 629.33 644.78 629.264C644.584 629.528 643.066 629.66 640.226 629.66C637.092 629.725 625.389 629.758 605.116 629.758H566.481L565.893 629.462C565.599 629.132 565.452 628.868 565.452 628.67C565.452 627.615 565.942 626.329 566.921 624.812C568.097 624.416 569.957 624.218 572.504 624.218C576.911 624.152 579.408 624.02 579.996 623.823C580.485 623.625 580.877 623.229 581.171 622.635C581.856 621.382 585.235 612.446 591.307 595.825C598.065 577.622 601.395 568.52 601.297 568.52C600.807 568.191 597.82 568.026 592.336 568.026H589.397L588.81 567.729C588.32 567.333 588.369 566.41 588.957 564.959C589.544 563.574 590.034 562.815 590.426 562.683Z" stroke="#0471A6" stroke-width="14" mask="url(#path-13-outside-1_24_8)"/>
<path d="M689.84 562.486L690.281 562.189H704.237H718.193L718.633 562.486C718.927 562.618 719.172 562.848 719.368 563.178L731.708 586.724C739.934 602.223 744.047 610.005 744.047 610.071C744.047 610.137 744.145 610.038 744.341 609.774C744.733 608.917 747.132 602.553 751.54 590.681C756.534 577.226 758.934 570.268 758.738 569.807C758.738 569.741 758.591 569.609 758.297 569.411C757.22 568.29 754.233 567.729 749.336 567.729C747.965 567.729 747.132 567.498 746.839 567.036C746.741 566.773 746.888 566.014 747.279 564.761C747.769 563.508 748.21 562.749 748.601 562.486L749.042 562.189H750.658C756.436 562.453 764.075 562.519 773.575 562.387L782.095 562.189H783.271L783.711 562.486C784.103 562.749 784.299 562.98 784.299 563.178L782.977 567.135C782.585 567.531 781.41 567.729 779.451 567.729C776.219 567.795 773.477 568.191 771.225 568.916C769.756 569.378 768.678 570.037 767.993 570.895C767.699 571.225 764.026 580.953 756.975 600.079C749.728 619.602 746.104 629.264 746.104 629.066C746.006 629.198 745.81 629.363 745.517 629.561C745.223 629.693 743.999 629.758 741.844 629.758H738.612L738.171 629.462C737.878 629.33 733.03 620.36 723.628 602.553C713.639 583.558 708.742 574.225 708.938 574.555L708.203 573.17L699.242 597.012C693.366 612.907 690.428 621.02 690.428 621.349C690.428 621.811 690.477 622.075 690.575 622.141C691.358 623.526 694.492 624.218 699.977 624.218H701.446L702.033 624.515C702.327 624.779 702.474 625.043 702.474 625.307C702.474 626.362 701.984 627.648 701.005 629.165C700.711 629.561 699.83 629.725 698.361 629.66C697.969 629.66 697.234 629.66 696.157 629.66C683.915 629.396 674.317 629.429 667.364 629.758H666.042L665.601 629.462C665.209 629.198 665.014 628.934 665.014 628.67C665.014 627.615 665.503 626.329 666.483 624.812C666.678 624.416 667.462 624.218 668.833 624.218C673.24 624.218 676.57 623.724 678.822 622.734C679.802 622.405 680.585 621.91 681.173 621.25C681.467 620.921 684.894 611.951 691.456 594.341C697.92 576.732 701.103 567.927 701.005 567.927L694.982 567.729C690.771 567.729 688.469 567.498 688.077 567.036C687.979 566.839 688.126 566.08 688.518 564.761C689.008 563.508 689.448 562.749 689.84 562.486Z" stroke="#0471A6" stroke-width="14" mask="url(#path-13-outside-1_24_8)"/>
<path d="M846.904 560.111L849.989 560.012H850.136C858.754 560.012 865.463 562.123 870.261 566.344C870.947 567.069 871.339 567.432 871.437 567.432L877.019 563.772L882.601 560.012H883.776C885.05 560.012 885.784 560.21 885.98 560.606C886.078 560.738 884.462 565.421 881.132 574.654C877.607 584.151 875.844 588.801 875.844 588.603C875.648 588.999 874.277 589.197 871.73 589.197H868.645L868.205 588.9C867.813 588.636 867.715 588.043 867.911 587.119C868.694 583.69 868.841 580.425 868.352 577.325C867.274 570.862 863.504 567.036 857.04 565.849C856.159 565.717 854.788 565.651 852.927 565.651C849.303 565.585 845.484 565.981 841.468 566.839C836.67 567.894 832.36 569.477 828.541 571.587C819.825 576.072 813.361 583.228 809.15 593.055C806.505 599.585 805.183 604.96 805.183 609.181C805.183 612.215 805.771 614.754 806.946 616.799C809.492 621.283 814.291 624.218 821.343 625.603C822.028 625.735 822.714 625.834 823.399 625.9C832.703 627.219 841.175 625.373 848.814 620.36C854.494 616.403 858.607 611.588 861.153 605.916C861.643 604.795 862.133 604.201 862.622 604.135C862.916 604.069 863.896 604.036 865.56 604.036C868.009 604.036 869.38 604.234 869.674 604.63C869.772 604.894 869.674 605.356 869.38 606.015C866.148 613.93 859.733 620.426 850.136 625.504C847.393 626.955 844.504 628.176 841.468 629.165C835.396 631.078 829.324 632.001 823.252 631.935C819.041 631.869 814.928 631.275 810.912 630.154C804.253 628.439 799.062 625.57 795.341 621.547C791.913 618.118 789.807 614.061 789.024 609.379C788.632 607.73 788.583 605.422 788.877 602.454C788.975 602.124 789.024 601.86 789.024 601.662C790.199 594.275 794.019 587.251 800.482 580.59C802.441 578.743 804.155 577.226 805.624 576.039C808.268 573.863 811.549 571.653 815.467 569.411C825.456 563.937 835.935 560.837 846.904 560.111Z" stroke="#0471A6" stroke-width="14" mask="url(#path-13-outside-1_24_8)"/>
<path d="M904.317 562.683C904.512 562.552 917.195 562.486 942.364 562.486H979.972L980.559 562.782C980.853 563.046 981 563.31 981 563.574L976.152 586.625C975.858 586.823 975.663 586.954 975.565 587.02C975.369 587.152 974.291 587.218 972.333 587.218C970.276 587.218 969.101 587.152 968.807 587.02C968.317 586.823 968.17 585.932 968.366 584.349C968.954 581.645 969.248 579.337 969.248 577.424C969.248 574.588 968.709 572.643 967.632 571.587C966.554 570.4 964.596 569.51 961.756 568.916C958.524 568.323 952.06 568.026 942.364 568.026C935.313 568.092 931.64 568.257 931.347 568.52C931.249 568.586 929.682 572.511 926.646 580.293L922.386 591.967C922.386 592.033 924.54 592.066 928.849 592.066C934.236 592 937.713 591.769 939.279 591.373C942.218 590.714 944.372 589.362 945.743 587.317C946.429 586.328 947.163 584.844 947.947 582.865C948.436 581.612 948.828 580.92 949.122 580.788L949.563 580.491H952.501C954.851 580.491 956.222 580.722 956.614 581.184C956.712 581.447 955.145 586.031 951.913 594.935C948.485 603.971 946.723 608.521 946.625 608.587C946.429 608.983 945.107 609.181 942.658 609.181H939.72L939.133 608.884C938.741 608.554 938.79 607.631 939.279 606.114C939.965 604.004 940.308 602.355 940.308 601.168L940.014 599.881C939.524 598.958 938.3 598.331 936.341 598.002C934.676 597.738 931.2 597.606 925.911 597.606H920.329L915.481 610.566C912.249 619.338 910.633 623.757 910.633 623.823C910.633 624.02 910.927 624.119 911.515 624.119H933.403C941.336 623.724 947.457 622.306 951.766 619.865C955.977 617.425 960.336 612.149 964.841 604.036C965.428 602.981 965.918 602.322 966.31 602.058L966.75 601.761H969.835H972.92L973.361 602.058C973.753 602.322 973.753 602.849 973.361 603.641C972.871 604.696 970.521 608.851 966.31 616.106C961.217 624.944 958.671 629.33 958.671 629.264C958.475 629.528 956.957 629.66 954.117 629.66C950.983 629.725 939.279 629.758 919.007 629.758H880.371L879.784 629.462C879.49 629.132 879.343 628.868 879.343 628.67C879.343 627.615 879.833 626.329 880.812 624.812C881.987 624.416 883.848 624.218 886.394 624.218C890.801 624.152 893.299 624.02 893.886 623.823C894.376 623.625 894.768 623.229 895.062 622.635C895.747 621.382 899.126 612.446 905.198 595.825C911.955 577.622 915.285 568.52 915.187 568.52C914.698 568.191 911.711 568.026 906.226 568.026H903.288L902.701 567.729C902.211 567.333 902.26 566.41 902.847 564.959C903.435 563.574 903.925 562.815 904.317 562.683Z" stroke="#0471A6" stroke-width="14" mask="url(#path-13-outside-1_24_8)"/>
</svg>
