<svg width="532" height="341" viewBox="0 0 532 341" fill="none" xmlns="http://www.w3.org/2000/svg">
<path d="M425 170C425 254.5 367.5 292.5 263.5 292.5C159.5 292.5 102 254.5 102 170C102 85.5004 174.306 17 263.5 17C352.694 17 425 85.5004 425 170Z" fill="#99D8FB"/>
<path d="M263.662 194.495C287.956 192.37 309.911 189.355 325.783 186.185C333.697 184.605 340.219 182.962 344.791 181.333C347.051 180.528 349.028 179.659 350.489 178.698C351.216 178.22 351.983 177.612 352.582 176.835C353.196 176.038 353.792 174.844 353.663 173.364C353.533 171.885 352.739 170.812 351.996 170.134C351.27 169.473 350.409 169.007 349.611 168.663C348.005 167.97 345.907 167.458 343.542 167.058C338.756 166.247 332.048 165.762 323.981 165.579C307.799 165.214 285.654 166.058 261.36 168.183C237.066 170.308 215.111 173.323 199.239 176.493C191.325 178.073 184.803 179.716 180.231 181.345C177.972 182.151 175.994 183.019 174.534 183.98C173.807 184.458 173.04 185.066 172.44 185.843C171.826 186.64 171.23 187.834 171.359 189.314C171.489 190.793 172.283 191.866 173.027 192.544C173.752 193.205 174.613 193.671 175.412 194.016C177.017 194.708 179.115 195.22 181.48 195.621C186.266 196.432 192.974 196.917 201.042 197.099C217.223 197.464 239.368 196.621 263.662 194.495Z" fill="#FDC874" stroke="#1E2166" stroke-width="7"/>
<path d="M267.035 183.706C243.595 186.25 218.576 185.743 185.5 182.721V175.921C215.268 180.482 238.203 181.153 260.98 178.182C283.866 175.197 306.482 168.547 335.561 158.634L338.705 166.495C312.067 175.652 290.278 181.184 267.035 183.706Z" fill="#F8C778" stroke="#2A2257" stroke-width="5"/>
<path d="M169.115 282.71C164.517 247.923 162.25 225.555 170.617 193C240.132 205.908 275.925 198.399 354 177C365.15 209.96 369.097 239.246 363.117 294H182.005C175.487 294 169.969 289.173 169.115 282.71Z" fill="#99D8FB" stroke="#232065" stroke-width="7"/>
<path d="M348.5 187C308.117 196.589 274.278 201.333 215 202V262.5H360.5L355.5 222.5L328 230.5C341.362 226.307 352.243 219.514 353.5 215L348.5 187Z" fill="#4696D3"/>
<path d="M219 202.5V264H172.605C172.46 264.384 172.261 264.404 172 264H172.605C174.454 259.118 167.731 195.439 172 196.5C176.605 197.644 196.711 200.977 219 202.5Z" fill="#306FB6"/>
<path d="M230.5 200V240C283.905 242.199 315.083 236.044 362.5 219.5" stroke="#232065" stroke-width="3"/>
<path d="M334.5 201.5C308.53 213.305 292.438 217.448 259.5 218V266.5L334.5 261.5V201.5Z" fill="#232065"/>
<circle cx="339.228" cy="221.228" r="2.22811" fill="#1D255D"/>
<circle cx="339.228" cy="221.228" r="2.22811" fill="#1D255D"/>
<circle cx="339.228" cy="221.228" r="2.22811" fill="#1D255D"/>
<circle cx="339.228" cy="221.228" r="2.22811" fill="#1D255D"/>
<circle cx="339.228" cy="221.228" r="2.22811" fill="#1D255D"/>
<circle cx="237.228" cy="234.228" r="2.22811" fill="#1D255D"/>
<circle cx="237.228" cy="234.228" r="2.22811" fill="#1D255D"/>
<circle cx="237.228" cy="234.228" r="2.22811" fill="#1D255D"/>
<circle cx="237.228" cy="234.228" r="2.22811" fill="#1D255D"/>
<circle cx="237.228" cy="234.228" r="2.22811" fill="#1D255D"/>
<circle cx="237.228" cy="207.228" r="2.22811" fill="#1D255D"/>
<circle cx="237.228" cy="207.228" r="2.22811" fill="#1D255D"/>
<circle cx="237.228" cy="207.228" r="2.22811" fill="#1D255D"/>
<circle cx="237.228" cy="207.228" r="2.22811" fill="#1D255D"/>
<circle cx="237.228" cy="207.228" r="2.22811" fill="#1D255D"/>
<path d="M269 228.5C290.636 229.111 305.378 227.216 322.5 219V277" stroke="#F9C882" stroke-width="3"/>
<ellipse cx="195.88" cy="230.655" rx="14.5941" ry="28.541" transform="rotate(5 195.88 230.655)" fill="#232063"/>
<path d="M124.078 163.501L120.521 163.425L120.504 166.983C120.356 197.531 124.834 217.131 136.075 229.974C147.31 242.81 164.65 248.126 187.936 251.954L190.013 252.295L191.288 250.62C196.517 243.752 199.45 237.931 200.41 231.712C201.361 225.55 200.305 219.406 198.389 212.111L197.786 209.818L195.433 209.527C175.164 207.018 163.637 202.248 156.486 195.126C149.329 187.998 145.989 177.967 143.452 163.399L142.509 157.99L138.003 161.128C135.031 163.198 132.211 163.675 124.078 163.501Z" fill="#FFFEFF" stroke="#232065" stroke-width="7"/>
<path d="M194.5 213C151.243 204.833 144.797 191.62 140 164C136.417 165.791 134.216 166.428 130 167C130.966 202.977 152.409 215.037 197 232C197.452 225.232 199.115 220.357 194.5 213Z" fill="#BDB4C5"/>
<path d="M123.5 181C131.2 182.058 135.779 181.444 145 175.5M123.5 204C141.954 199.193 147.384 195.48 150.5 187.5M134 229.5C149.463 221.458 154.726 214.742 157.5 198.5M157.5 243C171.687 232.03 175.671 223.799 173 204M182 250C192.016 235.234 194.291 226.399 188.5 209" stroke="#232065" stroke-width="3"/>
<path d="M368.136 202.227L361.75 197.308L362.516 205.333C365.313 234.633 365.908 249.246 362.553 268.396L361.833 272.5H366C378.628 272.5 389.357 262.251 388.613 249.295C387.933 237.471 386.309 228.337 383.058 220.81C379.766 213.191 374.904 207.441 368.136 202.227Z" fill="#FCFFF7" stroke="#232065" stroke-width="7"/>
<path d="M377.534 264C379.372 223.131 375.821 212.593 366 205L367.922 258.582L377.534 264Z" fill="#BDB4C5"/>
<path d="M366 223.533C372.733 222.825 376.498 222.82 383.231 223.533M366 237.514C376.454 234.828 381.776 233.965 387 237.514M366 248C376.508 245.993 381.637 245.531 387 248" stroke="#232065" stroke-width="3"/>
<path d="M94.3542 112.664C91.8662 118.382 91.0273 124.681 91.9321 130.85C92.837 137.019 95.4496 142.812 99.4746 147.575C103.5 152.337 108.777 155.878 114.709 157.798C120.641 159.718 126.992 159.94 133.044 158.439C139.096 156.938 144.608 153.775 148.955 149.305C153.303 144.836 156.314 139.24 157.648 133.149C158.982 127.058 158.585 120.715 156.503 114.838C154.42 108.961 150.735 103.783 145.864 99.8909L135.878 112.387C138.418 114.416 140.34 117.116 141.425 120.18C142.511 123.245 142.718 126.552 142.022 129.727C141.327 132.903 139.757 135.821 137.49 138.151C135.223 140.481 132.35 142.131 129.194 142.914C126.039 143.696 122.727 143.58 119.634 142.579C116.541 141.578 113.79 139.732 111.691 137.249C109.593 134.766 108.23 131.745 107.759 128.529C107.287 125.312 107.724 122.028 109.022 119.047L94.3542 112.664Z" fill="#F4CA6F" stroke="#1D255D" stroke-width="7"/>
<path d="M132.63 144.336L134.304 154.9" stroke="#2A2257" stroke-width="5"/>
<circle cx="141.934" cy="147.39" r="2.22811" fill="#1D255D"/>
<circle cx="141.934" cy="147.39" r="2.22811" fill="#1D255D"/>
<circle cx="141.934" cy="147.39" r="2.22811" fill="#1D255D"/>
<circle cx="141.934" cy="147.39" r="2.22811" fill="#1D255D"/>
<circle cx="141.934" cy="147.39" r="2.22811" fill="#1D255D"/>
<circle cx="124.109" cy="150.955" r="2.22811" fill="#1D255D"/>
<circle cx="124.109" cy="150.955" r="2.22811" fill="#1D255D"/>
<circle cx="124.109" cy="150.955" r="2.22811" fill="#1D255D"/>
<circle cx="124.109" cy="150.955" r="2.22811" fill="#1D255D"/>
<circle cx="124.109" cy="150.955" r="2.22811" fill="#1D255D"/>
<path d="M310.503 73L251 92.115L280.752 145L336.949 125.248C337.736 101.211 329.464 90.5827 310.503 73Z" fill="#EDCB77"/>
<path d="M323.5 74.0183C272.627 35.0168 213.096 63.5131 193.5 92.5183C173.904 121.524 172.329 138.042 170 167.518C244.296 181.467 284.386 175.209 354 147.018L345 115.018C308.3 138.511 280.825 147.608 213.5 153.018V107.018C258.915 101.425 283.393 95.3086 317.5 77.2605C319.466 76.2201 321.464 75.1401 323.5 74.0183Z" fill="#99D8FB"/>
<path d="M317.5 77.2605C319.466 76.2201 321.464 75.1401 323.5 74.0183C272.627 35.0168 213.096 63.5131 193.5 92.5183C173.904 121.524 172.329 138.042 170 167.518C244.296 181.467 284.386 175.209 354 147.018L345 115.018C308.3 138.511 280.825 147.608 213.5 153.018V107.018C258.915 101.425 283.393 95.3086 317.5 77.2605ZM317.5 77.2605C329.118 91.8308 333.354 100.665 335.5 118" stroke="#24255E" stroke-width="7"/>
<path d="M315.5 85.5C285.147 96.5883 262.483 103.251 214.5 109V150.5C273.596 147.55 297.664 140.526 328.5 122.5C329.242 106.232 325.434 97.4262 315.5 85.5Z" fill="#232162"/>
<ellipse cx="252.5" cy="126" rx="13.5" ry="14" fill="#F8CA75"/>
<circle cx="252.5" cy="126.5" r="5.5" fill="#20254B"/>
<ellipse cx="295.5" cy="115" rx="13.5" ry="14" fill="#F8CA75"/>
<circle cx="293.5" cy="115.5" r="5.5" fill="#20254B"/>
<path d="M340.5 126C313.303 142.365 284.047 149.507 222 155.5L213 170C258.13 174.634 298.696 167.319 347 146L340.5 126Z" fill="#4995D1"/>
<path d="M218.5 102.5C244.592 83.1981 252.553 71.7294 246 61.5C196.29 74.5491 178.762 99.9547 173.5 165C197.709 169.558 212.283 170.37 223 170.5V155.5C217.728 155.5 215.272 156.5 210 156.5L211 104L218.5 102.5Z" fill="#306FB6"/>
<path d="M306.5 75C293.338 85.3943 262.856 94.662 214.5 102.5L244.5 62C270.647 55.0999 293.763 61.5618 306.5 75Z" fill="#4995D1"/>
<circle cx="211.5" cy="100.5" r="1.5" fill="#1D255D"/>
<circle cx="211.5" cy="100.5" r="1.5" fill="#1D255D"/>
<circle cx="211.5" cy="100.5" r="1.5" fill="#1D255D"/>
<circle cx="211.5" cy="100.5" r="1.5" fill="#1D255D"/>
<circle cx="211.5" cy="100.5" r="1.5" fill="#1D255D"/>
<circle cx="307.5" cy="74.5" r="1.5" fill="#1D255D"/>
<circle cx="307.5" cy="74.5" r="1.5" fill="#1D255D"/>
<circle cx="307.5" cy="74.5" r="1.5" fill="#1D255D"/>
<circle cx="307.5" cy="74.5" r="1.5" fill="#1D255D"/>
<circle cx="307.5" cy="74.5" r="1.5" fill="#1D255D"/>
<path d="M283.512 81.4586L289.535 76.3725L291.354 80.6595L283.512 81.4586Z" fill="#232162"/>
<path d="M282.837 81.0722L273.072 80.7496L274.201 85.6432L282.837 81.0722Z" fill="#232162"/>
<rect x="332.861" y="133.702" width="6" height="10" transform="rotate(-17 332.861 133.702)" fill="#232162"/>
<rect x="319" y="139.754" width="6" height="10" transform="rotate(-17 319 139.754)" fill="#232162"/>
<rect x="326" y="136.754" width="6" height="10" transform="rotate(-17 326 136.754)" fill="#232162"/>
<path d="M198.495 124.541C197.05 131.977 193.824 138.171 189.961 142.201C186.068 146.264 181.907 147.803 178.319 147.106C174.731 146.408 171.45 143.422 169.361 138.197C167.289 133.013 166.619 126.062 168.065 118.626C169.51 111.19 172.735 104.996 176.599 100.965C180.492 96.903 184.653 95.3636 188.241 96.0611C191.829 96.7585 195.11 99.7444 197.198 104.969C199.27 110.154 199.94 117.105 198.495 124.541Z" fill="#F8CD67" stroke="#222069" stroke-width="7"/>
<path d="M185.293 121.502C184.058 127.854 181.469 133.168 178.435 136.644C175.344 140.186 172.246 141.377 169.806 140.903C167.366 140.429 164.94 138.164 163.401 133.722C161.89 129.363 161.48 123.465 162.715 117.113C163.95 110.761 166.539 105.446 169.572 101.971C172.664 98.4285 175.762 97.2374 178.202 97.7116C180.641 98.1859 183.067 100.451 184.607 104.893C186.117 109.252 186.527 115.15 185.293 121.502Z" fill="#F8CD67" stroke="#272066" stroke-width="6"/>
<path d="M188 107L196.5 104" stroke="#222260" stroke-width="5"/>
<path d="M187.973 118.847L196.944 119.72" stroke="#222260" stroke-width="5"/>
<path d="M179.494 138.009L187.006 142.991" stroke="#222260" stroke-width="5"/>
<path d="M183.82 128.674L195.848 132.155" stroke="#222260" stroke-width="5"/>
<path d="M163.5 129.5L184.5 108" stroke="#222260" stroke-width="5"/>
<path d="M101.962 283.027V295.123C101.5 295.249 100.765 295.375 99.757 295.501C98.791 295.627 97.825 295.69 96.859 295.69C95.893 295.69 95.032 295.606 94.276 295.438C93.562 295.312 92.953 295.06 92.449 294.682C91.987 294.304 91.63 293.779 91.378 293.107C91.126 292.435 91 291.553 91 290.461V260.788C91 259.906 91.231 259.234 91.693 258.772C92.197 258.268 92.869 257.869 93.709 257.575C95.137 257.071 96.796 256.714 98.686 256.504C100.576 256.252 102.592 256.126 104.734 256.126C110.53 256.126 114.898 257.344 117.838 259.78C120.778 262.216 122.248 265.513 122.248 269.671C122.248 272.275 121.576 274.501 120.232 276.349C118.888 278.197 117.292 279.625 115.444 280.633C116.956 282.691 118.447 284.623 119.917 286.429C121.387 288.235 122.542 289.873 123.382 291.343C122.962 292.813 122.185 293.947 121.051 294.745C119.959 295.501 118.72 295.879 117.334 295.879C116.41 295.879 115.612 295.774 114.94 295.564C114.268 295.354 113.68 295.06 113.176 294.682C112.672 294.304 112.21 293.842 111.79 293.296C111.37 292.75 110.971 292.162 110.593 291.532L105.301 283.027H101.962ZM105.931 274.648C107.527 274.648 108.787 274.249 109.711 273.451C110.635 272.611 111.097 271.393 111.097 269.797C111.097 268.201 110.572 267.004 109.522 266.206C108.514 265.366 106.897 264.946 104.671 264.946C104.041 264.946 103.537 264.967 103.159 265.009C102.781 265.051 102.361 265.114 101.899 265.198V274.648H105.931Z" fill="#F8CD67"/>
<path d="M127.008 276.223C127.008 272.947 127.512 270.049 128.52 267.529C129.57 265.009 130.977 262.909 132.741 261.229C134.547 259.507 136.647 258.205 139.041 257.323C141.477 256.441 144.102 256 146.916 256C149.73 256 152.334 256.441 154.728 257.323C157.164 258.205 159.285 259.507 161.091 261.229C162.897 262.909 164.304 265.009 165.312 267.529C166.362 270.049 166.887 272.947 166.887 276.223C166.887 279.499 166.383 282.418 165.375 284.98C164.367 287.5 162.96 289.621 161.154 291.343C159.39 293.023 157.29 294.304 154.854 295.186C152.418 296.068 149.772 296.509 146.916 296.509C144.06 296.509 141.414 296.068 138.978 295.186C136.542 294.262 134.442 292.939 132.678 291.217C130.914 289.495 129.528 287.374 128.52 284.854C127.512 282.334 127.008 279.457 127.008 276.223ZM138.348 276.223C138.348 280.045 139.125 282.901 140.679 284.791C142.233 286.681 144.312 287.626 146.916 287.626C149.562 287.626 151.662 286.681 153.216 284.791C154.77 282.901 155.547 280.045 155.547 276.223C155.547 272.443 154.77 269.608 153.216 267.718C151.704 265.828 149.625 264.883 146.979 264.883C144.375 264.883 142.275 265.828 140.679 267.718C139.125 269.566 138.348 272.401 138.348 276.223Z" fill="#F8CD67"/>
<path d="M183.905 287.5C184.493 287.668 185.249 287.794 186.173 287.878C187.097 287.92 187.979 287.941 188.819 287.941C190.499 287.941 191.885 287.605 192.977 286.933C194.111 286.219 194.678 285.127 194.678 283.657C194.678 282.271 194.216 281.284 193.292 280.696C192.368 280.108 190.961 279.814 189.071 279.814H183.905V287.5ZM183.905 272.128H188.504C190.31 272.128 191.612 271.792 192.41 271.12C193.25 270.448 193.67 269.461 193.67 268.159C193.67 267.025 193.187 266.122 192.221 265.45C191.297 264.778 189.89 264.442 188 264.442C187.37 264.442 186.635 264.463 185.795 264.505C184.997 264.547 184.367 264.61 183.905 264.694V272.128ZM188 296.383C187.286 296.383 186.446 296.362 185.48 296.32C184.514 296.278 183.506 296.194 182.456 296.068C181.448 295.942 180.44 295.774 179.432 295.564C178.424 295.396 177.5 295.144 176.66 294.808C174.35 293.926 173.195 292.393 173.195 290.209V260.788C173.195 259.906 173.426 259.234 173.888 258.772C174.392 258.268 175.064 257.869 175.904 257.575C177.332 257.071 179.117 256.714 181.259 256.504C183.401 256.252 185.606 256.126 187.874 256.126C193.25 256.126 197.387 257.029 200.285 258.835C203.183 260.641 204.632 263.434 204.632 267.214C204.632 269.104 204.086 270.742 202.994 272.128C201.902 273.472 200.432 274.459 198.584 275.089C200.684 275.677 202.427 276.748 203.813 278.302C205.241 279.856 205.955 281.809 205.955 284.161C205.955 288.319 204.401 291.406 201.293 293.422C198.227 295.396 193.796 296.383 188 296.383Z" fill="#F8CD67"/>
<path d="M210.311 276.223C210.311 272.947 210.815 270.049 211.823 267.529C212.873 265.009 214.28 262.909 216.044 261.229C217.85 259.507 219.95 258.205 222.344 257.323C224.78 256.441 227.405 256 230.219 256C233.033 256 235.637 256.441 238.031 257.323C240.467 258.205 242.588 259.507 244.394 261.229C246.2 262.909 247.607 265.009 248.615 267.529C249.665 270.049 250.19 272.947 250.19 276.223C250.19 279.499 249.686 282.418 248.678 284.98C247.67 287.5 246.263 289.621 244.457 291.343C242.693 293.023 240.593 294.304 238.157 295.186C235.721 296.068 233.075 296.509 230.219 296.509C227.363 296.509 224.717 296.068 222.281 295.186C219.845 294.262 217.745 292.939 215.981 291.217C214.217 289.495 212.831 287.374 211.823 284.854C210.815 282.334 210.311 279.457 210.311 276.223ZM221.651 276.223C221.651 280.045 222.428 282.901 223.982 284.791C225.536 286.681 227.615 287.626 230.219 287.626C232.865 287.626 234.965 286.681 236.519 284.791C238.073 282.901 238.85 280.045 238.85 276.223C238.85 272.443 238.073 269.608 236.519 267.718C235.007 265.828 232.928 264.883 230.282 264.883C227.678 264.883 225.578 265.828 223.982 267.718C222.428 269.566 221.651 272.401 221.651 276.223Z" fill="#F8CD67"/>
<path d="M291.085 289.138C291.085 290.44 290.854 291.406 290.392 292.036C289.93 292.666 289.195 293.275 288.187 293.863C287.599 294.199 286.864 294.535 285.982 294.871C285.1 295.165 284.134 295.417 283.084 295.627C282.034 295.879 280.921 296.068 279.745 296.194C278.611 296.32 277.477 296.383 276.343 296.383C273.319 296.383 270.484 295.984 267.838 295.186C265.192 294.346 262.882 293.107 260.908 291.469C258.976 289.789 257.443 287.71 256.309 285.232C255.175 282.754 254.608 279.877 254.608 276.601C254.608 273.157 255.217 270.154 256.435 267.592C257.695 265.03 259.333 262.909 261.349 261.229C263.407 259.507 265.738 258.226 268.342 257.386C270.988 256.546 273.697 256.126 276.469 256.126C280.459 256.126 283.609 256.777 285.919 258.079C288.271 259.339 289.447 260.998 289.447 263.056C289.447 264.148 289.174 265.093 288.628 265.891C288.082 266.689 287.452 267.319 286.738 267.781C285.688 267.151 284.365 266.542 282.769 265.954C281.215 265.324 279.451 265.009 277.477 265.009C273.949 265.009 271.135 266.017 269.035 268.033C266.977 270.049 265.948 272.842 265.948 276.412C265.948 278.344 266.221 280.024 266.767 281.452C267.355 282.838 268.132 283.993 269.098 284.917C270.064 285.799 271.177 286.471 272.437 286.933C273.697 287.353 275.041 287.563 276.469 287.563C277.393 287.563 278.212 287.479 278.926 287.311C279.64 287.143 280.186 286.954 280.564 286.744V280.822H273.823C273.571 280.36 273.319 279.751 273.067 278.995C272.857 278.239 272.752 277.441 272.752 276.601C272.752 275.089 273.088 273.997 273.76 273.325C274.474 272.653 275.377 272.317 276.469 272.317H287.116C288.376 272.317 289.342 272.674 290.014 273.388C290.728 274.06 291.085 275.026 291.085 276.286V289.138Z" fill="#F8CD67"/>
<path d="M298.334 263.056C298.334 261.25 298.859 259.822 299.909 258.772C300.959 257.722 302.387 257.197 304.193 257.197H324.983C325.277 257.659 325.529 258.268 325.739 259.024C325.991 259.78 326.117 260.578 326.117 261.418C326.117 263.014 325.76 264.148 325.046 264.82C324.374 265.492 323.471 265.828 322.337 265.828H309.044V271.687H323.219C323.513 272.149 323.765 272.758 323.975 273.514C324.227 274.228 324.353 275.005 324.353 275.845C324.353 277.441 324.017 278.575 323.345 279.247C322.673 279.919 321.77 280.255 320.636 280.255H309.044V286.87H325.235C325.529 287.332 325.781 287.941 325.991 288.697C326.243 289.453 326.369 290.251 326.369 291.091C326.369 292.687 326.012 293.842 325.298 294.556C324.626 295.228 323.723 295.564 322.589 295.564H304.193C302.387 295.564 300.959 295.039 299.909 293.989C298.859 292.939 298.334 291.511 298.334 289.705V263.056Z" fill="#F8CD67"/>
<path d="M367.436 294.052C366.848 294.64 365.987 295.081 364.853 295.375C363.761 295.711 362.438 295.879 360.884 295.879C359.33 295.879 357.86 295.648 356.474 295.186C355.088 294.724 353.954 293.611 353.072 291.847L346.835 279.121C346.205 277.819 345.638 276.601 345.134 275.467C344.63 274.291 344.084 272.947 343.496 271.435L343.118 271.498C343.286 273.766 343.37 276.076 343.37 278.428C343.412 280.78 343.433 283.09 343.433 285.358V295.123C342.971 295.249 342.257 295.375 341.291 295.501C340.367 295.627 339.443 295.69 338.519 295.69C337.595 295.69 336.776 295.627 336.062 295.501C335.348 295.375 334.76 295.123 334.298 294.745C333.836 294.367 333.479 293.863 333.227 293.233C332.975 292.561 332.849 291.7 332.849 290.65V259.15C333.437 258.31 334.34 257.68 335.558 257.26C336.776 256.84 338.078 256.63 339.464 256.63C341.018 256.63 342.488 256.882 343.874 257.386C345.302 257.848 346.436 258.94 347.276 260.662L353.576 273.388C354.206 274.69 354.773 275.929 355.277 277.105C355.781 278.239 356.327 279.562 356.915 281.074L357.23 281.011C357.062 278.743 356.957 276.475 356.915 274.207C356.873 271.939 356.852 269.671 356.852 267.403V257.197C357.314 257.071 358.007 256.945 358.931 256.819C359.897 256.693 360.842 256.63 361.766 256.63C363.614 256.63 365.021 256.966 365.987 257.638C366.953 258.268 367.436 259.612 367.436 261.67V294.052Z" fill="#F8CD67"/>
<path d="M395.074 264.883C391.84 264.883 389.362 265.87 387.64 267.844C385.918 269.818 385.057 272.611 385.057 276.223C385.057 279.877 386.002 282.691 387.892 284.665C389.824 286.639 392.407 287.626 395.641 287.626C397.363 287.626 398.812 287.395 399.988 286.933C401.206 286.471 402.361 285.946 403.453 285.358C404.167 285.946 404.713 286.66 405.091 287.5C405.511 288.298 405.721 289.243 405.721 290.335C405.721 292.057 404.755 293.527 402.823 294.745C400.933 295.921 398.035 296.509 394.129 296.509C391.315 296.509 388.669 296.11 386.191 295.312C383.713 294.514 381.55 293.296 379.702 291.658C377.854 289.978 376.384 287.878 375.292 285.358C374.242 282.796 373.717 279.751 373.717 276.223C373.717 272.947 374.221 270.07 375.229 267.592C376.279 265.072 377.686 262.951 379.45 261.229C381.256 259.507 383.356 258.205 385.75 257.323C388.144 256.441 390.706 256 393.436 256C397.3 256 400.282 256.63 402.382 257.89C404.524 259.15 405.595 260.767 405.595 262.741C405.595 263.833 405.322 264.778 404.776 265.576C404.23 266.374 403.6 267.004 402.886 267.466C401.794 266.752 400.618 266.143 399.358 265.639C398.14 265.135 396.712 264.883 395.074 264.883Z" fill="#F8CD67"/>
<path d="M411.599 263.056C411.599 261.25 412.124 259.822 413.174 258.772C414.224 257.722 415.652 257.197 417.458 257.197H438.248C438.542 257.659 438.794 258.268 439.004 259.024C439.256 259.78 439.382 260.578 439.382 261.418C439.382 263.014 439.025 264.148 438.311 264.82C437.639 265.492 436.736 265.828 435.602 265.828H422.309V271.687H436.484C436.778 272.149 437.03 272.758 437.24 273.514C437.492 274.228 437.618 275.005 437.618 275.845C437.618 277.441 437.282 278.575 436.61 279.247C435.938 279.919 435.035 280.255 433.901 280.255H422.309V286.87H438.5C438.794 287.332 439.046 287.941 439.256 288.697C439.508 289.453 439.634 290.251 439.634 291.091C439.634 292.687 439.277 293.842 438.563 294.556C437.891 295.228 436.988 295.564 435.854 295.564H417.458C415.652 295.564 414.224 295.039 413.174 293.989C412.124 292.939 411.599 291.511 411.599 289.705V263.056Z" fill="#F8CD67"/>
<path fill-rule="evenodd" clip-rule="evenodd" d="M92.449 294.682C91.987 294.304 91.63 293.779 91.378 293.107C91.126 292.435 91 291.553 91 290.461V260.788C91 259.906 91.231 259.234 91.693 258.772C92.197 258.268 92.869 257.869 93.709 257.575C95.137 257.071 96.796 256.714 98.686 256.504C100.576 256.252 102.592 256.126 104.734 256.126C110.53 256.126 114.898 257.344 117.838 259.78C120.297 261.817 121.728 264.457 122.13 267.699C122.209 268.334 122.248 268.991 122.248 269.671C122.248 271.698 121.841 273.496 121.026 275.065C120.795 275.511 120.53 275.939 120.232 276.349C119.665 277.129 119.053 277.834 118.395 278.465C117.496 279.328 116.512 280.05 115.444 280.633C116.683 282.319 117.908 283.921 119.119 285.438C119.385 285.773 119.652 286.103 119.917 286.429C121.387 288.235 122.542 289.873 123.382 291.343C122.962 292.813 122.185 293.947 121.051 294.745C119.959 295.501 118.72 295.879 117.334 295.879C116.41 295.879 115.612 295.774 114.94 295.564C114.268 295.354 113.68 295.06 113.176 294.682C112.672 294.304 112.21 293.842 111.79 293.296C111.37 292.75 110.971 292.162 110.593 291.532L105.301 283.027H101.962V295.123C101.5 295.249 100.765 295.375 99.757 295.501C98.791 295.627 97.825 295.69 96.859 295.69C95.893 295.69 95.032 295.606 94.276 295.438C93.562 295.312 92.953 295.06 92.449 294.682ZM93.0964 301.322C91.6399 301.046 90.1715 300.474 88.849 299.482L88.7476 299.406L88.6496 299.326C87.2168 298.153 86.3085 296.676 85.76 295.214C85.1595 293.612 85 291.936 85 290.461V260.788C85 258.887 85.5142 256.465 87.4504 254.529C88.7276 253.252 90.237 252.434 91.719 251.915C93.6508 251.234 95.7495 250.797 97.9577 250.548C100.121 250.263 102.382 250.126 104.734 250.126C111.234 250.126 117.215 251.472 121.666 255.16C123.405 256.601 124.79 258.251 125.832 260.071C126.655 258.927 127.576 257.863 128.601 256.887C128.602 256.886 128.603 256.885 128.604 256.884C131.016 254.585 133.823 252.852 136.967 251.693L136.983 251.687L136.999 251.681C140.144 250.543 143.466 250 146.916 250C150.36 250 153.668 250.54 156.787 251.687C159.956 252.837 162.784 254.56 165.205 256.861C165.971 257.576 166.677 258.339 167.327 259.146C167.579 257.609 168.235 255.94 169.646 254.529C170.923 253.252 172.432 252.434 173.914 251.915C175.927 251.205 178.2 250.778 180.615 250.538C182.984 250.262 185.404 250.126 187.874 250.126C193.783 250.126 199.209 251.094 203.459 253.743C206.084 255.379 207.964 257.543 209.139 260.065C209.961 258.923 210.882 257.859 211.906 256.884C214.319 254.585 217.125 252.852 220.27 251.693L220.286 251.687L220.302 251.681C223.447 250.543 226.769 250 230.219 250C233.663 250 236.971 250.541 240.09 251.687C243.259 252.837 246.087 254.56 248.508 256.861C250.157 258.4 251.533 260.164 252.652 262.117C253.998 260.044 255.612 258.2 257.506 256.621C260.166 254.397 263.179 252.747 266.5 251.676L266.513 251.671L266.527 251.667C269.759 250.641 273.08 250.126 276.469 250.126C280.987 250.126 285.269 250.843 288.809 252.821C290.73 253.86 292.49 255.303 293.714 257.17C294.21 256.231 294.854 255.342 295.666 254.529C298.077 252.119 301.162 251.197 304.193 251.197H328.277L329.839 253.653C330.992 252.705 332.292 252.039 333.602 251.588C335.495 250.935 337.463 250.63 339.464 250.63C341.646 250.63 343.782 250.981 345.832 251.714C347.937 252.42 349.587 253.674 350.852 255.194V252.614L355.273 251.408C356.124 251.176 357.131 251.009 358.12 250.874L358.137 250.872L358.155 250.869C359.364 250.712 360.569 250.63 361.766 250.63C364.168 250.63 366.961 251.037 369.343 252.664C371.888 254.363 372.883 256.932 373.245 259.174C373.867 258.387 374.538 257.64 375.259 256.936L375.284 256.911L375.31 256.887C377.723 254.586 380.53 252.852 383.676 251.693C386.78 250.55 390.048 250 393.436 250C397.807 250 402.027 250.688 405.448 252.732C406.535 253.374 407.552 254.149 408.435 255.058C408.593 254.879 408.758 254.702 408.931 254.529C411.341 252.119 414.427 251.197 417.458 251.197H441.541L443.31 253.976C443.996 255.055 444.44 256.213 444.745 257.278C445.178 258.63 445.382 260.02 445.382 261.418C445.382 263.646 444.924 266.784 442.492 269.124C442.367 269.246 442.241 269.364 442.112 269.477C442.484 270.232 442.758 270.999 442.968 271.724C443.42 273.08 443.618 274.469 443.618 275.845C443.618 277.475 443.386 279.643 442.271 281.62L443.562 283.649C444.249 284.728 444.692 285.887 444.997 286.952C445.43 288.304 445.634 289.694 445.634 291.091C445.634 293.385 445.149 296.455 442.805 298.799C440.795 300.809 438.249 301.564 435.854 301.564H417.458C414.427 301.564 411.341 300.642 408.931 298.232C408.796 298.097 408.666 297.959 408.54 297.82C407.772 298.593 406.914 299.259 406.023 299.821L406.008 299.83L405.993 299.839C402.676 301.903 398.418 302.509 394.129 302.509C390.741 302.509 387.471 302.027 384.352 301.023C381.128 299.985 378.225 298.366 375.723 296.148L375.694 296.123L375.666 296.098C374.864 295.368 374.121 294.587 373.436 293.758V296.537L371.678 298.295C370.125 299.848 368.221 300.684 366.487 301.149C364.697 301.682 362.79 301.879 360.884 301.879C358.726 301.879 356.612 301.557 354.576 300.878C352.391 300.15 350.709 298.817 349.433 297.24V299.706L345.011 300.912C344.141 301.149 343.098 301.316 342.083 301.448C340.899 301.609 339.71 301.69 338.519 301.69C337.335 301.69 336.156 301.61 335.019 301.41C333.509 301.143 331.91 300.544 330.498 299.389C330.21 299.153 329.941 298.904 329.691 298.645C329.642 298.696 329.592 298.748 329.541 298.799C327.53 300.809 324.985 301.564 322.589 301.564H304.193C301.162 301.564 298.077 300.642 295.666 298.232C295.162 297.728 294.723 297.194 294.344 296.637C293.378 297.646 292.268 298.429 291.21 299.046L291.187 299.059L291.164 299.072C290.225 299.609 289.186 300.071 288.118 300.478L288 300.523L287.879 300.563C286.763 300.935 285.59 301.24 284.372 301.488C283.087 301.791 281.76 302.012 280.396 302.159C279.047 302.308 277.696 302.383 276.343 302.383C272.787 302.383 269.364 301.913 266.106 300.93L266.064 300.918L266.023 300.905C262.701 299.85 259.693 298.257 257.077 296.086L257.023 296.042L256.971 295.997C255.22 294.474 253.731 292.724 252.498 290.773C251.424 292.581 250.127 294.227 248.598 295.685L248.595 295.688C246.192 297.976 243.366 299.681 240.2 300.828C237.045 301.97 233.701 302.509 230.219 302.509C226.738 302.509 223.393 301.97 220.239 300.828L220.196 300.812L220.153 300.796C216.991 299.596 214.177 297.841 211.79 295.51C211.031 294.769 210.33 293.981 209.685 293.148C208.479 295.215 206.78 297.015 204.558 298.456L204.55 298.461L204.541 298.467C200.092 301.332 194.328 302.383 188 302.383C187.175 302.383 186.244 302.359 185.22 302.314C184.089 302.265 182.929 302.168 181.741 302.025L181.727 302.023L181.712 302.022C180.579 301.88 179.449 301.693 178.322 301.461C177.001 301.233 175.711 300.887 174.475 300.396C172.58 299.666 170.685 298.486 169.269 296.607C168.456 295.527 167.907 294.357 167.579 293.152C166.885 294.049 166.124 294.895 165.295 295.685L165.292 295.688C162.89 297.976 160.063 299.681 156.897 300.828C153.743 301.97 150.398 302.509 146.916 302.509C143.435 302.509 140.09 301.97 136.936 300.828L136.893 300.812L136.851 300.796C133.688 299.596 130.874 297.841 128.487 295.51C128.411 295.436 128.335 295.361 128.26 295.286C127.405 296.986 126.163 298.484 124.504 299.652L124.485 299.665L124.466 299.678C122.325 301.16 119.884 301.879 117.334 301.879C115.981 301.879 114.55 301.728 113.15 301.291C111.903 300.901 110.687 300.315 109.576 299.482C108.991 299.043 108.454 298.56 107.962 298.041V299.706L103.541 300.912C102.647 301.155 101.562 301.322 100.517 301.453C99.3013 301.611 98.0814 301.69 96.859 301.69C95.5993 301.69 94.3311 301.585 93.0964 301.322ZM127.009 276.396C127.027 279.56 127.53 282.379 128.52 284.854C129.528 287.374 130.914 289.495 132.678 291.217C134.442 292.939 136.542 294.262 138.978 295.186C141.414 296.068 144.06 296.509 146.916 296.509C149.772 296.509 152.418 296.068 154.854 295.186C157.29 294.304 159.39 293.023 161.154 291.343C162.96 289.621 164.367 287.5 165.375 284.98C166.383 282.418 166.887 279.499 166.887 276.223C166.887 272.947 166.362 270.049 165.312 267.529C164.304 265.009 162.897 262.909 161.091 261.229C159.285 259.507 157.164 258.205 154.728 257.323C152.334 256.441 149.73 256 146.916 256C144.102 256 141.477 256.441 139.041 257.323C136.647 258.205 134.547 259.507 132.741 261.229C130.977 262.909 129.57 265.009 128.52 267.529C128.411 267.802 128.308 268.08 128.211 268.362C128.063 268.788 127.93 269.224 127.809 269.671C127.275 271.655 127.008 273.839 127.008 276.223C127.008 276.281 127.009 276.339 127.009 276.396ZM153.216 267.718C151.704 265.828 149.625 264.883 146.979 264.883C144.375 264.883 142.275 265.828 140.679 267.718C139.125 269.566 138.348 272.401 138.348 276.223C138.348 280.045 139.125 282.901 140.679 284.791C142.233 286.681 144.312 287.626 146.916 287.626C149.562 287.626 151.662 286.681 153.216 284.791C154.77 282.901 155.547 280.045 155.547 276.223C155.547 272.443 154.77 269.608 153.216 267.718ZM145.269 271.583C145.021 271.881 144.348 273.049 144.348 276.223C144.348 279.394 145.019 280.622 145.314 280.98C145.647 281.385 145.975 281.626 146.916 281.626C147.935 281.626 148.269 281.36 148.582 280.98C148.876 280.622 149.547 279.394 149.547 276.223C149.547 273.114 148.884 271.897 148.582 271.529L148.556 271.498L148.531 271.466C148.274 271.144 147.997 270.883 146.979 270.883C146.04 270.883 145.656 271.126 145.269 271.583ZM176.66 294.808C177.5 295.144 178.424 295.396 179.432 295.564C180.44 295.774 181.448 295.942 182.456 296.068C183.506 296.194 184.514 296.278 185.48 296.32C186.446 296.362 187.286 296.383 188 296.383C193.796 296.383 198.227 295.396 201.293 293.422C203.926 291.714 205.444 289.238 205.846 285.993C205.919 285.408 205.955 284.797 205.955 284.161C205.955 282.172 205.445 280.469 204.424 279.051C204.392 279.006 204.359 278.962 204.326 278.918C204.167 278.706 203.996 278.501 203.813 278.302C202.427 276.748 200.684 275.677 198.584 275.089C200.432 274.459 201.902 273.472 202.994 272.128C203.33 271.703 203.613 271.253 203.846 270.78C204.37 269.713 204.632 268.524 204.632 267.214C204.632 263.434 203.183 260.641 200.285 258.835C197.387 257.029 193.25 256.126 187.874 256.126C185.606 256.126 183.401 256.252 181.259 256.504C179.117 256.714 177.332 257.071 175.904 257.575C175.064 257.869 174.392 258.268 173.888 258.772C173.426 259.234 173.195 259.906 173.195 260.788V290.209C173.195 292.393 174.35 293.926 176.66 294.808ZM192.41 271.12C192.568 270.994 192.711 270.857 192.839 270.709C193.393 270.067 193.67 269.217 193.67 268.159C193.67 267.025 193.187 266.122 192.221 265.45C191.297 264.778 189.89 264.442 188 264.442C187.37 264.442 186.635 264.463 185.795 264.505C184.997 264.547 184.367 264.61 183.905 264.694V272.128H188.504C188.563 272.128 188.621 272.128 188.678 272.127C189.118 272.122 189.527 272.095 189.905 272.049C191.001 271.913 191.836 271.603 192.41 271.12ZM210.328 277.221C210.412 279.766 210.824 282.079 211.562 284.161C211.645 284.395 211.732 284.626 211.823 284.854C211.86 284.945 211.897 285.036 211.934 285.126C212.932 287.527 214.281 289.557 215.981 291.217C217.745 292.939 219.845 294.262 222.281 295.186C224.717 296.068 227.363 296.509 230.219 296.509C233.075 296.509 235.721 296.068 238.157 295.186C240.593 294.304 242.693 293.023 244.457 291.343C246.263 289.621 247.67 287.5 248.678 284.98C248.915 284.379 249.123 283.759 249.304 283.119C249.865 281.135 250.16 278.962 250.188 276.601C250.189 276.476 250.19 276.35 250.19 276.223C250.19 273.86 249.917 271.695 249.371 269.725C249.16 268.964 248.908 268.232 248.615 267.529C247.607 265.009 246.2 262.909 244.394 261.229C242.588 259.507 240.467 258.205 238.031 257.323C235.637 256.441 233.033 256 230.219 256C227.405 256 224.78 256.441 222.344 257.323C219.95 258.205 217.85 259.507 216.044 261.229C214.28 262.909 212.873 265.009 211.823 267.529C210.815 270.049 210.311 272.947 210.311 276.223C210.311 276.56 210.317 276.892 210.328 277.221ZM236.519 267.718C235.007 265.828 232.928 264.883 230.282 264.883C227.678 264.883 225.578 265.828 223.982 267.718C222.428 269.566 221.651 272.401 221.651 276.223C221.651 280.045 222.428 282.901 223.982 284.791C225.536 286.681 227.615 287.626 230.219 287.626C232.865 287.626 234.965 286.681 236.519 284.791C238.073 282.901 238.85 280.045 238.85 276.223C238.85 272.443 238.073 269.608 236.519 267.718ZM228.572 271.583C228.323 271.881 227.651 273.049 227.651 276.223C227.651 279.394 228.322 280.622 228.617 280.98C228.95 281.385 229.278 281.626 230.219 281.626C231.237 281.626 231.572 281.36 231.885 280.98C232.179 280.622 232.85 279.394 232.85 276.223C232.85 273.114 232.187 271.897 231.885 271.529L231.859 271.498L231.834 271.466C231.577 271.144 231.3 270.883 230.282 270.883C229.343 270.883 228.959 271.126 228.572 271.583ZM255.564 269.82C254.959 271.747 254.641 273.881 254.611 276.223C254.609 276.348 254.608 276.474 254.608 276.601C254.608 278.967 254.904 281.124 255.495 283.074C255.723 283.824 255.994 284.543 256.309 285.232C257.443 287.71 258.976 289.789 260.908 291.469C262.882 293.107 265.192 294.346 267.838 295.186C270.484 295.984 273.319 296.383 276.343 296.383C277.477 296.383 278.611 296.32 279.745 296.194C280.921 296.068 282.034 295.879 283.084 295.627C284.134 295.417 285.1 295.165 285.982 294.871C286.864 294.535 287.599 294.199 288.187 293.863C289.195 293.275 289.93 292.666 290.392 292.036C290.854 291.406 291.085 290.44 291.085 289.138V276.286C291.085 275.026 290.728 274.06 290.014 273.388C289.898 273.265 289.773 273.152 289.64 273.05C289 272.561 288.158 272.317 287.116 272.317H276.469C275.377 272.317 274.474 272.653 273.76 273.325C273.088 273.997 272.752 275.089 272.752 276.601C272.752 277.441 272.857 278.239 273.067 278.995C273.319 279.751 273.571 280.36 273.823 280.822H280.564V286.744C280.517 286.77 280.467 286.796 280.414 286.822C280.046 287.001 279.551 287.164 278.926 287.311C278.212 287.479 277.393 287.563 276.469 287.563C275.041 287.563 273.697 287.353 272.437 286.933C272.34 286.897 272.243 286.86 272.147 286.822C271.107 286.406 270.17 285.842 269.338 285.129C269.257 285.06 269.177 284.989 269.098 284.917C268.132 283.993 267.355 282.838 266.767 281.452C266.221 280.024 265.948 278.344 265.948 276.412C265.948 272.842 266.977 270.049 269.035 268.033C271.135 266.017 273.949 265.009 277.477 265.009C279.451 265.009 281.215 265.324 282.769 265.954C283.095 266.074 283.41 266.195 283.713 266.317C284.894 266.792 285.903 267.28 286.738 267.781C286.867 267.698 286.993 267.609 287.116 267.515C287.532 267.196 287.918 266.816 288.272 266.373C288.394 266.22 288.513 266.059 288.628 265.891C289.138 265.146 289.41 264.273 289.443 263.272C289.446 263.201 289.447 263.129 289.447 263.056C289.447 262.829 289.433 262.607 289.404 262.39C289.174 260.637 288.012 259.2 285.919 258.079C283.609 256.777 280.459 256.126 276.469 256.126C273.697 256.126 270.988 256.546 268.342 257.386C265.738 258.226 263.407 259.507 261.349 261.229C259.333 262.909 257.695 265.03 256.435 267.592C256.098 268.301 255.808 269.044 255.564 269.82ZM325.046 264.82C325.76 264.148 326.117 263.014 326.117 261.418C326.117 260.578 325.991 259.78 325.739 259.024C325.529 258.268 325.277 257.659 324.983 257.197H304.193C302.387 257.197 300.959 257.722 299.909 258.772C298.859 259.822 298.334 261.25 298.334 263.056V289.705C298.334 291.511 298.859 292.939 299.909 293.989C300.959 295.039 302.387 295.564 304.193 295.564H322.589C323.723 295.564 324.626 295.228 325.298 294.556C326.012 293.842 326.369 292.687 326.369 291.091C326.369 290.251 326.243 289.453 325.991 288.697C325.781 287.941 325.529 287.332 325.235 286.87H309.044V280.255H320.636C321.77 280.255 322.673 279.919 323.345 279.247C324.017 278.575 324.353 277.441 324.353 275.845C324.353 275.005 324.227 274.228 323.975 273.514C323.78 272.812 323.549 272.237 323.281 271.788C323.261 271.754 323.24 271.72 323.219 271.687H309.044V265.828H322.337C322.648 265.828 322.942 265.803 323.219 265.752C323.319 265.734 323.417 265.712 323.512 265.687C324.114 265.53 324.625 265.241 325.046 264.82ZM341.291 295.501C342.257 295.375 342.971 295.249 343.433 295.123V285.358C343.433 283.858 343.423 282.339 343.405 280.802C343.405 280.795 343.405 280.788 343.405 280.781C343.395 280.001 343.384 279.217 343.37 278.428C343.37 277.702 343.362 276.98 343.346 276.262C343.345 276.252 343.345 276.243 343.345 276.234C343.31 274.663 343.236 273.112 343.124 271.58C343.122 271.552 343.12 271.525 343.118 271.498L343.496 271.435C343.5 271.446 343.504 271.458 343.509 271.469C344.092 272.967 344.633 274.3 345.134 275.467C345.54 276.381 345.987 277.349 346.475 278.373C346.484 278.391 346.493 278.409 346.501 278.428C346.611 278.656 346.722 278.887 346.835 279.121L353.072 291.847C353.954 293.611 355.088 294.724 356.474 295.186C357.86 295.648 359.33 295.879 360.884 295.879C362.438 295.879 363.761 295.711 364.853 295.375C365.987 295.081 366.848 294.64 367.436 294.052V261.67C367.436 259.612 366.953 258.268 365.987 257.638C365.021 256.966 363.614 256.63 361.766 256.63C360.842 256.63 359.897 256.693 358.931 256.819C358.007 256.945 357.314 257.071 356.852 257.197V267.403C356.852 268.853 356.86 270.303 356.877 271.753C356.878 271.766 356.878 271.778 356.878 271.79C356.887 272.596 356.9 273.401 356.915 274.207C356.928 274.922 356.947 275.636 356.973 276.351C356.973 276.36 356.974 276.369 356.974 276.378C357.029 277.903 357.113 279.428 357.225 280.953C357.227 280.972 357.228 280.992 357.23 281.011L356.915 281.074C356.91 281.061 356.905 281.048 356.9 281.035C356.317 279.539 355.776 278.229 355.277 277.105C354.887 276.195 354.459 275.247 353.993 274.261C353.857 273.973 353.718 273.682 353.576 273.388L347.276 260.662C346.436 258.94 345.302 257.848 343.874 257.386C342.488 256.882 341.018 256.63 339.464 256.63C338.078 256.63 336.776 256.84 335.558 257.26C334.34 257.68 333.437 258.31 332.849 259.15V290.65C332.849 291.7 332.975 292.561 333.227 293.233C333.479 293.863 333.836 294.367 334.298 294.745C334.76 295.123 335.348 295.375 336.062 295.501C336.776 295.627 337.595 295.69 338.519 295.69C339.443 295.69 340.367 295.627 341.291 295.501ZM405.662 291.06C405.667 291.029 405.672 290.998 405.676 290.967C405.706 290.76 405.721 290.55 405.721 290.335C405.721 290.119 405.713 289.909 405.697 289.705C405.691 289.631 405.684 289.558 405.676 289.485C405.656 289.311 405.631 289.14 405.599 288.975C405.495 288.437 405.326 287.946 405.091 287.5C404.713 286.66 404.167 285.946 403.453 285.358C402.361 285.946 401.206 286.471 399.988 286.933C398.812 287.395 397.363 287.626 395.641 287.626C392.407 287.626 389.824 286.639 387.892 284.665C386.002 282.691 385.057 279.877 385.057 276.223C385.057 272.611 385.918 269.818 387.64 267.844C389.362 265.87 391.84 264.883 395.074 264.883C396.712 264.883 398.14 265.135 399.358 265.639C400.618 266.143 401.794 266.752 402.886 267.466C403.6 267.004 404.23 266.374 404.776 265.576C405.214 264.936 405.477 264.201 405.563 263.372C405.585 263.167 405.595 262.957 405.595 262.741C405.595 262.506 405.58 262.276 405.55 262.052C405.325 260.387 404.27 259 402.382 257.89C400.282 256.63 397.3 256 393.436 256C390.706 256 388.144 256.441 385.75 257.323C383.356 258.205 381.256 259.507 379.45 261.229C377.686 262.951 376.279 265.072 375.229 267.592C374.221 270.07 373.717 272.947 373.717 276.223C373.717 279.751 374.242 282.796 375.292 285.358C376.384 287.878 377.854 289.978 379.702 291.658C381.55 293.296 383.713 294.514 386.191 295.312C388.669 296.11 391.315 296.509 394.129 296.509C398.035 296.509 400.933 295.921 402.823 294.745C404.478 293.702 405.425 292.473 405.662 291.06ZM405.599 272.858L402.869 274.624L399.603 272.488C398.857 272 398.036 271.572 397.13 271.21L397.097 271.197L397.064 271.183C396.727 271.044 396.11 270.883 395.074 270.883C393.133 270.883 392.483 271.42 392.162 271.788C391.701 272.316 391.057 273.512 391.057 276.223C391.057 278.828 391.707 279.96 392.205 280.493C392.816 281.106 393.748 281.626 395.641 281.626C396.867 281.626 397.521 281.456 397.794 281.348L397.827 281.336L397.861 281.323C398.845 280.95 399.76 280.532 400.609 280.075L404.157 278.165L405.599 279.352V272.858ZM411.599 263.056C411.599 261.25 412.124 259.822 413.174 258.772C414.224 257.722 415.652 257.197 417.458 257.197H438.248C438.542 257.659 438.794 258.268 439.004 259.024C439.256 259.78 439.382 260.578 439.382 261.418C439.382 263.014 439.025 264.148 438.311 264.82C437.89 265.241 437.379 265.53 436.777 265.687C436.682 265.712 436.584 265.734 436.484 265.752C436.207 265.803 435.913 265.828 435.602 265.828H422.309V271.687H436.484C436.505 271.72 436.525 271.754 436.546 271.788C436.813 272.237 437.045 272.812 437.24 273.514C437.492 274.228 437.618 275.005 437.618 275.845C437.618 277.441 437.282 278.575 436.61 279.247C435.938 279.919 435.035 280.255 433.901 280.255H422.309V286.87H438.5C438.794 287.332 439.046 287.941 439.256 288.697C439.508 289.453 439.634 290.251 439.634 291.091C439.634 292.687 439.277 293.842 438.563 294.556C437.891 295.228 436.988 295.564 435.854 295.564H417.458C415.652 295.564 414.224 295.039 413.174 293.989C412.391 293.206 411.9 292.213 411.701 291.01C411.664 290.792 411.638 290.567 411.621 290.335C411.606 290.13 411.599 289.92 411.599 289.705V263.056ZM109.522 266.206C109.092 265.848 108.551 265.566 107.899 265.36C107.706 265.299 107.504 265.245 107.292 265.198C106.54 265.03 105.666 264.946 104.671 264.946C104.041 264.946 103.537 264.967 103.159 265.009C102.781 265.051 102.361 265.114 101.899 265.198V274.648H105.931C106.656 274.648 107.312 274.566 107.899 274.401C108.603 274.203 109.207 273.886 109.711 273.451C110.635 272.611 111.097 271.393 111.097 269.797C111.097 268.201 110.572 267.004 109.522 266.206ZM189.905 279.835C191.381 279.911 192.51 280.198 193.292 280.696C194.216 281.284 194.678 282.271 194.678 283.657C194.678 285.127 194.111 286.219 192.977 286.933C191.885 287.605 190.499 287.941 188.819 287.941C187.979 287.941 187.097 287.92 186.173 287.878C185.249 287.794 184.493 287.668 183.905 287.5V279.814H189.071C189.361 279.814 189.639 279.821 189.905 279.835Z" fill="#000072"/>
</svg>
