<svg width="681" height="115" viewBox="0 0 681 115" fill="none" xmlns="http://www.w3.org/2000/svg">
<g id="Frame 6">
<g id="Group 2">
<g id="logo">
<path id="Ellipse 2" d="M122.867 65.8266C125.759 65.8266 128.203 63.6009 128.203 60.735C128.203 57.8691 125.759 55.6433 122.867 55.6433C119.976 55.6433 117.531 57.8691 117.531 60.735C117.531 63.6009 119.976 65.8266 122.867 65.8266Z" fill="#9381FF" stroke="#336699" stroke-width="2"/>
<path id="Union" d="M104.691 28.1567C101.433 29.7683 98.4518 31.8033 95.8282 34.1894V23C95.8282 20.2386 93.5896 18 90.8282 18H89C86.2386 18 84 20.2386 84 23V60.4088C83.9983 61.5195 84.0503 62.6329 84.1567 63.7455L84.251 64.7306L85.2371 64.6466L95.4308 63.7783L96.4376 63.6925L96.3413 62.6867C95.8752 57.8142 96.9501 52.9174 99.4356 48.614C101.922 44.3098 105.71 40.7888 110.329 38.5043C114.949 36.2197 120.187 35.2773 125.38 35.8003C130.572 36.3233 135.478 38.2872 139.477 41.4363L140.22 42.0206L140.845 41.313L147.403 33.8971L148.104 33.104L147.272 32.449C141.413 27.8352 134.241 24.9693 126.666 24.2064C119.091 23.4435 111.445 24.8168 104.691 28.1567Z" fill="#92C9B1" stroke="#336699" stroke-width="2"/>
<path id="Union_2" d="M144.282 69.6789L147.2 69.7264C145.646 73.3669 143.197 76.6337 140.028 79.2452C135.908 82.6405 130.773 84.7618 125.32 85.3122C119.866 85.8626 114.368 84.8145 109.574 82.3148C104.781 79.8154 100.929 75.9892 98.5341 71.365L98.0947 70.5168L97.2273 70.9169L88.3008 75.0342L87.3502 75.4727L87.8317 76.4022C91.319 83.1348 96.913 88.6806 103.844 92.2947C110.775 95.9085 118.712 97.4188 126.577 96.6249C134.443 95.831 141.866 92.7703 147.836 87.8504C153.53 83.1572 157.64 76.9876 159.657 70.1086L158.698 69.8272L159.657 70.1086C159.767 69.734 159.756 69.3623 159.655 69.0252C159.872 68.7055 160 68.3191 160 67.9018V65.0077C160 62.2463 157.761 60.0077 155 60.0077H146.222C145.818 47.8389 135.302 38.4589 122.867 38.4589C110.186 38.4589 99.5 48.2147 99.5 60.735C99.5 73.2553 110.186 83.0111 122.867 83.0111C132.315 83.0111 140.636 77.6083 144.282 69.6789ZM107.5 60.735C107.5 53.0628 114.162 46.4589 122.867 46.4589C131.573 46.4589 138.234 53.0628 138.234 60.735C138.234 68.4071 131.573 75.0111 122.867 75.0111C114.162 75.0111 107.5 68.4071 107.5 60.735Z" fill="#FAF0CA" stroke="#336699" stroke-width="2"/>
</g>
<g id="R BOGENCE">
<mask id="path-4-outside-1_12_201" maskUnits="userSpaceOnUse" x="13" y="19" width="657" height="81" fill="black">
<rect fill="white" x="13" y="19" width="657" height="81"/>
<path d="M36.662 71.477V93.173C35.8333 93.399 34.515 93.625 32.707 93.851C30.9743 94.077 29.2417 94.19 27.509 94.19C25.7763 94.19 24.232 94.0393 22.876 93.738C21.5953 93.512 20.503 93.06 19.599 92.382C18.7703 91.704 18.13 90.7623 17.678 89.557C17.226 88.3517 17 86.7697 17 84.811V31.588C17 30.006 17.4143 28.8007 18.243 27.972C19.147 27.068 20.3523 26.3523 21.859 25.825C24.4203 24.921 27.396 24.2807 30.786 23.904C34.176 23.452 37.792 23.226 41.634 23.226C52.03 23.226 59.8647 25.4107 65.138 29.78C70.4113 34.1493 73.048 40.063 73.048 47.521C73.048 52.1917 71.8427 56.1843 69.432 59.499C67.0213 62.8137 64.1587 65.375 60.844 67.183C63.556 70.8743 66.2303 74.3397 68.867 77.579C71.5037 80.8183 73.5753 83.7563 75.082 86.393C74.3287 89.0297 72.935 91.0637 70.901 92.495C68.9423 93.851 66.72 94.529 64.234 94.529C62.5767 94.529 61.1453 94.3407 59.94 93.964C58.7347 93.5873 57.68 93.06 56.776 92.382C55.872 91.704 55.0433 90.8753 54.29 89.896C53.5367 88.9167 52.821 87.862 52.143 86.732L42.651 71.477H36.662ZM43.781 56.448C46.6437 56.448 48.9037 55.7323 50.561 54.301C52.2183 52.7943 53.047 50.6097 53.047 47.747C53.047 44.8843 52.1053 42.7373 50.222 41.306C48.414 39.7993 45.5137 39.046 41.521 39.046C40.391 39.046 39.487 39.0837 38.809 39.159C38.131 39.2343 37.3777 39.3473 36.549 39.498V56.448H43.781Z"/>
<path d="M186.496 79.5C187.55 79.8013 188.906 80.0273 190.564 80.178C192.221 80.2533 193.803 80.291 195.31 80.291C198.323 80.291 200.809 79.6883 202.768 78.483C204.802 77.2023 205.819 75.2437 205.819 72.607C205.819 70.121 204.99 68.3507 203.333 67.296C201.675 66.2413 199.152 65.714 195.762 65.714H186.496V79.5ZM186.496 51.928H194.745C197.984 51.928 200.319 51.3253 201.751 50.12C203.257 48.9147 204.011 47.1443 204.011 44.809C204.011 42.775 203.144 41.1553 201.412 39.95C199.754 38.7447 197.231 38.142 193.841 38.142C192.711 38.142 191.392 38.1797 189.886 38.255C188.454 38.3303 187.324 38.4433 186.496 38.594V51.928ZM193.841 95.433C192.56 95.433 191.053 95.3953 189.321 95.32C187.588 95.2447 185.78 95.094 183.897 94.868C182.089 94.642 180.281 94.3407 178.473 93.964C176.665 93.6627 175.007 93.2107 173.501 92.608C169.357 91.026 167.286 88.2763 167.286 84.359V31.588C167.286 30.006 167.7 28.8007 168.529 27.972C169.433 27.068 170.638 26.3523 172.145 25.825C174.706 24.921 177.908 24.2807 181.75 23.904C185.592 23.452 189.547 23.226 193.615 23.226C203.257 23.226 210.678 24.8457 215.876 28.085C221.074 31.3243 223.673 36.334 223.673 43.114C223.673 46.504 222.693 49.442 220.735 51.928C218.776 54.3387 216.139 56.109 212.825 57.239C216.591 58.2937 219.718 60.2147 222.204 63.002C224.765 65.7893 226.046 69.2923 226.046 73.511C226.046 80.969 223.258 86.506 217.684 90.122C212.184 93.6627 204.237 95.433 193.841 95.433Z"/>
<path d="M237.248 59.273C237.248 53.397 238.152 48.199 239.96 43.679C241.844 39.159 244.367 35.3923 247.531 32.379C250.771 29.2903 254.537 26.955 258.831 25.373C263.201 23.791 267.909 23 272.956 23C278.004 23 282.674 23.791 286.968 25.373C291.338 26.955 295.142 29.2903 298.381 32.379C301.621 35.3923 304.144 39.159 305.952 43.679C307.836 48.199 308.777 53.397 308.777 59.273C308.777 65.149 307.873 70.3847 306.065 74.98C304.257 79.5 301.734 83.3043 298.494 86.393C295.33 89.4063 291.564 91.704 287.194 93.286C282.825 94.868 278.079 95.659 272.956 95.659C267.834 95.659 263.088 94.868 258.718 93.286C254.349 91.6287 250.582 89.2557 247.418 86.167C244.254 83.0783 241.768 79.274 239.96 74.754C238.152 70.234 237.248 65.0737 237.248 59.273ZM257.588 59.273C257.588 66.1283 258.982 71.251 261.769 74.641C264.557 78.031 268.286 79.726 272.956 79.726C277.702 79.726 281.469 78.031 284.256 74.641C287.044 71.251 288.437 66.1283 288.437 59.273C288.437 52.493 287.044 47.408 284.256 44.018C281.544 40.628 277.815 38.933 273.069 38.933C268.399 38.933 264.632 40.628 261.769 44.018C258.982 47.3327 257.588 52.4177 257.588 59.273Z"/>
<path d="M385.519 82.438C385.519 84.7733 385.104 86.506 384.276 87.636C383.447 88.766 382.129 89.8583 380.321 90.913C379.266 91.5157 377.948 92.1183 376.366 92.721C374.784 93.2483 373.051 93.7003 371.168 94.077C369.284 94.529 367.288 94.868 365.179 95.094C363.145 95.32 361.111 95.433 359.077 95.433C353.653 95.433 348.568 94.7173 343.822 93.286C339.076 91.7793 334.932 89.557 331.392 86.619C327.926 83.6057 325.177 79.8767 323.143 75.432C321.109 70.9873 320.092 65.827 320.092 59.951C320.092 53.7737 321.184 48.3873 323.369 43.792C325.629 39.1967 328.567 35.3923 332.183 32.379C335.874 29.2903 340.055 26.9927 344.726 25.486C349.472 23.9793 354.331 23.226 359.303 23.226C366.459 23.226 372.109 24.3937 376.253 26.729C380.471 28.989 382.581 31.9647 382.581 35.656C382.581 37.6147 382.091 39.3097 381.112 40.741C380.132 42.1723 379.002 43.3023 377.722 44.131C375.838 43.001 373.465 41.9087 370.603 40.854C367.815 39.724 364.651 39.159 361.111 39.159C354.783 39.159 349.735 40.967 345.969 44.583C342.277 48.199 340.432 53.2087 340.432 59.612C340.432 63.0773 340.921 66.0907 341.901 68.652C342.955 71.138 344.349 73.2097 346.082 74.867C347.814 76.449 349.811 77.6543 352.071 78.483C354.331 79.2363 356.741 79.613 359.303 79.613C360.96 79.613 362.429 79.4623 363.71 79.161C364.99 78.8597 365.97 78.5207 366.648 78.144V67.522H354.557C354.105 66.6933 353.653 65.601 353.201 64.245C352.824 62.889 352.636 61.4577 352.636 59.951C352.636 57.239 353.238 55.2803 354.444 54.075C355.724 52.8697 357.344 52.267 359.303 52.267H378.4C380.66 52.267 382.392 52.9073 383.598 54.188C384.878 55.3933 385.519 57.126 385.519 59.386V82.438Z"/>
<path d="M401.911 35.656C401.911 32.4167 402.852 29.8553 404.736 27.972C406.619 26.0887 409.18 25.147 412.42 25.147H449.71C450.237 25.9757 450.689 27.068 451.066 28.424C451.518 29.78 451.744 31.2113 451.744 32.718C451.744 35.5807 451.103 37.6147 449.823 38.82C448.617 40.0253 446.998 40.628 444.964 40.628H421.121V51.137H446.546C447.073 51.9657 447.525 53.058 447.902 54.414C448.354 55.6947 448.58 57.0883 448.58 58.595C448.58 61.4577 447.977 63.4917 446.772 64.697C445.566 65.9023 443.947 66.505 441.913 66.505H421.121V78.37H450.162C450.689 79.1987 451.141 80.291 451.518 81.647C451.97 83.003 452.196 84.4343 452.196 85.941C452.196 88.8037 451.555 90.8753 450.275 92.156C449.069 93.3613 447.45 93.964 445.416 93.964H412.42C409.18 93.964 406.619 93.0223 404.736 91.139C402.852 89.2557 401.911 86.6943 401.911 83.455V35.656Z"/>
<path d="M529.245 91.252C528.19 92.3067 526.646 93.0977 524.612 93.625C522.653 94.2277 520.28 94.529 517.493 94.529C514.706 94.529 512.069 94.1147 509.583 93.286C507.097 92.4573 505.063 90.461 503.481 87.297L492.294 64.471C491.164 62.1357 490.147 59.951 489.243 57.917C488.339 55.8077 487.36 53.397 486.305 50.685L485.627 50.798C485.928 54.866 486.079 59.0093 486.079 63.228C486.154 67.4467 486.192 71.59 486.192 75.658V93.173C485.363 93.399 484.083 93.625 482.35 93.851C480.693 94.077 479.035 94.19 477.378 94.19C475.721 94.19 474.252 94.077 472.971 93.851C471.69 93.625 470.636 93.173 469.807 92.495C468.978 91.817 468.338 90.913 467.886 89.783C467.434 88.5777 467.208 87.0333 467.208 85.15V28.65C468.263 27.1433 469.882 26.0133 472.067 25.26C474.252 24.5067 476.587 24.13 479.073 24.13C481.86 24.13 484.497 24.582 486.983 25.486C489.544 26.3147 491.578 28.2733 493.085 31.362L504.385 54.188C505.515 56.5233 506.532 58.7457 507.436 60.855C508.34 62.889 509.319 65.262 510.374 67.974L510.939 67.861C510.638 63.793 510.449 59.725 510.374 55.657C510.299 51.589 510.261 47.521 510.261 43.453V25.147C511.09 24.921 512.333 24.695 513.99 24.469C515.723 24.243 517.418 24.13 519.075 24.13C522.39 24.13 524.913 24.7327 526.646 25.938C528.379 27.068 529.245 29.4787 529.245 33.17V91.252Z"/>
<path d="M582.209 38.933C576.409 38.933 571.964 40.7033 568.875 44.244C565.787 47.7847 564.242 52.7943 564.242 59.273C564.242 65.827 565.937 70.8743 569.327 74.415C572.793 77.9557 577.426 79.726 583.226 79.726C586.315 79.726 588.914 79.3117 591.023 78.483C593.208 77.6543 595.28 76.7127 597.238 75.658C598.519 76.7127 599.498 77.9933 600.176 79.5C600.93 80.9313 601.306 82.6263 601.306 84.585C601.306 87.6737 599.574 90.3103 596.108 92.495C592.718 94.6043 587.52 95.659 580.514 95.659C575.467 95.659 570.721 94.9433 566.276 93.512C561.832 92.0807 557.952 89.896 554.637 86.958C551.323 83.9447 548.686 80.178 546.727 75.658C544.844 71.0627 543.902 65.601 543.902 59.273C543.902 53.397 544.806 48.2367 546.614 43.792C548.498 39.272 551.021 35.4677 554.185 32.379C557.425 29.2903 561.191 26.955 565.485 25.373C569.779 23.791 574.375 23 579.271 23C586.202 23 591.551 24.13 595.317 26.39C599.159 28.65 601.08 31.5503 601.08 35.091C601.08 37.0497 600.591 38.7447 599.611 40.176C598.632 41.6073 597.502 42.7373 596.221 43.566C594.263 42.2853 592.153 41.193 589.893 40.289C587.709 39.385 585.147 38.933 582.209 38.933Z"/>
<path d="M615.238 35.656C615.238 32.4167 616.18 29.8553 618.063 27.972C619.946 26.0887 622.508 25.147 625.747 25.147H663.037C663.564 25.9757 664.016 27.068 664.393 28.424C664.845 29.78 665.071 31.2113 665.071 32.718C665.071 35.5807 664.431 37.6147 663.15 38.82C661.945 40.0253 660.325 40.628 658.291 40.628H634.448V51.137H659.873C660.4 51.9657 660.852 53.058 661.229 54.414C661.681 55.6947 661.907 57.0883 661.907 58.595C661.907 61.4577 661.304 63.4917 660.099 64.697C658.894 65.9023 657.274 66.505 655.24 66.505H634.448V78.37H663.489C664.016 79.1987 664.468 80.291 664.845 81.647C665.297 83.003 665.523 84.4343 665.523 85.941C665.523 88.8037 664.883 90.8753 663.602 92.156C662.397 93.3613 660.777 93.964 658.743 93.964H625.747C622.508 93.964 619.946 93.0223 618.063 91.139C616.18 89.2557 615.238 86.6943 615.238 83.455V35.656Z"/>
</mask>
<path d="M36.662 71.477V93.173C35.8333 93.399 34.515 93.625 32.707 93.851C30.9743 94.077 29.2417 94.19 27.509 94.19C25.7763 94.19 24.232 94.0393 22.876 93.738C21.5953 93.512 20.503 93.06 19.599 92.382C18.7703 91.704 18.13 90.7623 17.678 89.557C17.226 88.3517 17 86.7697 17 84.811V31.588C17 30.006 17.4143 28.8007 18.243 27.972C19.147 27.068 20.3523 26.3523 21.859 25.825C24.4203 24.921 27.396 24.2807 30.786 23.904C34.176 23.452 37.792 23.226 41.634 23.226C52.03 23.226 59.8647 25.4107 65.138 29.78C70.4113 34.1493 73.048 40.063 73.048 47.521C73.048 52.1917 71.8427 56.1843 69.432 59.499C67.0213 62.8137 64.1587 65.375 60.844 67.183C63.556 70.8743 66.2303 74.3397 68.867 77.579C71.5037 80.8183 73.5753 83.7563 75.082 86.393C74.3287 89.0297 72.935 91.0637 70.901 92.495C68.9423 93.851 66.72 94.529 64.234 94.529C62.5767 94.529 61.1453 94.3407 59.94 93.964C58.7347 93.5873 57.68 93.06 56.776 92.382C55.872 91.704 55.0433 90.8753 54.29 89.896C53.5367 88.9167 52.821 87.862 52.143 86.732L42.651 71.477H36.662ZM43.781 56.448C46.6437 56.448 48.9037 55.7323 50.561 54.301C52.2183 52.7943 53.047 50.6097 53.047 47.747C53.047 44.8843 52.1053 42.7373 50.222 41.306C48.414 39.7993 45.5137 39.046 41.521 39.046C40.391 39.046 39.487 39.0837 38.809 39.159C38.131 39.2343 37.3777 39.3473 36.549 39.498V56.448H43.781Z" fill="#FAF0CA"/>
<path d="M186.496 79.5C187.55 79.8013 188.906 80.0273 190.564 80.178C192.221 80.2533 193.803 80.291 195.31 80.291C198.323 80.291 200.809 79.6883 202.768 78.483C204.802 77.2023 205.819 75.2437 205.819 72.607C205.819 70.121 204.99 68.3507 203.333 67.296C201.675 66.2413 199.152 65.714 195.762 65.714H186.496V79.5ZM186.496 51.928H194.745C197.984 51.928 200.319 51.3253 201.751 50.12C203.257 48.9147 204.011 47.1443 204.011 44.809C204.011 42.775 203.144 41.1553 201.412 39.95C199.754 38.7447 197.231 38.142 193.841 38.142C192.711 38.142 191.392 38.1797 189.886 38.255C188.454 38.3303 187.324 38.4433 186.496 38.594V51.928ZM193.841 95.433C192.56 95.433 191.053 95.3953 189.321 95.32C187.588 95.2447 185.78 95.094 183.897 94.868C182.089 94.642 180.281 94.3407 178.473 93.964C176.665 93.6627 175.007 93.2107 173.501 92.608C169.357 91.026 167.286 88.2763 167.286 84.359V31.588C167.286 30.006 167.7 28.8007 168.529 27.972C169.433 27.068 170.638 26.3523 172.145 25.825C174.706 24.921 177.908 24.2807 181.75 23.904C185.592 23.452 189.547 23.226 193.615 23.226C203.257 23.226 210.678 24.8457 215.876 28.085C221.074 31.3243 223.673 36.334 223.673 43.114C223.673 46.504 222.693 49.442 220.735 51.928C218.776 54.3387 216.139 56.109 212.825 57.239C216.591 58.2937 219.718 60.2147 222.204 63.002C224.765 65.7893 226.046 69.2923 226.046 73.511C226.046 80.969 223.258 86.506 217.684 90.122C212.184 93.6627 204.237 95.433 193.841 95.433Z" fill="#FAF0CA"/>
<path d="M237.248 59.273C237.248 53.397 238.152 48.199 239.96 43.679C241.844 39.159 244.367 35.3923 247.531 32.379C250.771 29.2903 254.537 26.955 258.831 25.373C263.201 23.791 267.909 23 272.956 23C278.004 23 282.674 23.791 286.968 25.373C291.338 26.955 295.142 29.2903 298.381 32.379C301.621 35.3923 304.144 39.159 305.952 43.679C307.836 48.199 308.777 53.397 308.777 59.273C308.777 65.149 307.873 70.3847 306.065 74.98C304.257 79.5 301.734 83.3043 298.494 86.393C295.33 89.4063 291.564 91.704 287.194 93.286C282.825 94.868 278.079 95.659 272.956 95.659C267.834 95.659 263.088 94.868 258.718 93.286C254.349 91.6287 250.582 89.2557 247.418 86.167C244.254 83.0783 241.768 79.274 239.96 74.754C238.152 70.234 237.248 65.0737 237.248 59.273ZM257.588 59.273C257.588 66.1283 258.982 71.251 261.769 74.641C264.557 78.031 268.286 79.726 272.956 79.726C277.702 79.726 281.469 78.031 284.256 74.641C287.044 71.251 288.437 66.1283 288.437 59.273C288.437 52.493 287.044 47.408 284.256 44.018C281.544 40.628 277.815 38.933 273.069 38.933C268.399 38.933 264.632 40.628 261.769 44.018C258.982 47.3327 257.588 52.4177 257.588 59.273Z" fill="#FAF0CA"/>
<path d="M385.519 82.438C385.519 84.7733 385.104 86.506 384.276 87.636C383.447 88.766 382.129 89.8583 380.321 90.913C379.266 91.5157 377.948 92.1183 376.366 92.721C374.784 93.2483 373.051 93.7003 371.168 94.077C369.284 94.529 367.288 94.868 365.179 95.094C363.145 95.32 361.111 95.433 359.077 95.433C353.653 95.433 348.568 94.7173 343.822 93.286C339.076 91.7793 334.932 89.557 331.392 86.619C327.926 83.6057 325.177 79.8767 323.143 75.432C321.109 70.9873 320.092 65.827 320.092 59.951C320.092 53.7737 321.184 48.3873 323.369 43.792C325.629 39.1967 328.567 35.3923 332.183 32.379C335.874 29.2903 340.055 26.9927 344.726 25.486C349.472 23.9793 354.331 23.226 359.303 23.226C366.459 23.226 372.109 24.3937 376.253 26.729C380.471 28.989 382.581 31.9647 382.581 35.656C382.581 37.6147 382.091 39.3097 381.112 40.741C380.132 42.1723 379.002 43.3023 377.722 44.131C375.838 43.001 373.465 41.9087 370.603 40.854C367.815 39.724 364.651 39.159 361.111 39.159C354.783 39.159 349.735 40.967 345.969 44.583C342.277 48.199 340.432 53.2087 340.432 59.612C340.432 63.0773 340.921 66.0907 341.901 68.652C342.955 71.138 344.349 73.2097 346.082 74.867C347.814 76.449 349.811 77.6543 352.071 78.483C354.331 79.2363 356.741 79.613 359.303 79.613C360.96 79.613 362.429 79.4623 363.71 79.161C364.99 78.8597 365.97 78.5207 366.648 78.144V67.522H354.557C354.105 66.6933 353.653 65.601 353.201 64.245C352.824 62.889 352.636 61.4577 352.636 59.951C352.636 57.239 353.238 55.2803 354.444 54.075C355.724 52.8697 357.344 52.267 359.303 52.267H378.4C380.66 52.267 382.392 52.9073 383.598 54.188C384.878 55.3933 385.519 57.126 385.519 59.386V82.438Z" fill="#FAF0CA"/>
<path d="M401.911 35.656C401.911 32.4167 402.852 29.8553 404.736 27.972C406.619 26.0887 409.18 25.147 412.42 25.147H449.71C450.237 25.9757 450.689 27.068 451.066 28.424C451.518 29.78 451.744 31.2113 451.744 32.718C451.744 35.5807 451.103 37.6147 449.823 38.82C448.617 40.0253 446.998 40.628 444.964 40.628H421.121V51.137H446.546C447.073 51.9657 447.525 53.058 447.902 54.414C448.354 55.6947 448.58 57.0883 448.58 58.595C448.58 61.4577 447.977 63.4917 446.772 64.697C445.566 65.9023 443.947 66.505 441.913 66.505H421.121V78.37H450.162C450.689 79.1987 451.141 80.291 451.518 81.647C451.97 83.003 452.196 84.4343 452.196 85.941C452.196 88.8037 451.555 90.8753 450.275 92.156C449.069 93.3613 447.45 93.964 445.416 93.964H412.42C409.18 93.964 406.619 93.0223 404.736 91.139C402.852 89.2557 401.911 86.6943 401.911 83.455V35.656Z" fill="#FAF0CA"/>
<path d="M529.245 91.252C528.19 92.3067 526.646 93.0977 524.612 93.625C522.653 94.2277 520.28 94.529 517.493 94.529C514.706 94.529 512.069 94.1147 509.583 93.286C507.097 92.4573 505.063 90.461 503.481 87.297L492.294 64.471C491.164 62.1357 490.147 59.951 489.243 57.917C488.339 55.8077 487.36 53.397 486.305 50.685L485.627 50.798C485.928 54.866 486.079 59.0093 486.079 63.228C486.154 67.4467 486.192 71.59 486.192 75.658V93.173C485.363 93.399 484.083 93.625 482.35 93.851C480.693 94.077 479.035 94.19 477.378 94.19C475.721 94.19 474.252 94.077 472.971 93.851C471.69 93.625 470.636 93.173 469.807 92.495C468.978 91.817 468.338 90.913 467.886 89.783C467.434 88.5777 467.208 87.0333 467.208 85.15V28.65C468.263 27.1433 469.882 26.0133 472.067 25.26C474.252 24.5067 476.587 24.13 479.073 24.13C481.86 24.13 484.497 24.582 486.983 25.486C489.544 26.3147 491.578 28.2733 493.085 31.362L504.385 54.188C505.515 56.5233 506.532 58.7457 507.436 60.855C508.34 62.889 509.319 65.262 510.374 67.974L510.939 67.861C510.638 63.793 510.449 59.725 510.374 55.657C510.299 51.589 510.261 47.521 510.261 43.453V25.147C511.09 24.921 512.333 24.695 513.99 24.469C515.723 24.243 517.418 24.13 519.075 24.13C522.39 24.13 524.913 24.7327 526.646 25.938C528.379 27.068 529.245 29.4787 529.245 33.17V91.252Z" fill="#FAF0CA"/>
<path d="M582.209 38.933C576.409 38.933 571.964 40.7033 568.875 44.244C565.787 47.7847 564.242 52.7943 564.242 59.273C564.242 65.827 565.937 70.8743 569.327 74.415C572.793 77.9557 577.426 79.726 583.226 79.726C586.315 79.726 588.914 79.3117 591.023 78.483C593.208 77.6543 595.28 76.7127 597.238 75.658C598.519 76.7127 599.498 77.9933 600.176 79.5C600.93 80.9313 601.306 82.6263 601.306 84.585C601.306 87.6737 599.574 90.3103 596.108 92.495C592.718 94.6043 587.52 95.659 580.514 95.659C575.467 95.659 570.721 94.9433 566.276 93.512C561.832 92.0807 557.952 89.896 554.637 86.958C551.323 83.9447 548.686 80.178 546.727 75.658C544.844 71.0627 543.902 65.601 543.902 59.273C543.902 53.397 544.806 48.2367 546.614 43.792C548.498 39.272 551.021 35.4677 554.185 32.379C557.425 29.2903 561.191 26.955 565.485 25.373C569.779 23.791 574.375 23 579.271 23C586.202 23 591.551 24.13 595.317 26.39C599.159 28.65 601.08 31.5503 601.08 35.091C601.08 37.0497 600.591 38.7447 599.611 40.176C598.632 41.6073 597.502 42.7373 596.221 43.566C594.263 42.2853 592.153 41.193 589.893 40.289C587.709 39.385 585.147 38.933 582.209 38.933Z" fill="#FAF0CA"/>
<path d="M615.238 35.656C615.238 32.4167 616.18 29.8553 618.063 27.972C619.946 26.0887 622.508 25.147 625.747 25.147H663.037C663.564 25.9757 664.016 27.068 664.393 28.424C664.845 29.78 665.071 31.2113 665.071 32.718C665.071 35.5807 664.431 37.6147 663.15 38.82C661.945 40.0253 660.325 40.628 658.291 40.628H634.448V51.137H659.873C660.4 51.9657 660.852 53.058 661.229 54.414C661.681 55.6947 661.907 57.0883 661.907 58.595C661.907 61.4577 661.304 63.4917 660.099 64.697C658.894 65.9023 657.274 66.505 655.24 66.505H634.448V78.37H663.489C664.016 79.1987 664.468 80.291 664.845 81.647C665.297 83.003 665.523 84.4343 665.523 85.941C665.523 88.8037 664.883 90.8753 663.602 92.156C662.397 93.3613 660.777 93.964 658.743 93.964H625.747C622.508 93.964 619.946 93.0223 618.063 91.139C616.18 89.2557 615.238 86.6943 615.238 83.455V35.656Z" fill="#FAF0CA"/>
<path d="M36.662 71.477V93.173C35.8333 93.399 34.515 93.625 32.707 93.851C30.9743 94.077 29.2417 94.19 27.509 94.19C25.7763 94.19 24.232 94.0393 22.876 93.738C21.5953 93.512 20.503 93.06 19.599 92.382C18.7703 91.704 18.13 90.7623 17.678 89.557C17.226 88.3517 17 86.7697 17 84.811V31.588C17 30.006 17.4143 28.8007 18.243 27.972C19.147 27.068 20.3523 26.3523 21.859 25.825C24.4203 24.921 27.396 24.2807 30.786 23.904C34.176 23.452 37.792 23.226 41.634 23.226C52.03 23.226 59.8647 25.4107 65.138 29.78C70.4113 34.1493 73.048 40.063 73.048 47.521C73.048 52.1917 71.8427 56.1843 69.432 59.499C67.0213 62.8137 64.1587 65.375 60.844 67.183C63.556 70.8743 66.2303 74.3397 68.867 77.579C71.5037 80.8183 73.5753 83.7563 75.082 86.393C74.3287 89.0297 72.935 91.0637 70.901 92.495C68.9423 93.851 66.72 94.529 64.234 94.529C62.5767 94.529 61.1453 94.3407 59.94 93.964C58.7347 93.5873 57.68 93.06 56.776 92.382C55.872 91.704 55.0433 90.8753 54.29 89.896C53.5367 88.9167 52.821 87.862 52.143 86.732L42.651 71.477H36.662ZM43.781 56.448C46.6437 56.448 48.9037 55.7323 50.561 54.301C52.2183 52.7943 53.047 50.6097 53.047 47.747C53.047 44.8843 52.1053 42.7373 50.222 41.306C48.414 39.7993 45.5137 39.046 41.521 39.046C40.391 39.046 39.487 39.0837 38.809 39.159C38.131 39.2343 37.3777 39.3473 36.549 39.498V56.448H43.781Z" stroke="#336699" stroke-width="8" mask="url(#path-4-outside-1_12_201)"/>
<path d="M186.496 79.5C187.55 79.8013 188.906 80.0273 190.564 80.178C192.221 80.2533 193.803 80.291 195.31 80.291C198.323 80.291 200.809 79.6883 202.768 78.483C204.802 77.2023 205.819 75.2437 205.819 72.607C205.819 70.121 204.99 68.3507 203.333 67.296C201.675 66.2413 199.152 65.714 195.762 65.714H186.496V79.5ZM186.496 51.928H194.745C197.984 51.928 200.319 51.3253 201.751 50.12C203.257 48.9147 204.011 47.1443 204.011 44.809C204.011 42.775 203.144 41.1553 201.412 39.95C199.754 38.7447 197.231 38.142 193.841 38.142C192.711 38.142 191.392 38.1797 189.886 38.255C188.454 38.3303 187.324 38.4433 186.496 38.594V51.928ZM193.841 95.433C192.56 95.433 191.053 95.3953 189.321 95.32C187.588 95.2447 185.78 95.094 183.897 94.868C182.089 94.642 180.281 94.3407 178.473 93.964C176.665 93.6627 175.007 93.2107 173.501 92.608C169.357 91.026 167.286 88.2763 167.286 84.359V31.588C167.286 30.006 167.7 28.8007 168.529 27.972C169.433 27.068 170.638 26.3523 172.145 25.825C174.706 24.921 177.908 24.2807 181.75 23.904C185.592 23.452 189.547 23.226 193.615 23.226C203.257 23.226 210.678 24.8457 215.876 28.085C221.074 31.3243 223.673 36.334 223.673 43.114C223.673 46.504 222.693 49.442 220.735 51.928C218.776 54.3387 216.139 56.109 212.825 57.239C216.591 58.2937 219.718 60.2147 222.204 63.002C224.765 65.7893 226.046 69.2923 226.046 73.511C226.046 80.969 223.258 86.506 217.684 90.122C212.184 93.6627 204.237 95.433 193.841 95.433Z" stroke="#336699" stroke-width="8" mask="url(#path-4-outside-1_12_201)"/>
<path d="M237.248 59.273C237.248 53.397 238.152 48.199 239.96 43.679C241.844 39.159 244.367 35.3923 247.531 32.379C250.771 29.2903 254.537 26.955 258.831 25.373C263.201 23.791 267.909 23 272.956 23C278.004 23 282.674 23.791 286.968 25.373C291.338 26.955 295.142 29.2903 298.381 32.379C301.621 35.3923 304.144 39.159 305.952 43.679C307.836 48.199 308.777 53.397 308.777 59.273C308.777 65.149 307.873 70.3847 306.065 74.98C304.257 79.5 301.734 83.3043 298.494 86.393C295.33 89.4063 291.564 91.704 287.194 93.286C282.825 94.868 278.079 95.659 272.956 95.659C267.834 95.659 263.088 94.868 258.718 93.286C254.349 91.6287 250.582 89.2557 247.418 86.167C244.254 83.0783 241.768 79.274 239.96 74.754C238.152 70.234 237.248 65.0737 237.248 59.273ZM257.588 59.273C257.588 66.1283 258.982 71.251 261.769 74.641C264.557 78.031 268.286 79.726 272.956 79.726C277.702 79.726 281.469 78.031 284.256 74.641C287.044 71.251 288.437 66.1283 288.437 59.273C288.437 52.493 287.044 47.408 284.256 44.018C281.544 40.628 277.815 38.933 273.069 38.933C268.399 38.933 264.632 40.628 261.769 44.018C258.982 47.3327 257.588 52.4177 257.588 59.273Z" stroke="#336699" stroke-width="8" mask="url(#path-4-outside-1_12_201)"/>
<path d="M385.519 82.438C385.519 84.7733 385.104 86.506 384.276 87.636C383.447 88.766 382.129 89.8583 380.321 90.913C379.266 91.5157 377.948 92.1183 376.366 92.721C374.784 93.2483 373.051 93.7003 371.168 94.077C369.284 94.529 367.288 94.868 365.179 95.094C363.145 95.32 361.111 95.433 359.077 95.433C353.653 95.433 348.568 94.7173 343.822 93.286C339.076 91.7793 334.932 89.557 331.392 86.619C327.926 83.6057 325.177 79.8767 323.143 75.432C321.109 70.9873 320.092 65.827 320.092 59.951C320.092 53.7737 321.184 48.3873 323.369 43.792C325.629 39.1967 328.567 35.3923 332.183 32.379C335.874 29.2903 340.055 26.9927 344.726 25.486C349.472 23.9793 354.331 23.226 359.303 23.226C366.459 23.226 372.109 24.3937 376.253 26.729C380.471 28.989 382.581 31.9647 382.581 35.656C382.581 37.6147 382.091 39.3097 381.112 40.741C380.132 42.1723 379.002 43.3023 377.722 44.131C375.838 43.001 373.465 41.9087 370.603 40.854C367.815 39.724 364.651 39.159 361.111 39.159C354.783 39.159 349.735 40.967 345.969 44.583C342.277 48.199 340.432 53.2087 340.432 59.612C340.432 63.0773 340.921 66.0907 341.901 68.652C342.955 71.138 344.349 73.2097 346.082 74.867C347.814 76.449 349.811 77.6543 352.071 78.483C354.331 79.2363 356.741 79.613 359.303 79.613C360.96 79.613 362.429 79.4623 363.71 79.161C364.99 78.8597 365.97 78.5207 366.648 78.144V67.522H354.557C354.105 66.6933 353.653 65.601 353.201 64.245C352.824 62.889 352.636 61.4577 352.636 59.951C352.636 57.239 353.238 55.2803 354.444 54.075C355.724 52.8697 357.344 52.267 359.303 52.267H378.4C380.66 52.267 382.392 52.9073 383.598 54.188C384.878 55.3933 385.519 57.126 385.519 59.386V82.438Z" stroke="#336699" stroke-width="8" mask="url(#path-4-outside-1_12_201)"/>
<path d="M401.911 35.656C401.911 32.4167 402.852 29.8553 404.736 27.972C406.619 26.0887 409.18 25.147 412.42 25.147H449.71C450.237 25.9757 450.689 27.068 451.066 28.424C451.518 29.78 451.744 31.2113 451.744 32.718C451.744 35.5807 451.103 37.6147 449.823 38.82C448.617 40.0253 446.998 40.628 444.964 40.628H421.121V51.137H446.546C447.073 51.9657 447.525 53.058 447.902 54.414C448.354 55.6947 448.58 57.0883 448.58 58.595C448.58 61.4577 447.977 63.4917 446.772 64.697C445.566 65.9023 443.947 66.505 441.913 66.505H421.121V78.37H450.162C450.689 79.1987 451.141 80.291 451.518 81.647C451.97 83.003 452.196 84.4343 452.196 85.941C452.196 88.8037 451.555 90.8753 450.275 92.156C449.069 93.3613 447.45 93.964 445.416 93.964H412.42C409.18 93.964 406.619 93.0223 404.736 91.139C402.852 89.2557 401.911 86.6943 401.911 83.455V35.656Z" stroke="#336699" stroke-width="8" mask="url(#path-4-outside-1_12_201)"/>
<path d="M529.245 91.252C528.19 92.3067 526.646 93.0977 524.612 93.625C522.653 94.2277 520.28 94.529 517.493 94.529C514.706 94.529 512.069 94.1147 509.583 93.286C507.097 92.4573 505.063 90.461 503.481 87.297L492.294 64.471C491.164 62.1357 490.147 59.951 489.243 57.917C488.339 55.8077 487.36 53.397 486.305 50.685L485.627 50.798C485.928 54.866 486.079 59.0093 486.079 63.228C486.154 67.4467 486.192 71.59 486.192 75.658V93.173C485.363 93.399 484.083 93.625 482.35 93.851C480.693 94.077 479.035 94.19 477.378 94.19C475.721 94.19 474.252 94.077 472.971 93.851C471.69 93.625 470.636 93.173 469.807 92.495C468.978 91.817 468.338 90.913 467.886 89.783C467.434 88.5777 467.208 87.0333 467.208 85.15V28.65C468.263 27.1433 469.882 26.0133 472.067 25.26C474.252 24.5067 476.587 24.13 479.073 24.13C481.86 24.13 484.497 24.582 486.983 25.486C489.544 26.3147 491.578 28.2733 493.085 31.362L504.385 54.188C505.515 56.5233 506.532 58.7457 507.436 60.855C508.34 62.889 509.319 65.262 510.374 67.974L510.939 67.861C510.638 63.793 510.449 59.725 510.374 55.657C510.299 51.589 510.261 47.521 510.261 43.453V25.147C511.09 24.921 512.333 24.695 513.99 24.469C515.723 24.243 517.418 24.13 519.075 24.13C522.39 24.13 524.913 24.7327 526.646 25.938C528.379 27.068 529.245 29.4787 529.245 33.17V91.252Z" stroke="#336699" stroke-width="8" mask="url(#path-4-outside-1_12_201)"/>
<path d="M582.209 38.933C576.409 38.933 571.964 40.7033 568.875 44.244C565.787 47.7847 564.242 52.7943 564.242 59.273C564.242 65.827 565.937 70.8743 569.327 74.415C572.793 77.9557 577.426 79.726 583.226 79.726C586.315 79.726 588.914 79.3117 591.023 78.483C593.208 77.6543 595.28 76.7127 597.238 75.658C598.519 76.7127 599.498 77.9933 600.176 79.5C600.93 80.9313 601.306 82.6263 601.306 84.585C601.306 87.6737 599.574 90.3103 596.108 92.495C592.718 94.6043 587.52 95.659 580.514 95.659C575.467 95.659 570.721 94.9433 566.276 93.512C561.832 92.0807 557.952 89.896 554.637 86.958C551.323 83.9447 548.686 80.178 546.727 75.658C544.844 71.0627 543.902 65.601 543.902 59.273C543.902 53.397 544.806 48.2367 546.614 43.792C548.498 39.272 551.021 35.4677 554.185 32.379C557.425 29.2903 561.191 26.955 565.485 25.373C569.779 23.791 574.375 23 579.271 23C586.202 23 591.551 24.13 595.317 26.39C599.159 28.65 601.08 31.5503 601.08 35.091C601.08 37.0497 600.591 38.7447 599.611 40.176C598.632 41.6073 597.502 42.7373 596.221 43.566C594.263 42.2853 592.153 41.193 589.893 40.289C587.709 39.385 585.147 38.933 582.209 38.933Z" stroke="#336699" stroke-width="8" mask="url(#path-4-outside-1_12_201)"/>
<path d="M615.238 35.656C615.238 32.4167 616.18 29.8553 618.063 27.972C619.946 26.0887 622.508 25.147 625.747 25.147H663.037C663.564 25.9757 664.016 27.068 664.393 28.424C664.845 29.78 665.071 31.2113 665.071 32.718C665.071 35.5807 664.431 37.6147 663.15 38.82C661.945 40.0253 660.325 40.628 658.291 40.628H634.448V51.137H659.873C660.4 51.9657 660.852 53.058 661.229 54.414C661.681 55.6947 661.907 57.0883 661.907 58.595C661.907 61.4577 661.304 63.4917 660.099 64.697C658.894 65.9023 657.274 66.505 655.24 66.505H634.448V78.37H663.489C664.016 79.1987 664.468 80.291 664.845 81.647C665.297 83.003 665.523 84.4343 665.523 85.941C665.523 88.8037 664.883 90.8753 663.602 92.156C662.397 93.3613 660.777 93.964 658.743 93.964H625.747C622.508 93.964 619.946 93.0223 618.063 91.139C616.18 89.2557 615.238 86.6943 615.238 83.455V35.656Z" stroke="#336699" stroke-width="8" mask="url(#path-4-outside-1_12_201)"/>
</g>
</g>
</g>
</svg>
