<svg width="154" height="30" viewBox="0 0 154 30" xmlns="http://www.w3.org/2000/svg">
    <g fill="#00B341" fill-rule="nonzero">
        <path d="M22.147 7.485v16.539H17.26V7.485h4.887zm29.824 14.754a9.497 9.497 0 0 1-.98.839c-.337.25-.7.463-1.081.638a6.396 6.396 0 0 1-2.71.569 5.69 5.69 0 0 1-2.376-.47A4.879 4.879 0 0 1 43.08 22.5a5.73 5.73 0 0 1-1.076-1.995 8.308 8.308 0 0 1-.362-2.52V7.504h4.899v10.483a2.904 2.904 0 0 0 .552 1.899c.41.465 1.012.713 1.628.67a3.394 3.394 0 0 0 1.51-.344c.495-.246.955-.56 1.366-.931V7.485h4.899v16.539H52.86a.895.895 0 0 1-.892-.899l.003-.886zm12.43-12.187a6.944 6.944 0 0 1 1.747-2.097 3.596 3.596 0 0 1 2.267-.767 3.475 3.475 0 0 1 1.979.528v3.255c0 .321-.144.625-.392.826-.247.202-.572.28-.883.214a9.857 9.857 0 0 0-.737-.13l-.448-.047a4.417 4.417 0 0 0-.42-.024 2.47 2.47 0 0 0-1.713.575c-.428.383-1.082 1.066-1.082 1.887v9.755H59.82V7.485h3.705c.492 0 .891.402.891.899l-.015 1.668zm11.474 6.59c.158 1.38.574 2.38 1.248 2.994a3.69 3.69 0 0 0 2.605.932c.498.01.995-.06 1.47-.207a13.449 13.449 0 0 0 1.985-.925l.336-.222a.869.869 0 0 1 1.167.177l1.58 2.075a7.052 7.052 0 0 1-1.61 1.402 8.478 8.478 0 0 1-1.803.863 9.23 9.23 0 0 1-1.803.422c-.584.078-1.172.118-1.762.12a9.143 9.143 0 0 1-3.232-.566 7.42 7.42 0 0 1-2.638-1.684 7.953 7.953 0 0 1-1.783-2.776 10.46 10.46 0 0 1-.653-3.86 8.815 8.815 0 0 1 .561-3.143 7.602 7.602 0 0 1 4.16-4.37 8.98 8.98 0 0 1 6.348-.143 6.464 6.464 0 0 1 2.323 1.497 6.779 6.779 0 0 1 1.519 2.396 8.825 8.825 0 0 1 .546 3.199c.004.3-.012.6-.047.899a1.44 1.44 0 0 1-.173.557.661.661 0 0 1-.338.3 1.578 1.578 0 0 1-.547.08l-9.46-.018zm6.161-2.873c.001-.388-.05-.774-.151-1.147a2.786 2.786 0 0 0-.487-.998 2.517 2.517 0 0 0-.892-.71 3.027 3.027 0 0 0-1.348-.263 2.913 2.913 0 0 0-2.178.806 4.209 4.209 0 0 0-1.043 2.32l6.1-.008zM22.337 1.77a2.883 2.883 0 0 0-1.55-1.497 2.95 2.95 0 0 0-1.124-.216 2.729 2.729 0 0 0-1.084.216 2.868 2.868 0 0 0-1.503 1.497c-.15.346-.226.72-.223 1.097-.002.369.074.734.223 1.072.146.33.355.63.615.88.26.251.561.454.891.6.342.15.711.226 1.084.224a2.85 2.85 0 0 0 1.123-.225 3.07 3.07 0 0 0 .924-.599c.264-.25.477-.549.627-.88a2.55 2.55 0 0 0 .229-1.072 2.64 2.64 0 0 0-.232-1.097zM39.51 22.12a3.507 3.507 0 0 0-1.17-1.238 5.163 5.163 0 0 0-1.653-.67c-.622-.141-1.254-.241-1.89-.3a29.681 29.681 0 0 0-1.889-.111 23.05 23.05 0 0 1-1.651-.096 4.195 4.195 0 0 1-1.17-.255.622.622 0 0 1-.444-.599.928.928 0 0 1 .538-.748c.235.042.472.071.71.087.242.016.49.024.743.024a8.822 8.822 0 0 0 2.608-.375 6.542 6.542 0 0 0 2.11-1.07 5.082 5.082 0 0 0 1.405-1.682c.35-.692.526-1.459.514-2.235a5.26 5.26 0 0 0-.054-.766 5.689 5.689 0 0 0-.151-.72 3.797 3.797 0 0 0-.54-1.069l1.125-.599a.9.9 0 0 0 .47-.784V7.485h-7.466a9.14 9.14 0 0 0-2.674.374 6.707 6.707 0 0 0-2.142 1.07 5.051 5.051 0 0 0-1.429 1.689 4.764 4.764 0 0 0-.523 2.24 4.65 4.65 0 0 0 .743 2.624 5.463 5.463 0 0 0 2.023 1.797 4.451 4.451 0 0 0-.98.623c-.259.218-.49.467-.687.743a2.845 2.845 0 0 0-.404.797c-.081.249-.124.51-.127.772a2.593 2.593 0 0 0 1.295 2.423 4.406 4.406 0 0 0-1.783 1.18 2.71 2.71 0 0 0-.632 1.833 3.26 3.26 0 0 0 .442 1.627c.338.565.807 1.039 1.367 1.38.72.443 1.503.768 2.323.965 1.09.262 2.207.385 3.327.365a11.045 11.045 0 0 0 3.476-.503 8.226 8.226 0 0 0 2.561-1.333 5.698 5.698 0 0 0 1.58-1.899 4.824 4.824 0 0 0 .538-2.186 3.92 3.92 0 0 0-.44-1.944v-.003zM29.87 11.393c.365-.384.952-.575 1.762-.575s1.397.191 1.762.575a2.2 2.2 0 0 1 .546 1.578 2.303 2.303 0 0 1-.546 1.587c-.365.4-.952.6-1.762.6a2.878 2.878 0 0 1-1.034-.168 1.955 1.955 0 0 1-.728-.447 1.83 1.83 0 0 1-.419-.694 2.73 2.73 0 0 1-.133-.878 2.2 2.2 0 0 1 .552-1.578zm5.395 14.202c-.13.231-.325.417-.561.534-.34.172-.705.29-1.082.35a9.726 9.726 0 0 1-1.738.126 9.078 9.078 0 0 1-1.619-.12 3.491 3.491 0 0 1-1.019-.326 1.237 1.237 0 0 1-.528-.495 1.354 1.354 0 0 1-.152-.638 1.44 1.44 0 0 1 .297-.898c.211-.276.465-.516.752-.71.685.064 1.372.104 2.061.12.626.011 1.251.056 1.872.135.47.05.928.176 1.358.374a.9.9 0 0 1 .52.854 1.48 1.48 0 0 1-.152.697l-.009-.003zM5.106 4.816v5.99h8.544v4.233H5.106v8.985H.207V.599h14.67v4.217h-9.77zM100.077 23.753v-8.576h3.556c1.409 0 2.655-.181 3.74-.544 1.083-.362 1.988-.872 2.714-1.532a6.441 6.441 0 0 0 1.65-2.359c.373-.913.56-1.916.56-3.007 0-1.092-.174-2.086-.52-2.984a5.819 5.819 0 0 0-1.594-2.294c-.716-.632-1.618-1.121-2.707-1.467-1.089-.346-2.37-.519-3.843-.519h-6.967v23.282h3.411zm3.556-11.3h-3.556V3.179h3.556c1.772 0 3.093.405 3.963 1.216.87.81 1.306 1.924 1.306 3.34 0 .702-.113 1.343-.337 1.921a4.004 4.004 0 0 1-1 1.492c-.444.416-.994.737-1.65.964-.657.227-1.417.34-2.282.34zm21.642 11.544c1.709 0 3.262-.292 4.66-.876a10.488 10.488 0 0 0 3.604-2.456c1.004-1.054 1.78-2.308 2.33-3.762.55-1.453.825-3.05.825-4.79 0-1.73-.275-3.324-.825-4.784-.55-1.459-1.326-2.715-2.33-3.77a10.584 10.584 0 0 0-3.603-2.464c-1.399-.589-2.952-.883-4.66-.883-1.698 0-3.249.294-4.653.883-1.404.59-2.605 1.41-3.603 2.465-.998 1.054-1.775 2.31-2.33 3.77-.555 1.459-.833 3.053-.833 4.782 0 1.74.278 3.338.833 4.791.555 1.454 1.332 2.708 2.33 3.762.998 1.054 2.2 1.872 3.603 2.456 1.404.584 2.955.876 4.652.876zm0-2.984c-1.206 0-2.298-.202-3.275-.608a6.896 6.896 0 0 1-2.506-1.759c-.694-.767-1.228-1.7-1.601-2.797-.374-1.097-.56-2.342-.56-3.737 0-1.383.186-2.626.56-3.729.373-1.102.907-2.037 1.601-2.805A6.982 6.982 0 0 1 122 3.811c.977-.41 2.069-.616 3.275-.616 1.207 0 2.299.205 3.275.616.977.41 1.81 1 2.499 1.767.688.768 1.22 1.703 1.593 2.805.374 1.103.56 2.346.56 3.73 0 1.394-.186 2.64-.56 3.736-.373 1.098-.905 2.03-1.593 2.797a6.822 6.822 0 0 1-2.499 1.76c-.976.405-2.068.607-3.275.607zm20.362 3c1.228 0 2.325-.192 3.291-.576.966-.383 1.78-.91 2.442-1.58a6.794 6.794 0 0 0 1.514-2.351 7.93 7.93 0 0 0 .52-2.886c0-.962-.157-1.776-.472-2.44a5.255 5.255 0 0 0-1.241-1.687 7.044 7.044 0 0 0-1.746-1.143 20.116 20.116 0 0 0-2.002-.802 287.86 287.86 0 0 0-2.002-.673 9.694 9.694 0 0 1-1.745-.762 4.081 4.081 0 0 1-1.241-1.054c-.315-.41-.473-.93-.473-1.557 0-.486.088-.937.264-1.353.177-.416.435-.779.777-1.087a3.715 3.715 0 0 1 1.273-.73c.507-.178 1.097-.267 1.77-.267.715 0 1.33.09 1.842.268.512.178.952.378 1.32.6.37.221.676.421.922.6.245.178.464.267.656.267a.737.737 0 0 0 .449-.13c.117-.086.23-.221.336-.405l.833-1.638a8.248 8.248 0 0 0-2.827-1.791c-1.084-.416-2.271-.624-3.563-.624-1.153 0-2.178.18-3.075.543-.897.362-1.652.843-2.266 1.443a6.124 6.124 0 0 0-1.401 2.067 6.29 6.29 0 0 0-.48 2.416c0 1.037.154 1.91.464 2.618.31.708.72 1.297 1.233 1.768.512.47 1.094.85 1.745 1.143.652.291 1.319.548 2.002.77.684.221 1.35.435 2.002.64a8.973 8.973 0 0 1 1.746.746 3.8 3.8 0 0 1 1.233 1.086c.31.433.464.99.464 1.67a4.34 4.34 0 0 1-.304 1.654 3.527 3.527 0 0 1-.873 1.273 3.861 3.861 0 0 1-1.401.81c-.555.19-1.185.284-1.89.284-.865 0-1.599-.119-2.202-.357a8.379 8.379 0 0 1-1.553-.786 14.3 14.3 0 0 1-1.09-.786c-.293-.238-.552-.357-.776-.357a.82.82 0 0 0-.456.13 1.317 1.317 0 0 0-.345.324l-.977 1.654c.427.465.91.883 1.45 1.256.539.373 1.118.692 1.737.957a10.48 10.48 0 0 0 4.116.835z"/>
    </g>
</svg>
