<?xml version="1.0" encoding="UTF-8"?>
<svg id="Layer_2" data-name="Layer 2" xmlns="http://www.w3.org/2000/svg" viewBox="0 0 183.7 76.65">
  <defs>
    <style>
      .cls-1 {
        fill: #00a3e0;
      }
    </style>
  </defs>
  <g id="Layer_1-2" data-name="Layer 1-2">
    <g>
      <path class="cls-1" d="m24.17,2.72H5.82C2.57,2.72,0,5.29,0,8.53v41.68c0,3.25,2.57,5.81,5.82,5.81s5.82-2.57,5.82-5.81v-11.55h9.29l11.33,14.35c1.36,1.74,3.1,3.02,5.74,3.02,2.79,0,5.52-2.12,5.52-5.36,0-1.81-.76-3.02-1.89-4.46l-8.08-9.81c6.42-2.64,10.58-7.78,10.58-16.08v-.15c0-4.98-1.59-9.14-4.53-12.08-3.47-3.47-8.69-5.36-15.41-5.36h-.02Zm8.16,18.2c0,4.45-3.25,7.47-8.91,7.47h-11.79v-15.18h11.56c5.67,0,9.14,2.57,9.14,7.55v.15h0Zm33.84-6.57c-11.79,0-20.02,9.51-20.02,21.06v.15c0,12.38,8.99,20.91,21.15,20.91,5.9,0,10.5-1.89,14.05-4.9.83-.76,1.51-1.89,1.51-3.4,0-2.57-1.89-4.53-4.46-4.53-1.21,0-1.96.3-2.79.91-2.34,1.74-4.99,2.72-8.16,2.72-5.14,0-8.76-2.72-9.9-7.93h22.74c3.02,0,5.36-2.19,5.36-5.51,0-8.38-5.97-19.48-19.49-19.48h.01Zm-8.76,17.82c.91-5.21,4-8.61,8.76-8.61s7.85,3.47,8.54,8.61h-17.3Zm63.83-17.52c-3.02,0-4.61,1.96-5.36,3.93l-8.84,23.63-8.69-23.48c-.83-2.34-2.49-4.08-5.59-4.08s-5.59,2.64-5.59,5.36c0,1.06.3,2.04.6,2.79l12.39,28.62c1.29,3.02,3.4,4.98,6.5,4.98h.61c3.09,0,5.21-2.04,6.5-4.98l12.39-28.62c.23-.53.6-1.73.6-2.72,0-3.09-2.49-5.44-5.52-5.44h0Zm26.74-.3c-11.78,0-20.02,9.51-20.02,21.06v.15c0,12.38,8.99,20.91,21.15,20.91,5.89,0,10.5-1.89,14.05-4.9.83-.76,1.51-1.89,1.51-3.4,0-2.57-1.89-4.53-4.46-4.53-1.21,0-1.97.3-2.8.91-2.34,1.74-4.99,2.72-8.16,2.72-5.14,0-8.76-2.72-9.9-7.93h22.74c3.02,0,5.37-2.19,5.37-5.51,0-8.38-5.97-19.48-19.49-19.48h.01Zm-8.76,17.82c.91-5.21,4-8.61,8.76-8.61s7.86,3.47,8.54,8.61h-17.3,0ZM177.96,0c-3.17,0-5.74,2.57-5.74,5.74v44.54c0,3.17,2.57,5.74,5.74,5.74s5.74-2.57,5.74-5.74V5.74c0-3.17-2.57-5.74-5.74-5.74Z"/>
      <g>
        <path class="cls-1" d="m107.65,75.62c-.21-.15-.36-.43-.36-.73,0-.5.4-.89.9-.89.25,0,.43.09.55.18.66.49,1.39.79,2.24.79.79,0,1.26-.31,1.26-.82v-.03c0-.49-.3-.74-1.76-1.11-1.77-.45-2.91-.94-2.91-2.68v-.03c0-1.59,1.28-2.64,3.07-2.64,1.06,0,1.99.27,2.78.78.21.12.43.39.43.76,0,.5-.4.89-.9.89-.19,0-.34-.05-.49-.14-.64-.38-1.24-.59-1.84-.59-.74,0-1.13.34-1.13.76v.02c0,.58.37.76,1.89,1.15,1.78.46,2.78,1.1,2.78,2.63v.02c0,1.74-1.33,2.71-3.22,2.71-1.15,0-2.32-.35-3.29-1.05v.02Z"/>
        <path class="cls-1" d="m120.88,73.17l-2.83-3.84c-.14-.19-.24-.41-.24-.69,0-.51.43-.93.96-.93.44,0,.71.24.95.59l2.13,3.07,2.17-3.09c.24-.35.53-.57.93-.57.59,0,.94.41.94.94,0,.26-.13.5-.25.67l-2.83,3.82v2.52c0,.54-.43.96-.96.96s-.96-.43-.96-.96v-2.49h0Z"/>
        <path class="cls-1" d="m129.78,75.62c-.21-.15-.36-.43-.36-.73,0-.5.4-.89.9-.89.25,0,.42.09.55.18.66.49,1.39.79,2.24.79.79,0,1.26-.31,1.26-.82v-.03c0-.49-.3-.74-1.77-1.11-1.77-.45-2.9-.94-2.9-2.68v-.03c0-1.59,1.28-2.64,3.07-2.64,1.06,0,1.99.27,2.78.78.21.12.43.39.43.76,0,.5-.4.89-.9.89-.19,0-.34-.05-.49-.14-.64-.38-1.24-.59-1.84-.59-.74,0-1.13.34-1.13.76v.02c0,.58.37.76,1.89,1.15,1.78.46,2.78,1.1,2.78,2.63v.02c0,1.74-1.33,2.71-3.22,2.71-1.15,0-2.32-.35-3.29-1.05v.02Z"/>
        <path class="cls-1" d="m142.82,69.57h-1.85c-.49,0-.89-.4-.89-.89s.4-.89.89-.89h5.63c.49,0,.89.4.89.89s-.4.89-.89.89h-1.85v6.09c0,.54-.43.96-.96.96s-.96-.43-.96-.96v-6.09h0Z"/>
        <path class="cls-1" d="m151.89,75.58v-6.83c0-.54.43-.96.96-.96h4.86c.48,0,.86.39.86.86s-.39.85-.86.85h-3.91v1.78h3.34c.47,0,.86.39.86.86s-.39.85-.86.85h-3.34v1.84h3.97c.48,0,.86.39.86.86s-.39.85-.86.85h-4.92c-.54,0-.96-.43-.96-.96Z"/>
        <path class="cls-1" d="m163.28,68.7c0-.54.43-.96.96-.96h.21c.41,0,.7.21.88.5l2.33,3.79,2.34-3.8c.2-.33.48-.49.86-.49h.21c.54,0,.96.42.96.96v6.95c0,.54-.43.96-.96.96s-.95-.44-.95-.96v-4.37l-1.69,2.6c-.2.3-.45.49-.8.49s-.6-.19-.8-.49l-1.66-2.57v4.35c0,.53-.43.94-.95.94s-.94-.41-.94-.94v-6.98.02Z"/>
        <path class="cls-1" d="m176.97,75.62c-.21-.15-.36-.43-.36-.73,0-.5.4-.89.9-.89.25,0,.43.09.55.18.66.49,1.39.79,2.24.79.79,0,1.26-.31,1.26-.82v-.03c0-.49-.3-.74-1.76-1.11-1.77-.45-2.9-.94-2.9-2.68v-.03c0-1.59,1.28-2.64,3.07-2.64,1.06,0,1.99.27,2.78.78.21.12.43.39.43.76,0,.5-.4.89-.9.89-.19,0-.34-.05-.49-.14-.64-.38-1.24-.59-1.84-.59-.74,0-1.13.34-1.13.76v.02c0,.58.37.76,1.89,1.15,1.78.46,2.78,1.1,2.78,2.63v.02c0,1.74-1.33,2.71-3.22,2.71-1.15,0-2.31-.35-3.29-1.05v.02Z"/>
      </g>
    </g>
  </g>
</svg>