<?xml version="1.0" encoding="UTF-8"?>
<svg width="93px" height="30px" viewBox="0 0 93 30" version="1.1" xmlns="http://www.w3.org/2000/svg" xmlns:xlink="http://www.w3.org/1999/xlink">
    <title>Group</title>
    <defs>
        <polygon id="path-1" points="1.68411585 0.0956707317 0.0741768293 0.0956707317 0.0741768293 1.70593902 1.68411585 1.70593902 1.68411585 0.0956707317"></polygon>
        <polygon id="path-3" points="1.69126829 0.0956707317 0.080597561 0.0956707317 0.080597561 1.70593902 1.69126829 1.70593902 1.69126829 0.0956707317"></polygon>
        <polygon id="path-5" points="1.68947561 0.0956707317 0.0793536585 0.0956707317 0.0793536585 1.70593902 1.68947561 1.70593902 1.68947561 0.0956707317"></polygon>
        <polygon id="path-7" points="1.68643902 0.0956707317 0.0761341463 0.0956707317 0.0761341463 1.70593902 1.68643902 1.70593902 1.68643902 0.0956707317"></polygon>
        <polygon id="path-9" points="1.71146341 0.0956707317 0.101158537 0.0956707317 0.101158537 1.70593902 1.71146341 1.70593902 1.71146341 0.0956707317"></polygon>
        <polygon id="path-11" points="1.7169878 0.0956707317 0.106134146 0.0956707317 0.106134146 1.70593902 1.7169878 1.70593902 1.7169878 0.0956707317"></polygon>
        <polygon id="path-13" points="1.86292683 1.84216463 1.86292683 0.0705182927 0.0914817073 0.0705182927 0.0914817073 1.84216463 1.86292683 1.84216463"></polygon>
        <polygon id="path-15" points="0.257234043 9.95744681 9.41282979 9.95744681 9.41282979 0.245202128 0.257234043 0.245202128 0.257234043 9.95744681"></polygon>
    </defs>
    <g id="Symbols" stroke="none" stroke-width="1" fill="none" fill-rule="evenodd">
        <g id="old/Navigation/Reports" transform="translate(-8.000000, -10.000000)">
            <g id="Group" transform="translate(8.000000, 10.000000)">
                <g id="Page-1">
                    <g id="Group-3" transform="translate(11.890244, 0.087256)">
                        <mask id="mask-2" fill="white">
                            <use xlink:href="#path-1"></use>
                        </mask>
                        <g id="Clip-2"></g>
                        <path d="M1.68411585,0.900878049 C1.68411585,1.34557317 1.32411585,1.70593902 0.879420732,1.70593902 C0.434542683,1.70593902 0.0741768293,1.34557317 0.0741768293,0.900878049 C0.0741768293,0.455817073 0.434542683,0.0956341463 0.879420732,0.0956341463 C1.32411585,0.0956341463 1.68411585,0.455817073 1.68411585,0.900878049" id="Fill-1" fill="#1183A7" mask="url(#mask-2)"></path>
                    </g>
                    <path d="M14.0047134,4.74572561 C14.0047134,5.4274939 13.4517256,5.98066463 12.7695915,5.98066463 C12.0878232,5.98066463 11.5350183,5.4274939 11.5350183,4.74572561 C11.5350183,4.06377439 12.0878232,3.51115244 12.7695915,3.51115244 C13.4517256,3.51115244 14.0047134,4.06377439 14.0047134,4.74572561" id="Fill-4" fill="#1183A7"></path>
                    <path d="M14.3796768,8.54387195 C14.3796768,9.43307927 13.659311,10.1541768 12.7695549,10.1541768 C11.8799817,10.1541768 11.15925,9.43307927 11.15925,8.54387195 C11.15925,7.65411585 11.8799817,6.93356707 12.7695549,6.93356707 C13.659311,6.93356707 14.3796768,7.65411585 14.3796768,8.54387195" id="Fill-6" fill="#1183A7"></path>
                    <path d="M14.3796768,12.6144329 C14.3796768,13.504189 13.659311,14.2247378 12.7695549,14.2247378 C11.8799817,14.2247378 11.15925,13.504189 11.15925,12.6144329 C11.15925,11.7250427 11.8799817,11.004311 12.7695549,11.004311 C13.659311,11.004311 14.3796768,11.7250427 14.3796768,12.6144329" id="Fill-8" fill="#1183A7"></path>
                    <path d="M10.3606463,12.6144329 C10.3606463,13.504189 9.63991463,14.2247378 8.75052439,14.2247378 C7.86058537,14.2247378 7.13967073,13.504189 7.13967073,12.6144329 C7.13967073,11.7250427 7.86058537,11.004311 8.75052439,11.004311 C9.63991463,11.004311 10.3606463,11.7250427 10.3606463,12.6144329" id="Fill-10" fill="#1183A7"></path>
                    <path d="M14.3796768,16.9317988 C14.3796768,17.8208232 13.659311,18.5421037 12.7695549,18.5421037 C11.8799817,18.5421037 11.15925,17.8208232 11.15925,16.9317988 C11.15925,16.0422256 11.8799817,15.3209451 12.7695549,15.3209451 C13.659311,15.3209451 14.3796768,16.0422256 14.3796768,16.9317988" id="Fill-12" fill="#1183A7"></path>
                    <path d="M14.3796768,20.9039451 C14.3796768,21.7931524 13.659311,22.5146159 12.7695549,22.5146159 C11.8799817,22.5146159 11.15925,21.7931524 11.15925,20.9039451 C11.15925,20.014372 11.8799817,19.2932744 12.7695549,19.2932744 C13.659311,19.2932744 14.3796768,20.014372 14.3796768,20.9039451" id="Fill-14" fill="#1183A7"></path>
                    <path d="M10.3606463,16.9317988 C10.3606463,17.8208232 9.63991463,18.5421037 8.75052439,18.5421037 C7.86058537,18.5421037 7.13967073,17.8208232 7.13967073,16.9317988 C7.13967073,16.0422256 7.86058537,15.3209451 8.75052439,15.3209451 C9.63991463,15.3209451 10.3606463,16.0422256 10.3606463,16.9317988" id="Fill-16" fill="#1183A7"></path>
                    <path d="M10.1993232,8.54387195 C10.1993232,9.34417683 9.55048171,9.99301829 8.75054268,9.99301829 C7.9495061,9.99301829 7.30066463,9.34417683 7.30066463,8.54387195 C7.30066463,7.74356707 7.9495061,7.09454268 8.75054268,7.09454268 C9.55048171,7.09454268 10.1993232,7.74356707 10.1993232,8.54387195" id="Fill-18" fill="#1183A7"></path>
                    <path d="M6.12312805,12.6144329 C6.12312805,13.3854695 5.49843293,14.0099817 4.72739634,14.0099817 C3.95635976,14.0099817 3.33166463,13.3854695 3.33166463,12.6144329 C3.33166463,11.8439451 3.95635976,11.2185183 4.72739634,11.2185183 C5.49843293,11.2185183 6.12312805,11.8439451 6.12312805,12.6144329" id="Fill-20" fill="#1183A7"></path>
                    <path d="M10.1457439,20.9039451 C10.1457439,21.6738841 9.52104878,22.2994939 8.75056098,22.2994939 C7.97915854,22.2994939 7.35428049,21.6738841 7.35428049,20.9039451 C7.35428049,20.1327256 7.97915854,19.5083963 8.75056098,19.5083963 C9.52104878,19.5083963 10.1457439,20.1327256 10.1457439,20.9039451" id="Fill-22" fill="#1183A7"></path>
                    <path d="M18.0844756,8.54387195 C18.0844756,9.25527439 17.5071585,9.83222561 16.796122,9.83222561 C16.0847195,9.83222561 15.5077683,9.25527439 15.5077683,8.54387195 C15.5077683,7.83210366 16.0847195,7.25533537 16.796122,7.25533537 C17.5071585,7.25533537 18.0844756,7.83210366 18.0844756,8.54387195" id="Fill-24" fill="#1183A7"></path>
                    <path d="M22.0797439,8.54387195 C22.0797439,9.2260061 21.527122,9.77881098 20.8451707,9.77881098 C20.1635854,9.77881098 19.6109634,9.2260061 19.6109634,8.54387195 C19.6109634,7.8617378 20.1635854,7.30893293 20.8451707,7.30893293 C21.527122,7.30893293 22.0797439,7.8617378 22.0797439,8.54387195" id="Fill-26" fill="#1183A7"></path>
                    <path d="M14.0047134,25.0108537 C14.0047134,25.692439 13.4509939,26.2456098 12.7695915,26.2456098 C12.088189,26.2456098 11.5350183,25.692439 11.5350183,25.0108537 C11.5350183,24.3289024 12.088189,23.7760976 12.7695915,23.7760976 C13.4509939,23.7760976 14.0047134,24.3289024 14.0047134,25.0108537" id="Fill-28" fill="#1183A7"></path>
                    <path d="M18.030878,25.0108537 C18.030878,25.692439 17.4773415,26.2456098 16.796122,26.2456098 C16.1143537,26.2456098 15.5608171,25.692439 15.5608171,25.0108537 C15.5608171,24.3289024 16.1143537,23.7760976 16.796122,23.7760976 C17.4773415,23.7760976 18.030878,24.3289024 18.030878,25.0108537" id="Fill-30" fill="#1183A7"></path>
                    <path d="M18.030878,28.6701037 C18.030878,29.351872 17.4773415,29.904311 16.796122,29.904311 C16.1143537,29.904311 15.5608171,29.351872 15.5608171,28.6701037 C15.5608171,27.9879695 16.1143537,27.4353476 16.796122,27.4353476 C17.4773415,27.4353476 18.030878,27.9879695 18.030878,28.6701037" id="Fill-32" fill="#1183A7"></path>
                    <path d="M21.733189,28.6701037 C21.733189,29.1603476 21.335872,29.5580305 20.8452622,29.5580305 C20.3553841,29.5580305 19.9573354,29.1603476 19.9573354,28.6701037 C19.9573354,28.1794939 20.3553841,27.7821768 20.8452622,27.7821768 C21.335872,27.7821768 21.733189,28.1794939 21.733189,28.6701037" id="Fill-34" fill="#1183A7"></path>
                    <path d="M25.7877622,8.54387195 C25.7877622,9.04783537 25.378372,9.4564939 24.8747744,9.4564939 C24.370811,9.4564939 23.9621524,9.04783537 23.9621524,8.54387195 C23.9621524,8.03972561 24.370811,7.63088415 24.8747744,7.63088415 C25.378372,7.63088415 25.7877622,8.03972561 25.7877622,8.54387195" id="Fill-36" fill="#1183A7"></path>
                    <path d="M22.0797439,25.0108537 C22.0797439,25.692439 21.527122,26.2456098 20.8451707,26.2456098 C20.1635854,26.2456098 19.6109634,25.692439 19.6109634,25.0108537 C19.6109634,24.3289024 20.1635854,23.7760976 20.8451707,23.7760976 C21.527122,23.7760976 22.0797439,24.3289024 22.0797439,25.0108537" id="Fill-38" fill="#1183A7"></path>
                    <path d="M25.7877622,25.0108537 C25.7877622,25.5146341 25.378372,25.9227439 24.8747744,25.9227439 C24.370811,25.9227439 23.9621524,25.5146341 23.9621524,25.0108537 C23.9621524,24.5070732 24.370811,24.0982317 24.8747744,24.0982317 C25.378372,24.0982317 25.7877622,24.5070732 25.7877622,25.0108537" id="Fill-40" fill="#1183A7"></path>
                    <path d="M17.97675,12.6144329 C17.97675,13.2671159 17.4477256,13.7957744 16.7961402,13.7957744 C16.144372,13.7957744 15.6146159,13.2671159 15.6146159,12.6144329 C15.6146159,11.9621159 16.144372,11.4334573 16.7961402,11.4334573 C17.4477256,11.4334573 17.97675,11.9621159 17.97675,12.6144329" id="Fill-42" fill="#1183A7"></path>
                    <path d="M21.8384085,12.6144329 C21.8384085,13.1630305 21.3935305,13.6073598 20.8451159,13.6073598 C20.29725,13.6073598 19.852189,13.1630305 19.852189,12.6144329 C19.852189,12.0656524 20.29725,11.6213232 20.8451159,11.6213232 C21.3935305,11.6213232 21.8384085,12.0656524 21.8384085,12.6144329" id="Fill-44" fill="#1183A7"></path>
                    <path d="M9.74326829,25.0108537 C9.74326829,25.5589024 9.29784146,26.0039634 8.75052439,26.0039634 C8.20210976,26.0039634 7.75741463,25.5589024 7.75741463,25.0108537 C7.75741463,24.4620732 8.20210976,24.0171951 8.75052439,24.0171951 C9.29784146,24.0171951 9.74326829,24.4620732 9.74326829,25.0108537" id="Fill-46" fill="#1183A7"></path>
                    <path d="M25.6804024,12.6144329 C25.6804024,13.059128 25.318939,13.4196768 24.8747927,13.4196768 C24.4304634,13.4196768 24.0695488,13.059128 24.0695488,12.6144329 C24.0695488,12.1695549 24.4304634,11.809372 24.8747927,11.809372 C25.318939,11.809372 25.6804024,12.1695549 25.6804024,12.6144329" id="Fill-48" fill="#1183A7"></path>
                    <path d="M13.7149573,28.6701037 C13.7149573,29.1914451 13.2912988,29.6145549 12.7695915,29.6145549 C12.2478841,29.6145549 11.8249573,29.1914451 11.8249573,28.6701037 C11.8249573,28.1478476 12.2478841,27.7247378 12.7695915,27.7247378 C13.2912988,27.7247378 13.7149573,28.1478476 13.7149573,28.6701037" id="Fill-50" fill="#1183A7"></path>
                    <path d="M9.83410976,4.74572561 C9.83410976,5.3442622 9.34880488,5.82975 8.75063415,5.82975 C8.15191463,5.82975 7.66660976,5.3442622 7.66660976,4.74572561 C7.66660976,4.14737195 8.15191463,3.66206707 8.75063415,3.66206707 C9.34880488,3.66206707 9.83410976,4.14737195 9.83410976,4.74572561" id="Fill-52" fill="#1183A7"></path>
                    <g id="Group-136" transform="translate(0.000000, 0.087256)">
                        <g id="Group-56" transform="translate(3.841463, 0.000000)">
                            <mask id="mask-4" fill="white">
                                <use xlink:href="#path-3"></use>
                            </mask>
                            <g id="Clip-55"></g>
                            <path d="M1.69126829,0.900878049 C1.69126829,1.34557317 1.33090244,1.70593902 0.88602439,1.70593902 C0.440963415,1.70593902 0.080597561,1.34557317 0.080597561,0.900878049 C0.080597561,0.455817073 0.440963415,0.0956341463 0.88602439,0.0956341463 C1.33090244,0.0956341463 1.69126829,0.455817073 1.69126829,0.900878049" id="Fill-54" fill="#2C444B" mask="url(#mask-4)"></path>
                        </g>
                        <g id="Group-59" transform="translate(7.865854, 0.000000)">
                            <mask id="mask-6" fill="white">
                                <use xlink:href="#path-5"></use>
                            </mask>
                            <g id="Clip-58"></g>
                            <path d="M1.68947561,0.900878049 C1.68947561,1.34557317 1.32856098,1.70593902 0.884780488,1.70593902 C0.439170732,1.70593902 0.0793536585,1.34557317 0.0793536585,0.900878049 C0.0793536585,0.455817073 0.439170732,0.0956341463 0.884780488,0.0956341463 C1.32856098,0.0956341463 1.68947561,0.455817073 1.68947561,0.900878049" id="Fill-57" fill="#2C444B" mask="url(#mask-6)"></path>
                        </g>
                        <g id="Group-62" transform="translate(15.914634, 0.000000)">
                            <mask id="mask-8" fill="white">
                                <use xlink:href="#path-7"></use>
                            </mask>
                            <g id="Clip-61"></g>
                            <path d="M1.68643902,0.900878049 C1.68643902,1.34557317 1.32589024,1.70593902 0.881560976,1.70593902 C0.436682927,1.70593902 0.0761341463,1.34557317 0.0761341463,0.900878049 C0.0761341463,0.455817073 0.436682927,0.0956341463 0.881560976,0.0956341463 C1.32589024,0.0956341463 1.68643902,0.455817073 1.68643902,0.900878049" id="Fill-60" fill="#2C444B" mask="url(#mask-8)"></path>
                        </g>
                        <g id="Group-65" transform="translate(19.939024, 0.000000)">
                            <mask id="mask-10" fill="white">
                                <use xlink:href="#path-9"></use>
                            </mask>
                            <g id="Clip-64"></g>
                            <path d="M1.71146341,0.900878049 C1.71146341,1.34557317 1.35164634,1.70593902 0.906219512,1.70593902 C0.461890244,1.70593902 0.101158537,1.34557317 0.101158537,0.900878049 C0.101158537,0.455817073 0.461890244,0.0956341463 0.906219512,0.0956341463 C1.35164634,0.0956341463 1.71146341,0.455817073 1.71146341,0.900878049" id="Fill-63" fill="#2C444B" mask="url(#mask-10)"></path>
                        </g>
                        <g id="Group-68" transform="translate(23.963415, 0.000000)">
                            <mask id="mask-12" fill="white">
                                <use xlink:href="#path-11"></use>
                            </mask>
                            <g id="Clip-67"></g>
                            <path d="M1.7169878,0.900878049 C1.7169878,1.34557317 1.35552439,1.70593902 0.911378049,1.70593902 C0.46704878,1.70593902 0.106134146,1.34557317 0.106134146,0.900878049 C0.106134146,0.455817073 0.46704878,0.0956341463 0.911378049,0.0956341463 C1.35552439,0.0956341463 1.7169878,0.455817073 1.7169878,0.900878049" id="Fill-66" fill="#2C444B" mask="url(#mask-12)"></path>
                        </g>
                        <path d="M5.53273171,4.65846951 C5.53273171,5.10316463 5.17236585,5.46334756 4.7274878,5.46334756 C4.28242683,5.46334756 3.92206098,5.10316463 3.92206098,4.65846951 C3.92206098,4.21359146 4.28242683,3.85340854 4.7274878,3.85340854 C5.17236585,3.85340854 5.53273171,4.21359146 5.53273171,4.65846951" id="Fill-69" fill="#2C444B"></path>
                        <path d="M17.6010732,4.65846951 C17.6010732,5.10316463 17.2405244,5.46334756 16.7961951,5.46334756 C16.3513171,5.46334756 15.9907683,5.10316463 15.9907683,4.65846951 C15.9907683,4.21359146 16.3513171,3.85340854 16.7961951,3.85340854 C17.2405244,3.85340854 17.6010732,4.21359146 17.6010732,4.65846951" id="Fill-71" fill="#2C444B"></path>
                        <path d="M21.6504878,4.65846951 C21.6504878,5.10316463 21.2906707,5.46334756 20.8452439,5.46334756 C20.4009146,5.46334756 20.0401829,5.10316463 20.0401829,4.65846951 C20.0401829,4.21359146 20.4009146,3.85340854 20.8452439,3.85340854 C21.2906707,3.85340854 21.6504878,4.21359146 21.6504878,4.65846951" id="Fill-73" fill="#2C444B"></path>
                        <path d="M25.6804024,4.65846951 C25.6804024,5.10316463 25.318939,5.46334756 24.8747927,5.46334756 C24.4304634,5.46334756 24.0695488,5.10316463 24.0695488,4.65846951 C24.0695488,4.21359146 24.4304634,3.85340854 24.8747927,3.85340854 C25.318939,3.85340854 25.6804024,4.21359146 25.6804024,4.65846951" id="Fill-75" fill="#2C444B"></path>
                        <path d="M5.61294512,8.45661585 C5.61294512,8.94557927 5.21672561,9.34216463 4.72739634,9.34216463 C4.23806707,9.34216463 3.84148171,8.94557927 3.84148171,8.45661585 C3.84148171,7.96728659 4.23806707,7.57051829 4.72739634,7.57051829 C5.21672561,7.57051829 5.61294512,7.96728659 5.61294512,8.45661585" id="Fill-77" fill="#2C444B"></path>
                        <path d="M5.53273171,16.8445427 C5.53273171,17.288872 5.17236585,17.6496037 4.7274878,17.6496037 C4.28242683,17.6496037 3.92206098,17.288872 3.92206098,16.8445427 C3.92206098,16.3998476 4.28242683,16.0394817 4.7274878,16.0394817 C5.17236585,16.0394817 5.53273171,16.3998476 5.53273171,16.8445427" id="Fill-79" fill="#2C444B"></path>
                        <path d="M17.6010732,16.8445427 C17.6010732,17.288872 17.2405244,17.6496037 16.7961951,17.6496037 C16.3513171,17.6496037 15.9907683,17.288872 15.9907683,16.8445427 C15.9907683,16.3998476 16.3513171,16.0394817 16.7961951,16.0394817 C17.2405244,16.0394817 17.6010732,16.3998476 17.6010732,16.8445427" id="Fill-81" fill="#2C444B"></path>
                        <path d="M21.6504878,16.8445427 C21.6504878,17.288872 21.2906707,17.6496037 20.8452439,17.6496037 C20.4009146,17.6496037 20.0401829,17.288872 20.0401829,16.8445427 C20.0401829,16.3998476 20.4009146,16.0394817 20.8452439,16.0394817 C21.2906707,16.0394817 21.6504878,16.3998476 21.6504878,16.8445427" id="Fill-83" fill="#2C444B"></path>
                        <path d="M25.6804024,16.8445427 C25.6804024,17.288872 25.318939,17.6496037 24.8747927,17.6496037 C24.4304634,17.6496037 24.0695488,17.288872 24.0695488,16.8445427 C24.0695488,16.3998476 24.4304634,16.0394817 24.8747927,16.0394817 C25.318939,16.0394817 25.6804024,16.3998476 25.6804024,16.8445427" id="Fill-85" fill="#2C444B"></path>
                        <path d="M5.53273171,20.816689 C5.53273171,21.2608354 5.17236585,21.6219329 4.7274878,21.6219329 C4.28242683,21.6219329 3.92206098,21.2608354 3.92206098,20.816689 C3.92206098,20.371811 4.28242683,20.0114451 4.7274878,20.0114451 C5.17236585,20.0114451 5.53273171,20.371811 5.53273171,20.816689" id="Fill-87" fill="#2C444B"></path>
                        <path d="M17.6010732,20.816689 C17.6010732,21.2608354 17.2405244,21.6219329 16.7961951,21.6219329 C16.3513171,21.6219329 15.9907683,21.2608354 15.9907683,20.816689 C15.9907683,20.371811 16.3513171,20.0114451 16.7961951,20.0114451 C17.2405244,20.0114451 17.6010732,20.371811 17.6010732,20.816689" id="Fill-89" fill="#2C444B"></path>
                        <path d="M21.6504878,20.816689 C21.6504878,21.2608354 21.2906707,21.6219329 20.8452439,21.6219329 C20.4009146,21.6219329 20.0401829,21.2608354 20.0401829,20.816689 C20.0401829,20.371811 20.4009146,20.0114451 20.8452439,20.0114451 C21.2906707,20.0114451 21.6504878,20.371811 21.6504878,20.816689" id="Fill-91" fill="#2C444B"></path>
                        <path d="M25.6804024,20.816689 C25.6804024,21.2608354 25.318939,21.6219329 24.8747927,21.6219329 C24.4304634,21.6219329 24.0695488,21.2608354 24.0695488,20.816689 C24.0695488,20.371811 24.4304634,20.0114451 24.8747927,20.0114451 C25.318939,20.0114451 25.6804024,20.371811 25.6804024,20.816689" id="Fill-93" fill="#2C444B"></path>
                        <path d="M5.53273171,24.9235976 C5.53273171,25.367378 5.17236585,25.7286585 4.7274878,25.7286585 C4.28242683,25.7286585 3.92206098,25.367378 3.92206098,24.9235976 C3.92206098,24.4789024 4.28242683,24.1183537 4.7274878,24.1183537 C5.17236585,24.1183537 5.53273171,24.4789024 5.53273171,24.9235976" id="Fill-95" fill="#2C444B"></path>
                        <path d="M5.53273171,28.5828476 C5.53273171,29.026811 5.17236585,29.3880915 4.7274878,29.3880915 C4.28242683,29.3880915 3.92206098,29.026811 3.92206098,28.5828476 C3.92206098,28.1383354 4.28242683,27.7776037 4.7274878,27.7776037 C5.17236585,27.7776037 5.53273171,28.1383354 5.53273171,28.5828476" id="Fill-97" fill="#2C444B"></path>
                        <path d="M1.69126829,4.65846951 C1.69126829,5.10316463 1.33090244,5.46334756 0.88602439,5.46334756 C0.440963415,5.46334756 0.080597561,5.10316463 0.080597561,4.65846951 C0.080597561,4.21359146 0.440963415,3.85340854 0.88602439,3.85340854 C1.33090244,3.85340854 1.69126829,4.21359146 1.69126829,4.65846951" id="Fill-99" fill="#2C444B"></path>
                        <path d="M1.69126829,0.900878049 C1.69126829,1.34557317 1.33090244,1.7057561 0.88602439,1.7057561 C0.440963415,1.7057561 0.080597561,1.34557317 0.080597561,0.900878049 C0.080597561,0.456 0.440963415,0.0958170732 0.88602439,0.0958170732 C1.33090244,0.0958170732 1.69126829,0.456 1.69126829,0.900878049" id="Fill-101" fill="#2C444B"></path>
                        <path d="M1.77148171,8.45661585 C1.77148171,8.94557927 1.3752622,9.34216463 0.885932927,9.34216463 C0.396603659,9.34216463 1.82926829e-05,8.94557927 1.82926829e-05,8.45661585 C1.82926829e-05,7.96728659 0.396603659,7.57051829 0.885932927,7.57051829 C1.3752622,7.57051829 1.77148171,7.96728659 1.77148171,8.45661585" id="Fill-103" fill="#2C444B"></path>
                        <path d="M1.69126829,16.8445427 C1.69126829,17.288872 1.33090244,17.6496037 0.88602439,17.6496037 C0.440963415,17.6496037 0.080597561,17.288872 0.080597561,16.8445427 C0.080597561,16.3998476 0.440963415,16.0394817 0.88602439,16.0394817 C1.33090244,16.0394817 1.69126829,16.3998476 1.69126829,16.8445427" id="Fill-105" fill="#2C444B"></path>
                        <path d="M1.69126829,12.5273598 C1.69126829,12.971689 1.33090244,13.3324207 0.88602439,13.3324207 C0.440963415,13.3324207 0.080597561,12.971689 0.080597561,12.5273598 C0.080597561,12.0826646 0.440963415,11.7222988 0.88602439,11.7222988 C1.33090244,11.7222988 1.69126829,12.0826646 1.69126829,12.5273598" id="Fill-107" fill="#2C444B"></path>
                        <path d="M1.69126829,20.816689 C1.69126829,21.2608354 1.33090244,21.6219329 0.88602439,21.6219329 C0.440963415,21.6219329 0.080597561,21.2608354 0.080597561,20.816689 C0.080597561,20.371811 0.440963415,20.0114451 0.88602439,20.0114451 C1.33090244,20.0114451 1.69126829,20.371811 1.69126829,20.816689" id="Fill-109" fill="#2C444B"></path>
                        <path d="M1.69126829,24.9235976 C1.69126829,25.367378 1.33090244,25.7286585 0.88602439,25.7286585 C0.440963415,25.7286585 0.080597561,25.367378 0.080597561,24.9235976 C0.080597561,24.4789024 0.440963415,24.1183537 0.88602439,24.1183537 C1.33090244,24.1183537 1.69126829,24.4789024 1.69126829,24.9235976" id="Fill-111" fill="#2C444B"></path>
                        <path d="M1.69126829,28.5825 C1.69126829,29.0262805 1.33090244,29.387561 0.88602439,29.387561 C0.440963415,29.387561 0.080597561,29.0262805 0.080597561,28.5825 C0.080597561,28.1378049 0.440963415,27.7772561 0.88602439,27.7772561 C1.33090244,27.7772561 1.69126829,28.1378049 1.69126829,28.5825" id="Fill-113" fill="#2C444B"></path>
                        <path d="M29.4046829,4.65846951 C29.4046829,5.10316463 29.0443171,5.46334756 28.599622,5.46334756 C28.154378,5.46334756 27.7938293,5.10316463 27.7938293,4.65846951 C27.7938293,4.21359146 28.154378,3.85340854 28.599622,3.85340854 C29.0443171,3.85340854 29.4046829,4.21359146 29.4046829,4.65846951" id="Fill-115" fill="#2C444B"></path>
                        <path d="M29.4046829,0.900878049 C29.4046829,1.34557317 29.0443171,1.7057561 28.599622,1.7057561 C28.154378,1.7057561 27.7938293,1.34557317 27.7938293,0.900878049 C27.7938293,0.456 28.154378,0.0958170732 28.599622,0.0958170732 C29.0443171,0.0958170732 29.4046829,0.456 29.4046829,0.900878049" id="Fill-117" fill="#2C444B"></path>
                        <g id="Group-121" transform="translate(27.621951, 7.500000)">
                            <mask id="mask-14" fill="white">
                                <use xlink:href="#path-13"></use>
                            </mask>
                            <g id="Clip-120"></g>
                            <path d="M1.86294512,0.956615854 C1.86294512,1.44557927 1.46672561,1.84216463 0.977396341,1.84216463 C0.488067073,1.84216463 0.0914817073,1.44557927 0.0914817073,0.956615854 C0.0914817073,0.467286585 0.488067073,0.0705182927 0.977396341,0.0705182927 C1.46672561,0.0705182927 1.86294512,0.467286585 1.86294512,0.956615854" id="Fill-119" fill="#2C444B" mask="url(#mask-14)"></path>
                        </g>
                        <path d="M29.4046829,16.8445427 C29.4046829,17.288872 29.0443171,17.6496037 28.599622,17.6496037 C28.154378,17.6496037 27.7938293,17.288872 27.7938293,16.8445427 C27.7938293,16.3998476 28.154378,16.0394817 28.599622,16.0394817 C29.0443171,16.0394817 29.4046829,16.3998476 29.4046829,16.8445427" id="Fill-122" fill="#2C444B"></path>
                        <path d="M29.4046829,12.5273598 C29.4046829,12.971689 29.0443171,13.3324207 28.599622,13.3324207 C28.154378,13.3324207 27.7938293,12.971689 27.7938293,12.5273598 C27.7938293,12.0826646 28.154378,11.7222988 28.599622,11.7222988 C29.0443171,11.7222988 29.4046829,12.0826646 29.4046829,12.5273598" id="Fill-124" fill="#2C444B"></path>
                        <path d="M29.4046829,20.816689 C29.4046829,21.2608354 29.0443171,21.6219329 28.599622,21.6219329 C28.154378,21.6219329 27.7938293,21.2608354 27.7938293,20.816689 C27.7938293,20.371811 28.154378,20.0114451 28.599622,20.0114451 C29.0443171,20.0114451 29.4046829,20.371811 29.4046829,20.816689" id="Fill-126" fill="#2C444B"></path>
                        <path d="M29.4046829,24.9235976 C29.4046829,25.367378 29.0443171,25.7286585 28.599622,25.7286585 C28.154378,25.7286585 27.7938293,25.367378 27.7938293,24.9235976 C27.7938293,24.4789024 28.154378,24.1183537 28.599622,24.1183537 C29.0443171,24.1183537 29.4046829,24.4789024 29.4046829,24.9235976" id="Fill-128" fill="#2C444B"></path>
                        <path d="M29.4046829,28.5825 C29.4046829,29.0262805 29.0443171,29.387561 28.599622,29.387561 C28.154378,29.387561 27.7938293,29.0262805 27.7938293,28.5825 C27.7938293,28.1378049 28.154378,27.7772561 28.599622,27.7772561 C29.0443171,27.7772561 29.4046829,28.1378049 29.4046829,28.5825" id="Fill-130" fill="#2C444B"></path>
                        <path d="M9.55532927,28.5828476 C9.55532927,29.026811 9.19441463,29.3880915 8.75063415,29.3880915 C8.30502439,29.3880915 7.94520732,29.026811 7.94520732,28.5828476 C7.94520732,28.1383354 8.30502439,27.7776037 8.75063415,27.7776037 C9.19441463,27.7776037 9.55532927,28.1383354 9.55532927,28.5828476" id="Fill-132" fill="#2C444B"></path>
                        <path d="M25.6804024,28.5828476 C25.6804024,29.026811 25.318939,29.3880915 24.8747927,29.3880915 C24.4304634,29.3880915 24.0695488,29.026811 24.0695488,28.5828476 C24.0695488,28.1383354 24.4304634,27.7776037 24.8747927,27.7776037 C25.318939,27.7776037 25.6804024,28.1383354 25.6804024,28.5828476" id="Fill-134" fill="#2C444B"></path>
                    </g>
                </g>
                <g transform="translate(40.000000, 8.000000)" id="Group-13">
                    <g transform="translate(0.000000, 0.998000)">
                        <path d="M5.17211915,12.7909213 C3.66965106,12.7909213 1.14875745,12.3724319 1.14875745,9.56858085 L1.14875745,5.36875106 L5.53191489e-05,5.36875106 L5.53191489e-05,3.36177234 L1.23588511,3.36177234 L1.23588511,1.21041064 L3.81735319,0.000580851064 L3.81735319,3.36177234 L5.69682128,3.36177234 L5.69682128,5.36875106 L3.81735319,5.36875106 L3.81735319,9.16807021 C3.81735319,10.0069851 4.46320426,10.4882617 5.59005532,10.4882617 C5.67828936,10.4882617 5.75573617,10.4860489 5.8188,10.483283 L5.8188,12.7588362 C5.68050213,12.7732191 5.45258723,12.7909213 5.17211915,12.7909213" id="Fill-2" fill="#CCD4DA"></path>
                        <path d="M13.351,9.03176383 C12.8984894,8.82238085 12.3068511,8.68352979 11.6626596,8.68352979 C10.531383,8.68352979 9.83519149,9.13604043 9.83519149,9.97108298 L9.83519149,10.0062106 C9.83519149,10.7201043 10.4268298,11.1374872 11.2798511,11.1374872 C12.5154043,11.1374872 13.351,10.4587213 13.351,9.5014234 L13.351,9.03176383 Z M13.299,12.7909766 L13.299,11.7814021 C12.6548085,12.4950191 11.7672128,12.9655085 10.4791064,12.9655085 C8.72134043,12.9655085 7.27668085,11.9553809 7.27668085,10.1104872 L7.27668085,10.0759128 C7.27668085,8.0393383 8.82561702,7.09974255 11.0361702,7.09974255 C11.9760426,7.09974255 12.6548085,7.25601915 13.3161489,7.48255106 L13.3161489,7.32572128 C13.3161489,6.22957234 12.637383,5.62023191 11.3147021,5.62023191 C10.3051277,5.62023191 9.59151064,5.81135957 8.73848936,6.12474255 L8.07742553,4.10559362 C9.10414894,3.65335957 10.1137234,3.35712553 11.6975106,3.35712553 C14.5868298,3.35712553 15.8575106,4.8540617 15.8575106,7.37827447 L15.8575106,12.7909766 L13.299,12.7909766 Z" id="Fill-4" fill="#CCD4DA"></path>
                        <g id="Group-8" transform="translate(22.680851, 3.042553)">
                            <mask id="mask-16" fill="white">
                                <use xlink:href="#path-15"></use>
                            </mask>
                            <g id="Clip-7"></g>
                            <path d="M4.86974468,2.36862766 C3.77331915,2.36862766 3.05970213,3.15194681 2.85087234,4.35292553 L6.83661702,4.35292553 C6.68006383,3.16964894 5.98359574,2.36862766 4.86974468,2.36862766 M9.37797872,6.00641489 L2.88544681,6.00641489 C3.14655319,7.20739362 3.98214894,7.83388298 5.16570213,7.83388298 C6.05329787,7.83388298 6.69721277,7.55535106 7.42825532,6.8768617 L8.94261702,8.21696809 C8.07217021,9.29596809 6.81919149,9.95758511 5.13057447,9.95758511 C2.32838298,9.95758511 0.257234043,7.99071277 0.257234043,5.13596809 L0.257234043,5.10139362 C0.257234043,2.43832979 2.15440426,0.245202128 4.86974468,0.245202128 C7.98559574,0.245202128 9.41282979,2.66458511 9.41282979,5.3102234 L9.41282979,5.34535106 C9.41282979,5.60618085 9.39512766,5.76273404 9.37797872,6.00641489" id="Fill-6" fill="#CCD4DA" mask="url(#mask-16)"></path>
                        </g>
                        <path d="M38.4612468,13 C35.6587787,13 33.6050553,10.8417234 33.6050553,8.17838298 L33.6050553,8.14380851 C33.6050553,5.48074468 35.6416298,3.28789362 38.4960979,3.28789362 C40.2538638,3.28789362 41.3508426,3.87925532 42.2212894,4.85425532 L40.6018213,6.59487234 C40.0104596,5.96838298 39.4188213,5.56787234 38.4786723,5.56787234 C37.1562681,5.56787234 36.2161191,6.7342766 36.2161191,8.10895745 L36.2161191,8.14380851 C36.2161191,9.57131915 37.1388426,10.7200213 38.5829489,10.7200213 C39.4705447,10.7200213 40.0804383,10.3369362 40.7238,9.72759574 L42.2727362,11.294234 C41.3677149,12.286383 40.3238426,13 38.4612468,13" id="Fill-9" fill="#CCD4DA"></path>
                        <path d="M49.895134,12.7909213 L49.895134,7.58704894 C49.895134,6.33379362 49.3034957,5.68960213 48.2941979,5.68960213 C47.2840702,5.68960213 46.6404319,6.33379362 46.6404319,7.58704894 L46.6404319,12.7909213 L43.994517,12.7909213 L43.994517,0.0849425532 L46.6404319,0.0849425532 L46.6404319,4.44187872 C47.2497723,3.65855957 48.2347298,3.28792128 49.3726447,3.28792128 C51.3743681,3.28792128 52.5404957,4.61060213 52.5404957,6.75145319 L52.5404957,12.7909213 L49.895134,12.7909213 Z" id="Fill-11" fill="#CCD4DA"></path>
                        <polygon id="Fill-1" fill="#CCD4DA" points="18.1037447 12.7908936 20.7491064 12.7908936 20.7491064 0.0846382979 18.1037447 0.0846382979"></polygon>
                    </g>
                </g>
            </g>
        </g>
    </g>
</svg>
